<?xml version="1.0" encoding="utf-8" standalone="no"?>
<!DOCTYPE svg PUBLIC "-//W3C//DTD SVG 1.1//EN"
  "http://www.w3.org/Graphics/SVG/1.1/DTD/svg11.dtd">
<!-- Created with matplotlib (http://matplotlib.org/) -->
<svg height="432pt" version="1.1" viewBox="0 0 576 432" width="576pt" xmlns="http://www.w3.org/2000/svg" xmlns:xlink="http://www.w3.org/1999/xlink">
 <defs>
  <style type="text/css">
*{stroke-linecap:butt;stroke-linejoin:round;}
  </style>
 </defs>
 <g id="figure_1">
  <g id="patch_1">
   <path d="
M0 432
L576 432
L576 0
L0 0
z
" style="fill:#ffffff;"/>
  </g>
  <g id="axes_1">
   <g id="patch_2">
    <path d="
M72 388.8
L518.4 388.8
L518.4 43.2
L72 43.2
z
" style="fill:#ffffff;"/>
   </g>
   <g id="patch_3">
    <path clip-path="url(#p7ff5b81e1d)" d="
M101.76 388.8
L105.778 388.8
L105.778 380.238
L101.76 380.238
z
" style="fill:#0000ff;stroke:#000000;"/>
   </g>
   <g id="patch_4">
    <path clip-path="url(#p7ff5b81e1d)" d="
M105.778 388.8
L109.795 388.8
L109.795 388.8
L105.778 388.8
z
" style="fill:#0000ff;stroke:#000000;"/>
   </g>
   <g id="patch_5">
    <path clip-path="url(#p7ff5b81e1d)" d="
M109.795 388.8
L113.813 388.8
L113.813 388.8
L109.795 388.8
z
" style="fill:#0000ff;stroke:#000000;"/>
   </g>
   <g id="patch_6">
    <path clip-path="url(#p7ff5b81e1d)" d="
M113.813 388.8
L117.83 388.8
L117.83 388.8
L113.813 388.8
z
" style="fill:#0000ff;stroke:#000000;"/>
   </g>
   <g id="patch_7">
    <path clip-path="url(#p7ff5b81e1d)" d="
M117.83 388.8
L121.848 388.8
L121.848 388.8
L117.83 388.8
z
" style="fill:#0000ff;stroke:#000000;"/>
   </g>
   <g id="patch_8">
    <path clip-path="url(#p7ff5b81e1d)" d="
M121.848 388.8
L125.866 388.8
L125.866 388.8
L121.848 388.8
z
" style="fill:#0000ff;stroke:#000000;"/>
   </g>
   <g id="patch_9">
    <path clip-path="url(#p7ff5b81e1d)" d="
M125.866 388.8
L129.883 388.8
L129.883 388.8
L125.866 388.8
z
" style="fill:#0000ff;stroke:#000000;"/>
   </g>
   <g id="patch_10">
    <path clip-path="url(#p7ff5b81e1d)" d="
M129.883 388.8
L133.901 388.8
L133.901 388.8
L129.883 388.8
z
" style="fill:#0000ff;stroke:#000000;"/>
   </g>
   <g id="patch_11">
    <path clip-path="url(#p7ff5b81e1d)" d="
M133.901 388.8
L137.918 388.8
L137.918 388.8
L133.901 388.8
z
" style="fill:#0000ff;stroke:#000000;"/>
   </g>
   <g id="patch_12">
    <path clip-path="url(#p7ff5b81e1d)" d="
M137.918 388.8
L141.936 388.8
L141.936 388.8
L137.918 388.8
z
" style="fill:#0000ff;stroke:#000000;"/>
   </g>
   <g id="patch_13">
    <path clip-path="url(#p7ff5b81e1d)" d="
M141.936 388.8
L145.954 388.8
L145.954 388.8
L141.936 388.8
z
" style="fill:#0000ff;stroke:#000000;"/>
   </g>
   <g id="patch_14">
    <path clip-path="url(#p7ff5b81e1d)" d="
M145.954 388.8
L149.971 388.8
L149.971 371.676
L145.954 371.676
z
" style="fill:#0000ff;stroke:#000000;"/>
   </g>
   <g id="patch_15">
    <path clip-path="url(#p7ff5b81e1d)" d="
M149.971 388.8
L153.989 388.8
L153.989 380.238
L149.971 380.238
z
" style="fill:#0000ff;stroke:#000000;"/>
   </g>
   <g id="patch_16">
    <path clip-path="url(#p7ff5b81e1d)" d="
M153.989 388.8
L158.006 388.8
L158.006 388.8
L153.989 388.8
z
" style="fill:#0000ff;stroke:#000000;"/>
   </g>
   <g id="patch_17">
    <path clip-path="url(#p7ff5b81e1d)" d="
M158.006 388.8
L162.024 388.8
L162.024 388.8
L158.006 388.8
z
" style="fill:#0000ff;stroke:#000000;"/>
   </g>
   <g id="patch_18">
    <path clip-path="url(#p7ff5b81e1d)" d="
M162.024 388.8
L166.042 388.8
L166.042 388.8
L162.024 388.8
z
" style="fill:#0000ff;stroke:#000000;"/>
   </g>
   <g id="patch_19">
    <path clip-path="url(#p7ff5b81e1d)" d="
M166.042 388.8
L170.059 388.8
L170.059 388.8
L166.042 388.8
z
" style="fill:#0000ff;stroke:#000000;"/>
   </g>
   <g id="patch_20">
    <path clip-path="url(#p7ff5b81e1d)" d="
M170.059 388.8
L174.077 388.8
L174.077 388.8
L170.059 388.8
z
" style="fill:#0000ff;stroke:#000000;"/>
   </g>
   <g id="patch_21">
    <path clip-path="url(#p7ff5b81e1d)" d="
M174.077 388.8
L178.094 388.8
L178.094 380.238
L174.077 380.238
z
" style="fill:#0000ff;stroke:#000000;"/>
   </g>
   <g id="patch_22">
    <path clip-path="url(#p7ff5b81e1d)" d="
M178.094 388.8
L182.112 388.8
L182.112 388.8
L178.094 388.8
z
" style="fill:#0000ff;stroke:#000000;"/>
   </g>
   <g id="patch_23">
    <path clip-path="url(#p7ff5b81e1d)" d="
M182.112 388.8
L186.13 388.8
L186.13 371.676
L182.112 371.676
z
" style="fill:#0000ff;stroke:#000000;"/>
   </g>
   <g id="patch_24">
    <path clip-path="url(#p7ff5b81e1d)" d="
M186.13 388.8
L190.147 388.8
L190.147 388.8
L186.13 388.8
z
" style="fill:#0000ff;stroke:#000000;"/>
   </g>
   <g id="patch_25">
    <path clip-path="url(#p7ff5b81e1d)" d="
M190.147 388.8
L194.165 388.8
L194.165 371.676
L190.147 371.676
z
" style="fill:#0000ff;stroke:#000000;"/>
   </g>
   <g id="patch_26">
    <path clip-path="url(#p7ff5b81e1d)" d="
M194.165 388.8
L198.182 388.8
L198.182 388.8
L194.165 388.8
z
" style="fill:#0000ff;stroke:#000000;"/>
   </g>
   <g id="patch_27">
    <path clip-path="url(#p7ff5b81e1d)" d="
M198.182 388.8
L202.2 388.8
L202.2 388.8
L198.182 388.8
z
" style="fill:#0000ff;stroke:#000000;"/>
   </g>
   <g id="patch_28">
    <path clip-path="url(#p7ff5b81e1d)" d="
M202.2 388.8
L206.218 388.8
L206.218 380.238
L202.2 380.238
z
" style="fill:#0000ff;stroke:#000000;"/>
   </g>
   <g id="patch_29">
    <path clip-path="url(#p7ff5b81e1d)" d="
M206.218 388.8
L210.235 388.8
L210.235 388.8
L206.218 388.8
z
" style="fill:#0000ff;stroke:#000000;"/>
   </g>
   <g id="patch_30">
    <path clip-path="url(#p7ff5b81e1d)" d="
M210.235 388.8
L214.253 388.8
L214.253 380.238
L210.235 380.238
z
" style="fill:#0000ff;stroke:#000000;"/>
   </g>
   <g id="patch_31">
    <path clip-path="url(#p7ff5b81e1d)" d="
M214.253 388.8
L218.27 388.8
L218.27 388.8
L214.253 388.8
z
" style="fill:#0000ff;stroke:#000000;"/>
   </g>
   <g id="patch_32">
    <path clip-path="url(#p7ff5b81e1d)" d="
M218.27 388.8
L222.288 388.8
L222.288 354.553
L218.27 354.553
z
" style="fill:#0000ff;stroke:#000000;"/>
   </g>
   <g id="patch_33">
    <path clip-path="url(#p7ff5b81e1d)" d="
M222.288 388.8
L226.306 388.8
L226.306 388.8
L222.288 388.8
z
" style="fill:#0000ff;stroke:#000000;"/>
   </g>
   <g id="patch_34">
    <path clip-path="url(#p7ff5b81e1d)" d="
M226.306 388.8
L230.323 388.8
L230.323 345.991
L226.306 345.991
z
" style="fill:#0000ff;stroke:#000000;"/>
   </g>
   <g id="patch_35">
    <path clip-path="url(#p7ff5b81e1d)" d="
M230.323 388.8
L234.341 388.8
L234.341 388.8
L230.323 388.8
z
" style="fill:#0000ff;stroke:#000000;"/>
   </g>
   <g id="patch_36">
    <path clip-path="url(#p7ff5b81e1d)" d="
M234.341 388.8
L238.358 388.8
L238.358 328.867
L234.341 328.867
z
" style="fill:#0000ff;stroke:#000000;"/>
   </g>
   <g id="patch_37">
    <path clip-path="url(#p7ff5b81e1d)" d="
M238.358 388.8
L242.376 388.8
L242.376 388.8
L238.358 388.8
z
" style="fill:#0000ff;stroke:#000000;"/>
   </g>
   <g id="patch_38">
    <path clip-path="url(#p7ff5b81e1d)" d="
M242.376 388.8
L246.394 388.8
L246.394 337.429
L242.376 337.429
z
" style="fill:#0000ff;stroke:#000000;"/>
   </g>
   <g id="patch_39">
    <path clip-path="url(#p7ff5b81e1d)" d="
M246.394 388.8
L250.411 388.8
L250.411 388.8
L246.394 388.8
z
" style="fill:#0000ff;stroke:#000000;"/>
   </g>
   <g id="patch_40">
    <path clip-path="url(#p7ff5b81e1d)" d="
M250.411 388.8
L254.429 388.8
L254.429 354.553
L250.411 354.553
z
" style="fill:#0000ff;stroke:#000000;"/>
   </g>
   <g id="patch_41">
    <path clip-path="url(#p7ff5b81e1d)" d="
M254.429 388.8
L258.446 388.8
L258.446 251.81
L254.429 251.81
z
" style="fill:#0000ff;stroke:#000000;"/>
   </g>
   <g id="patch_42">
    <path clip-path="url(#p7ff5b81e1d)" d="
M258.446 388.8
L262.464 388.8
L262.464 388.8
L258.446 388.8
z
" style="fill:#0000ff;stroke:#000000;"/>
   </g>
   <g id="patch_43">
    <path clip-path="url(#p7ff5b81e1d)" d="
M262.464 388.8
L266.482 388.8
L266.482 303.181
L262.464 303.181
z
" style="fill:#0000ff;stroke:#000000;"/>
   </g>
   <g id="patch_44">
    <path clip-path="url(#p7ff5b81e1d)" d="
M266.482 388.8
L270.499 388.8
L270.499 388.8
L266.482 388.8
z
" style="fill:#0000ff;stroke:#000000;"/>
   </g>
   <g id="patch_45">
    <path clip-path="url(#p7ff5b81e1d)" d="
M270.499 388.8
L274.517 388.8
L274.517 303.181
L270.499 303.181
z
" style="fill:#0000ff;stroke:#000000;"/>
   </g>
   <g id="patch_46">
    <path clip-path="url(#p7ff5b81e1d)" d="
M274.517 388.8
L278.534 388.8
L278.534 388.8
L274.517 388.8
z
" style="fill:#0000ff;stroke:#000000;"/>
   </g>
   <g id="patch_47">
    <path clip-path="url(#p7ff5b81e1d)" d="
M278.534 388.8
L282.552 388.8
L282.552 209.001
L278.534 209.001
z
" style="fill:#0000ff;stroke:#000000;"/>
   </g>
   <g id="patch_48">
    <path clip-path="url(#p7ff5b81e1d)" d="
M282.552 388.8
L286.57 388.8
L286.57 388.8
L282.552 388.8
z
" style="fill:#0000ff;stroke:#000000;"/>
   </g>
   <g id="patch_49">
    <path clip-path="url(#p7ff5b81e1d)" d="
M286.57 388.8
L290.587 388.8
L290.587 311.743
L286.57 311.743
z
" style="fill:#0000ff;stroke:#000000;"/>
   </g>
   <g id="patch_50">
    <path clip-path="url(#p7ff5b81e1d)" d="
M290.587 388.8
L294.605 388.8
L294.605 388.8
L290.587 388.8
z
" style="fill:#0000ff;stroke:#000000;"/>
   </g>
   <g id="patch_51">
    <path clip-path="url(#p7ff5b81e1d)" d="
M294.605 388.8
L298.622 388.8
L298.622 97.6963
L294.605 97.6963
z
" style="fill:#0000ff;stroke:#000000;"/>
   </g>
   <g id="patch_52">
    <path clip-path="url(#p7ff5b81e1d)" d="
M298.622 388.8
L302.64 388.8
L302.64 388.8
L298.622 388.8
z
" style="fill:#0000ff;stroke:#000000;"/>
   </g>
   <g id="patch_53">
    <path clip-path="url(#p7ff5b81e1d)" d="
M302.64 388.8
L306.658 388.8
L306.658 260.372
L302.64 260.372
z
" style="fill:#0000ff;stroke:#000000;"/>
   </g>
   <g id="patch_54">
    <path clip-path="url(#p7ff5b81e1d)" d="
M306.658 388.8
L310.675 388.8
L310.675 191.877
L306.658 191.877
z
" style="fill:#0000ff;stroke:#000000;"/>
   </g>
   <g id="patch_55">
    <path clip-path="url(#p7ff5b81e1d)" d="
M310.675 388.8
L314.693 388.8
L314.693 388.8
L310.675 388.8
z
" style="fill:#0000ff;stroke:#000000;"/>
   </g>
   <g id="patch_56">
    <path clip-path="url(#p7ff5b81e1d)" d="
M314.693 388.8
L318.71 388.8
L318.71 191.877
L314.693 191.877
z
" style="fill:#0000ff;stroke:#000000;"/>
   </g>
   <g id="patch_57">
    <path clip-path="url(#p7ff5b81e1d)" d="
M318.71 388.8
L322.728 388.8
L322.728 388.8
L318.71 388.8
z
" style="fill:#0000ff;stroke:#000000;"/>
   </g>
   <g id="patch_58">
    <path clip-path="url(#p7ff5b81e1d)" d="
M322.728 388.8
L326.746 388.8
L326.746 268.934
L322.728 268.934
z
" style="fill:#0000ff;stroke:#000000;"/>
   </g>
   <g id="patch_59">
    <path clip-path="url(#p7ff5b81e1d)" d="
M326.746 388.8
L330.763 388.8
L330.763 388.8
L326.746 388.8
z
" style="fill:#0000ff;stroke:#000000;"/>
   </g>
   <g id="patch_60">
    <path clip-path="url(#p7ff5b81e1d)" d="
M330.763 388.8
L334.781 388.8
L334.781 209.001
L330.763 209.001
z
" style="fill:#0000ff;stroke:#000000;"/>
   </g>
   <g id="patch_61">
    <path clip-path="url(#p7ff5b81e1d)" d="
M334.781 388.8
L338.798 388.8
L338.798 388.8
L334.781 388.8
z
" style="fill:#0000ff;stroke:#000000;"/>
   </g>
   <g id="patch_62">
    <path clip-path="url(#p7ff5b81e1d)" d="
M338.798 388.8
L342.816 388.8
L342.816 268.934
L338.798 268.934
z
" style="fill:#0000ff;stroke:#000000;"/>
   </g>
   <g id="patch_63">
    <path clip-path="url(#p7ff5b81e1d)" d="
M342.816 388.8
L346.834 388.8
L346.834 388.8
L342.816 388.8
z
" style="fill:#0000ff;stroke:#000000;"/>
   </g>
   <g id="patch_64">
    <path clip-path="url(#p7ff5b81e1d)" d="
M346.834 388.8
L350.851 388.8
L350.851 311.743
L346.834 311.743
z
" style="fill:#0000ff;stroke:#000000;"/>
   </g>
   <g id="patch_65">
    <path clip-path="url(#p7ff5b81e1d)" d="
M350.851 388.8
L354.869 388.8
L354.869 337.429
L350.851 337.429
z
" style="fill:#0000ff;stroke:#000000;"/>
   </g>
   <g id="patch_66">
    <path clip-path="url(#p7ff5b81e1d)" d="
M354.869 388.8
L358.886 388.8
L358.886 388.8
L354.869 388.8
z
" style="fill:#0000ff;stroke:#000000;"/>
   </g>
   <g id="patch_67">
    <path clip-path="url(#p7ff5b81e1d)" d="
M358.886 388.8
L362.904 388.8
L362.904 354.553
L358.886 354.553
z
" style="fill:#0000ff;stroke:#000000;"/>
   </g>
   <g id="patch_68">
    <path clip-path="url(#p7ff5b81e1d)" d="
M362.904 388.8
L366.922 388.8
L366.922 388.8
L362.904 388.8
z
" style="fill:#0000ff;stroke:#000000;"/>
   </g>
   <g id="patch_69">
    <path clip-path="url(#p7ff5b81e1d)" d="
M366.922 388.8
L370.939 388.8
L370.939 337.429
L366.922 337.429
z
" style="fill:#0000ff;stroke:#000000;"/>
   </g>
   <g id="patch_70">
    <path clip-path="url(#p7ff5b81e1d)" d="
M370.939 388.8
L374.957 388.8
L374.957 388.8
L370.939 388.8
z
" style="fill:#0000ff;stroke:#000000;"/>
   </g>
   <g id="patch_71">
    <path clip-path="url(#p7ff5b81e1d)" d="
M374.957 388.8
L378.974 388.8
L378.974 363.114
L374.957 363.114
z
" style="fill:#0000ff;stroke:#000000;"/>
   </g>
   <g id="patch_72">
    <path clip-path="url(#p7ff5b81e1d)" d="
M378.974 388.8
L382.992 388.8
L382.992 388.8
L378.974 388.8
z
" style="fill:#0000ff;stroke:#000000;"/>
   </g>
   <g id="patch_73">
    <path clip-path="url(#p7ff5b81e1d)" d="
M382.992 388.8
L387.01 388.8
L387.01 345.991
L382.992 345.991
z
" style="fill:#0000ff;stroke:#000000;"/>
   </g>
   <g id="patch_74">
    <path clip-path="url(#p7ff5b81e1d)" d="
M387.01 388.8
L391.027 388.8
L391.027 388.8
L387.01 388.8
z
" style="fill:#0000ff;stroke:#000000;"/>
   </g>
   <g id="patch_75">
    <path clip-path="url(#p7ff5b81e1d)" d="
M391.027 388.8
L395.045 388.8
L395.045 354.553
L391.027 354.553
z
" style="fill:#0000ff;stroke:#000000;"/>
   </g>
   <g id="patch_76">
    <path clip-path="url(#p7ff5b81e1d)" d="
M395.045 388.8
L399.062 388.8
L399.062 388.8
L395.045 388.8
z
" style="fill:#0000ff;stroke:#000000;"/>
   </g>
   <g id="patch_77">
    <path clip-path="url(#p7ff5b81e1d)" d="
M399.062 388.8
L403.08 388.8
L403.08 363.114
L399.062 363.114
z
" style="fill:#0000ff;stroke:#000000;"/>
   </g>
   <g id="patch_78">
    <path clip-path="url(#p7ff5b81e1d)" d="
M403.08 388.8
L407.098 388.8
L407.098 354.553
L403.08 354.553
z
" style="fill:#0000ff;stroke:#000000;"/>
   </g>
   <g id="patch_79">
    <path clip-path="url(#p7ff5b81e1d)" d="
M407.098 388.8
L411.115 388.8
L411.115 388.8
L407.098 388.8
z
" style="fill:#0000ff;stroke:#000000;"/>
   </g>
   <g id="patch_80">
    <path clip-path="url(#p7ff5b81e1d)" d="
M411.115 388.8
L415.133 388.8
L415.133 380.238
L411.115 380.238
z
" style="fill:#0000ff;stroke:#000000;"/>
   </g>
   <g id="patch_81">
    <path clip-path="url(#p7ff5b81e1d)" d="
M415.133 388.8
L419.15 388.8
L419.15 388.8
L415.133 388.8
z
" style="fill:#0000ff;stroke:#000000;"/>
   </g>
   <g id="patch_82">
    <path clip-path="url(#p7ff5b81e1d)" d="
M419.15 388.8
L423.168 388.8
L423.168 371.676
L419.15 371.676
z
" style="fill:#0000ff;stroke:#000000;"/>
   </g>
   <g id="patch_83">
    <path clip-path="url(#p7ff5b81e1d)" d="
M423.168 388.8
L427.186 388.8
L427.186 388.8
L423.168 388.8
z
" style="fill:#0000ff;stroke:#000000;"/>
   </g>
   <g id="patch_84">
    <path clip-path="url(#p7ff5b81e1d)" d="
M427.186 388.8
L431.203 388.8
L431.203 388.8
L427.186 388.8
z
" style="fill:#0000ff;stroke:#000000;"/>
   </g>
   <g id="patch_85">
    <path clip-path="url(#p7ff5b81e1d)" d="
M431.203 388.8
L435.221 388.8
L435.221 388.8
L431.203 388.8
z
" style="fill:#0000ff;stroke:#000000;"/>
   </g>
   <g id="patch_86">
    <path clip-path="url(#p7ff5b81e1d)" d="
M435.221 388.8
L439.238 388.8
L439.238 380.238
L435.221 380.238
z
" style="fill:#0000ff;stroke:#000000;"/>
   </g>
   <g id="patch_87">
    <path clip-path="url(#p7ff5b81e1d)" d="
M439.238 388.8
L443.256 388.8
L443.256 388.8
L439.238 388.8
z
" style="fill:#0000ff;stroke:#000000;"/>
   </g>
   <g id="patch_88">
    <path clip-path="url(#p7ff5b81e1d)" d="
M443.256 388.8
L447.274 388.8
L447.274 380.238
L443.256 380.238
z
" style="fill:#0000ff;stroke:#000000;"/>
   </g>
   <g id="patch_89">
    <path clip-path="url(#p7ff5b81e1d)" d="
M447.274 388.8
L451.291 388.8
L451.291 388.8
L447.274 388.8
z
" style="fill:#0000ff;stroke:#000000;"/>
   </g>
   <g id="patch_90">
    <path clip-path="url(#p7ff5b81e1d)" d="
M451.291 388.8
L455.309 388.8
L455.309 388.8
L451.291 388.8
z
" style="fill:#0000ff;stroke:#000000;"/>
   </g>
   <g id="patch_91">
    <path clip-path="url(#p7ff5b81e1d)" d="
M455.309 388.8
L459.326 388.8
L459.326 388.8
L455.309 388.8
z
" style="fill:#0000ff;stroke:#000000;"/>
   </g>
   <g id="patch_92">
    <path clip-path="url(#p7ff5b81e1d)" d="
M459.326 388.8
L463.344 388.8
L463.344 388.8
L459.326 388.8
z
" style="fill:#0000ff;stroke:#000000;"/>
   </g>
   <g id="patch_93">
    <path clip-path="url(#p7ff5b81e1d)" d="
M463.344 388.8
L467.362 388.8
L467.362 371.676
L463.344 371.676
z
" style="fill:#0000ff;stroke:#000000;"/>
   </g>
   <g id="patch_94">
    <path clip-path="url(#p7ff5b81e1d)" d="
M467.362 388.8
L471.379 388.8
L471.379 388.8
L467.362 388.8
z
" style="fill:#0000ff;stroke:#000000;"/>
   </g>
   <g id="patch_95">
    <path clip-path="url(#p7ff5b81e1d)" d="
M471.379 388.8
L475.397 388.8
L475.397 388.8
L471.379 388.8
z
" style="fill:#0000ff;stroke:#000000;"/>
   </g>
   <g id="patch_96">
    <path clip-path="url(#p7ff5b81e1d)" d="
M475.397 388.8
L479.414 388.8
L479.414 388.8
L475.397 388.8
z
" style="fill:#0000ff;stroke:#000000;"/>
   </g>
   <g id="patch_97">
    <path clip-path="url(#p7ff5b81e1d)" d="
M479.414 388.8
L483.432 388.8
L483.432 388.8
L479.414 388.8
z
" style="fill:#0000ff;stroke:#000000;"/>
   </g>
   <g id="patch_98">
    <path clip-path="url(#p7ff5b81e1d)" d="
M483.432 388.8
L487.45 388.8
L487.45 388.8
L483.432 388.8
z
" style="fill:#0000ff;stroke:#000000;"/>
   </g>
   <g id="patch_99">
    <path clip-path="url(#p7ff5b81e1d)" d="
M487.45 388.8
L491.467 388.8
L491.467 388.8
L487.45 388.8
z
" style="fill:#0000ff;stroke:#000000;"/>
   </g>
   <g id="patch_100">
    <path clip-path="url(#p7ff5b81e1d)" d="
M491.467 388.8
L495.485 388.8
L495.485 388.8
L491.467 388.8
z
" style="fill:#0000ff;stroke:#000000;"/>
   </g>
   <g id="patch_101">
    <path clip-path="url(#p7ff5b81e1d)" d="
M495.485 388.8
L499.502 388.8
L499.502 388.8
L495.485 388.8
z
" style="fill:#0000ff;stroke:#000000;"/>
   </g>
   <g id="patch_102">
    <path clip-path="url(#p7ff5b81e1d)" d="
M499.502 388.8
L503.52 388.8
L503.52 380.238
L499.502 380.238
z
" style="fill:#0000ff;stroke:#000000;"/>
   </g>
   <g id="matplotlib.axis_1">
    <g id="xtick_1">
     <g id="line2d_1">
      <defs>
       <path d="
M0 0
L0 -4" id="m93b0483c22" style="stroke:#000000;stroke-width:0.5;"/>
      </defs>
      <g>
       <use style="stroke:#000000;stroke-width:0.5;" x="72.0" xlink:href="#m93b0483c22" y="388.8"/>
      </g>
     </g>
     <g id="line2d_2">
      <defs>
       <path d="
M0 0
L0 4" id="m741efc42ff" style="stroke:#000000;stroke-width:0.5;"/>
      </defs>
      <g>
       <use style="stroke:#000000;stroke-width:0.5;" x="72.0" xlink:href="#m741efc42ff" y="43.2"/>
      </g>
     </g>
     <g id="text_1">
      <!-- 35 -->
      <defs>
       <path d="
M40.5781 39.3125
Q47.6562 37.7969 51.625 33
Q55.6094 28.2188 55.6094 21.1875
Q55.6094 10.4062 48.1875 4.48438
Q40.7656 -1.42188 27.0938 -1.42188
Q22.5156 -1.42188 17.6562 -0.515625
Q12.7969 0.390625 7.625 2.20312
L7.625 11.7188
Q11.7188 9.32812 16.5938 8.10938
Q21.4844 6.89062 26.8125 6.89062
Q36.0781 6.89062 40.9375 10.5469
Q45.7969 14.2031 45.7969 21.1875
Q45.7969 27.6406 41.2812 31.2656
Q36.7656 34.9062 28.7188 34.9062
L20.2188 34.9062
L20.2188 43.0156
L29.1094 43.0156
Q36.375 43.0156 40.2344 45.9219
Q44.0938 48.8281 44.0938 54.2969
Q44.0938 59.9062 40.1094 62.9062
Q36.1406 65.9219 28.7188 65.9219
Q24.6562 65.9219 20.0156 65.0312
Q15.375 64.1562 9.8125 62.3125
L9.8125 71.0938
Q15.4375 72.6562 20.3438 73.4375
Q25.25 74.2188 29.5938 74.2188
Q40.8281 74.2188 47.3594 69.1094
Q53.9062 64.0156 53.9062 55.3281
Q53.9062 49.2656 50.4375 45.0938
Q46.9688 40.9219 40.5781 39.3125" id="BitstreamVeraSans-Roman-33"/>
       <path d="
M10.7969 72.9062
L49.5156 72.9062
L49.5156 64.5938
L19.8281 64.5938
L19.8281 46.7344
Q21.9688 47.4688 24.1094 47.8281
Q26.2656 48.1875 28.4219 48.1875
Q40.625 48.1875 47.75 41.5
Q54.8906 34.8125 54.8906 23.3906
Q54.8906 11.625 47.5625 5.09375
Q40.2344 -1.42188 26.9062 -1.42188
Q22.3125 -1.42188 17.5469 -0.640625
Q12.7969 0.140625 7.71875 1.70312
L7.71875 11.625
Q12.1094 9.23438 16.7969 8.0625
Q21.4844 6.89062 26.7031 6.89062
Q35.1562 6.89062 40.0781 11.3281
Q45.0156 15.7656 45.0156 23.3906
Q45.0156 31 40.0781 35.4375
Q35.1562 39.8906 26.7031 39.8906
Q22.75 39.8906 18.8125 39.0156
Q14.8906 38.1406 10.7969 36.2812
z
" id="BitstreamVeraSans-Roman-35"/>
      </defs>
      <g transform="translate(65.3465625 401.918125)scale(0.12 -0.12)">
       <use xlink:href="#BitstreamVeraSans-Roman-33"/>
       <use x="63.623046875" xlink:href="#BitstreamVeraSans-Roman-35"/>
      </g>
     </g>
    </g>
    <g id="xtick_2">
     <g id="line2d_3">
      <g>
       <use style="stroke:#000000;stroke-width:0.5;" x="146.4" xlink:href="#m93b0483c22" y="388.8"/>
      </g>
     </g>
     <g id="line2d_4">
      <g>
       <use style="stroke:#000000;stroke-width:0.5;" x="146.4" xlink:href="#m741efc42ff" y="43.2"/>
      </g>
     </g>
     <g id="text_2">
      <!-- 36 -->
      <defs>
       <path d="
M33.0156 40.375
Q26.375 40.375 22.4844 35.8281
Q18.6094 31.2969 18.6094 23.3906
Q18.6094 15.5312 22.4844 10.9531
Q26.375 6.39062 33.0156 6.39062
Q39.6562 6.39062 43.5312 10.9531
Q47.4062 15.5312 47.4062 23.3906
Q47.4062 31.2969 43.5312 35.8281
Q39.6562 40.375 33.0156 40.375
M52.5938 71.2969
L52.5938 62.3125
Q48.875 64.0625 45.0938 64.9844
Q41.3125 65.9219 37.5938 65.9219
Q27.8281 65.9219 22.6719 59.3281
Q17.5312 52.7344 16.7969 39.4062
Q19.6719 43.6562 24.0156 45.9219
Q28.375 48.1875 33.5938 48.1875
Q44.5781 48.1875 50.9531 41.5156
Q57.3281 34.8594 57.3281 23.3906
Q57.3281 12.1562 50.6875 5.35938
Q44.0469 -1.42188 33.0156 -1.42188
Q20.3594 -1.42188 13.6719 8.26562
Q6.98438 17.9688 6.98438 36.375
Q6.98438 53.6562 15.1875 63.9375
Q23.3906 74.2188 37.2031 74.2188
Q40.9219 74.2188 44.7031 73.4844
Q48.4844 72.75 52.5938 71.2969" id="BitstreamVeraSans-Roman-36"/>
      </defs>
      <g transform="translate(139.6003125 401.918125)scale(0.12 -0.12)">
       <use xlink:href="#BitstreamVeraSans-Roman-33"/>
       <use x="63.623046875" xlink:href="#BitstreamVeraSans-Roman-36"/>
      </g>
     </g>
    </g>
    <g id="xtick_3">
     <g id="line2d_5">
      <g>
       <use style="stroke:#000000;stroke-width:0.5;" x="220.8" xlink:href="#m93b0483c22" y="388.8"/>
      </g>
     </g>
     <g id="line2d_6">
      <g>
       <use style="stroke:#000000;stroke-width:0.5;" x="220.8" xlink:href="#m741efc42ff" y="43.2"/>
      </g>
     </g>
     <g id="text_3">
      <!-- 37 -->
      <defs>
       <path d="
M8.20312 72.9062
L55.0781 72.9062
L55.0781 68.7031
L28.6094 0
L18.3125 0
L43.2188 64.5938
L8.20312 64.5938
z
" id="BitstreamVeraSans-Roman-37"/>
      </defs>
      <g transform="translate(214.1353125 401.918125)scale(0.12 -0.12)">
       <use xlink:href="#BitstreamVeraSans-Roman-33"/>
       <use x="63.623046875" xlink:href="#BitstreamVeraSans-Roman-37"/>
      </g>
     </g>
    </g>
    <g id="xtick_4">
     <g id="line2d_7">
      <g>
       <use style="stroke:#000000;stroke-width:0.5;" x="295.2" xlink:href="#m93b0483c22" y="388.8"/>
      </g>
     </g>
     <g id="line2d_8">
      <g>
       <use style="stroke:#000000;stroke-width:0.5;" x="295.2" xlink:href="#m741efc42ff" y="43.2"/>
      </g>
     </g>
     <g id="text_4">
      <!-- 38 -->
      <defs>
       <path d="
M31.7812 34.625
Q24.75 34.625 20.7188 30.8594
Q16.7031 27.0938 16.7031 20.5156
Q16.7031 13.9219 20.7188 10.1562
Q24.75 6.39062 31.7812 6.39062
Q38.8125 6.39062 42.8594 10.1719
Q46.9219 13.9688 46.9219 20.5156
Q46.9219 27.0938 42.8906 30.8594
Q38.875 34.625 31.7812 34.625
M21.9219 38.8125
Q15.5781 40.375 12.0312 44.7188
Q8.5 49.0781 8.5 55.3281
Q8.5 64.0625 14.7188 69.1406
Q20.9531 74.2188 31.7812 74.2188
Q42.6719 74.2188 48.875 69.1406
Q55.0781 64.0625 55.0781 55.3281
Q55.0781 49.0781 51.5312 44.7188
Q48 40.375 41.7031 38.8125
Q48.8281 37.1562 52.7969 32.3125
Q56.7812 27.4844 56.7812 20.5156
Q56.7812 9.90625 50.3125 4.23438
Q43.8438 -1.42188 31.7812 -1.42188
Q19.7344 -1.42188 13.25 4.23438
Q6.78125 9.90625 6.78125 20.5156
Q6.78125 27.4844 10.7812 32.3125
Q14.7969 37.1562 21.9219 38.8125
M18.3125 54.3906
Q18.3125 48.7344 21.8438 45.5625
Q25.3906 42.3906 31.7812 42.3906
Q38.1406 42.3906 41.7188 45.5625
Q45.3125 48.7344 45.3125 54.3906
Q45.3125 60.0625 41.7188 63.2344
Q38.1406 66.4062 31.7812 66.4062
Q25.3906 66.4062 21.8438 63.2344
Q18.3125 60.0625 18.3125 54.3906" id="BitstreamVeraSans-Roman-38"/>
      </defs>
      <g transform="translate(288.433125 401.918125)scale(0.12 -0.12)">
       <use xlink:href="#BitstreamVeraSans-Roman-33"/>
       <use x="63.623046875" xlink:href="#BitstreamVeraSans-Roman-38"/>
      </g>
     </g>
    </g>
    <g id="xtick_5">
     <g id="line2d_9">
      <g>
       <use style="stroke:#000000;stroke-width:0.5;" x="369.6" xlink:href="#m93b0483c22" y="388.8"/>
      </g>
     </g>
     <g id="line2d_10">
      <g>
       <use style="stroke:#000000;stroke-width:0.5;" x="369.6" xlink:href="#m741efc42ff" y="43.2"/>
      </g>
     </g>
     <g id="text_5">
      <!-- 39 -->
      <defs>
       <path d="
M10.9844 1.51562
L10.9844 10.5
Q14.7031 8.73438 18.5 7.8125
Q22.3125 6.89062 25.9844 6.89062
Q35.75 6.89062 40.8906 13.4531
Q46.0469 20.0156 46.7812 33.4062
Q43.9531 29.2031 39.5938 26.9531
Q35.25 24.7031 29.9844 24.7031
Q19.0469 24.7031 12.6719 31.3125
Q6.29688 37.9375 6.29688 49.4219
Q6.29688 60.6406 12.9375 67.4219
Q19.5781 74.2188 30.6094 74.2188
Q43.2656 74.2188 49.9219 64.5156
Q56.5938 54.8281 56.5938 36.375
Q56.5938 19.1406 48.4062 8.85938
Q40.2344 -1.42188 26.4219 -1.42188
Q22.7031 -1.42188 18.8906 -0.6875
Q15.0938 0.046875 10.9844 1.51562
M30.6094 32.4219
Q37.25 32.4219 41.125 36.9531
Q45.0156 41.5 45.0156 49.4219
Q45.0156 57.2812 41.125 61.8438
Q37.25 66.4062 30.6094 66.4062
Q23.9688 66.4062 20.0938 61.8438
Q16.2188 57.2812 16.2188 49.4219
Q16.2188 41.5 20.0938 36.9531
Q23.9688 32.4219 30.6094 32.4219" id="BitstreamVeraSans-Roman-39"/>
      </defs>
      <g transform="translate(362.844375 401.918125)scale(0.12 -0.12)">
       <use xlink:href="#BitstreamVeraSans-Roman-33"/>
       <use x="63.623046875" xlink:href="#BitstreamVeraSans-Roman-39"/>
      </g>
     </g>
    </g>
    <g id="xtick_6">
     <g id="line2d_11">
      <g>
       <use style="stroke:#000000;stroke-width:0.5;" x="444.0" xlink:href="#m93b0483c22" y="388.8"/>
      </g>
     </g>
     <g id="line2d_12">
      <g>
       <use style="stroke:#000000;stroke-width:0.5;" x="444.0" xlink:href="#m741efc42ff" y="43.2"/>
      </g>
     </g>
     <g id="text_6">
      <!-- 40 -->
      <defs>
       <path d="
M31.7812 66.4062
Q24.1719 66.4062 20.3281 58.9062
Q16.5 51.4219 16.5 36.375
Q16.5 21.3906 20.3281 13.8906
Q24.1719 6.39062 31.7812 6.39062
Q39.4531 6.39062 43.2812 13.8906
Q47.125 21.3906 47.125 36.375
Q47.125 51.4219 43.2812 58.9062
Q39.4531 66.4062 31.7812 66.4062
M31.7812 74.2188
Q44.0469 74.2188 50.5156 64.5156
Q56.9844 54.8281 56.9844 36.375
Q56.9844 17.9688 50.5156 8.26562
Q44.0469 -1.42188 31.7812 -1.42188
Q19.5312 -1.42188 13.0625 8.26562
Q6.59375 17.9688 6.59375 36.375
Q6.59375 54.8281 13.0625 64.5156
Q19.5312 74.2188 31.7812 74.2188" id="BitstreamVeraSans-Roman-30"/>
       <path d="
M37.7969 64.3125
L12.8906 25.3906
L37.7969 25.3906
z

M35.2031 72.9062
L47.6094 72.9062
L47.6094 25.3906
L58.0156 25.3906
L58.0156 17.1875
L47.6094 17.1875
L47.6094 0
L37.7969 0
L37.7969 17.1875
L4.89062 17.1875
L4.89062 26.7031
z
" id="BitstreamVeraSans-Roman-34"/>
      </defs>
      <g transform="translate(437.056875 401.918125)scale(0.12 -0.12)">
       <use xlink:href="#BitstreamVeraSans-Roman-34"/>
       <use x="63.623046875" xlink:href="#BitstreamVeraSans-Roman-30"/>
      </g>
     </g>
    </g>
    <g id="xtick_7">
     <g id="line2d_13">
      <g>
       <use style="stroke:#000000;stroke-width:0.5;" x="518.4" xlink:href="#m93b0483c22" y="388.8"/>
      </g>
     </g>
     <g id="line2d_14">
      <g>
       <use style="stroke:#000000;stroke-width:0.5;" x="518.4" xlink:href="#m741efc42ff" y="43.2"/>
      </g>
     </g>
     <g id="text_7">
      <!-- 41 -->
      <defs>
       <path d="
M12.4062 8.29688
L28.5156 8.29688
L28.5156 63.9219
L10.9844 60.4062
L10.9844 69.3906
L28.4219 72.9062
L38.2812 72.9062
L38.2812 8.29688
L54.3906 8.29688
L54.3906 0
L12.4062 0
z
" id="BitstreamVeraSans-Roman-31"/>
      </defs>
      <g transform="translate(511.6125 401.918125)scale(0.12 -0.12)">
       <use xlink:href="#BitstreamVeraSans-Roman-34"/>
       <use x="63.623046875" xlink:href="#BitstreamVeraSans-Roman-31"/>
      </g>
     </g>
    </g>
   </g>
   <g id="matplotlib.axis_2">
    <g id="ytick_1">
     <g id="line2d_15">
      <defs>
       <path d="
M0 0
L4 0" id="m728421d6d4" style="stroke:#000000;stroke-width:0.5;"/>
      </defs>
      <g>
       <use style="stroke:#000000;stroke-width:0.5;" x="72.0" xlink:href="#m728421d6d4" y="388.8"/>
      </g>
     </g>
     <g id="line2d_16">
      <defs>
       <path d="
M0 0
L-4 0" id="mcb0005524f" style="stroke:#000000;stroke-width:0.5;"/>
      </defs>
      <g>
       <use style="stroke:#000000;stroke-width:0.5;" x="518.4" xlink:href="#mcb0005524f" y="388.8"/>
      </g>
     </g>
     <g id="text_8">
      <!-- 0.0 -->
      <defs>
       <path d="
M10.6875 12.4062
L21 12.4062
L21 0
L10.6875 0
z
" id="BitstreamVeraSans-Roman-2e"/>
      </defs>
      <g transform="translate(50.504375 392.11125)scale(0.12 -0.12)">
       <use xlink:href="#BitstreamVeraSans-Roman-30"/>
       <use x="63.623046875" xlink:href="#BitstreamVeraSans-Roman-2e"/>
       <use x="95.41015625" xlink:href="#BitstreamVeraSans-Roman-30"/>
      </g>
     </g>
    </g>
    <g id="ytick_2">
     <g id="line2d_17">
      <g>
       <use style="stroke:#000000;stroke-width:0.5;" x="72.0" xlink:href="#m728421d6d4" y="319.68"/>
      </g>
     </g>
     <g id="line2d_18">
      <g>
       <use style="stroke:#000000;stroke-width:0.5;" x="518.4" xlink:href="#mcb0005524f" y="319.68"/>
      </g>
     </g>
     <g id="text_9">
      <!-- 0.5 -->
      <g transform="translate(50.755625 322.99125)scale(0.12 -0.12)">
       <use xlink:href="#BitstreamVeraSans-Roman-30"/>
       <use x="63.623046875" xlink:href="#BitstreamVeraSans-Roman-2e"/>
       <use x="95.41015625" xlink:href="#BitstreamVeraSans-Roman-35"/>
      </g>
     </g>
    </g>
    <g id="ytick_3">
     <g id="line2d_19">
      <g>
       <use style="stroke:#000000;stroke-width:0.5;" x="72.0" xlink:href="#m728421d6d4" y="250.56"/>
      </g>
     </g>
     <g id="line2d_20">
      <g>
       <use style="stroke:#000000;stroke-width:0.5;" x="518.4" xlink:href="#mcb0005524f" y="250.56"/>
      </g>
     </g>
     <g id="text_10">
      <!-- 1.0 -->
      <g transform="translate(51.03125 253.87125)scale(0.12 -0.12)">
       <use xlink:href="#BitstreamVeraSans-Roman-31"/>
       <use x="63.623046875" xlink:href="#BitstreamVeraSans-Roman-2e"/>
       <use x="95.41015625" xlink:href="#BitstreamVeraSans-Roman-30"/>
      </g>
     </g>
    </g>
    <g id="ytick_4">
     <g id="line2d_21">
      <g>
       <use style="stroke:#000000;stroke-width:0.5;" x="72.0" xlink:href="#m728421d6d4" y="181.44"/>
      </g>
     </g>
     <g id="line2d_22">
      <g>
       <use style="stroke:#000000;stroke-width:0.5;" x="518.4" xlink:href="#mcb0005524f" y="181.44"/>
      </g>
     </g>
     <g id="text_11">
      <!-- 1.5 -->
      <g transform="translate(51.2825 184.75125)scale(0.12 -0.12)">
       <use xlink:href="#BitstreamVeraSans-Roman-31"/>
       <use x="63.623046875" xlink:href="#BitstreamVeraSans-Roman-2e"/>
       <use x="95.41015625" xlink:href="#BitstreamVeraSans-Roman-35"/>
      </g>
     </g>
    </g>
    <g id="ytick_5">
     <g id="line2d_23">
      <g>
       <use style="stroke:#000000;stroke-width:0.5;" x="72.0" xlink:href="#m728421d6d4" y="112.32"/>
      </g>
     </g>
     <g id="line2d_24">
      <g>
       <use style="stroke:#000000;stroke-width:0.5;" x="518.4" xlink:href="#mcb0005524f" y="112.32"/>
      </g>
     </g>
     <g id="text_12">
      <!-- 2.0 -->
      <defs>
       <path d="
M19.1875 8.29688
L53.6094 8.29688
L53.6094 0
L7.32812 0
L7.32812 8.29688
Q12.9375 14.1094 22.625 23.8906
Q32.3281 33.6875 34.8125 36.5312
Q39.5469 41.8438 41.4219 45.5312
Q43.3125 49.2188 43.3125 52.7812
Q43.3125 58.5938 39.2344 62.25
Q35.1562 65.9219 28.6094 65.9219
Q23.9688 65.9219 18.8125 64.3125
Q13.6719 62.7031 7.8125 59.4219
L7.8125 69.3906
Q13.7656 71.7812 18.9375 73
Q24.125 74.2188 28.4219 74.2188
Q39.75 74.2188 46.4844 68.5469
Q53.2188 62.8906 53.2188 53.4219
Q53.2188 48.9219 51.5312 44.8906
Q49.8594 40.875 45.4062 35.4062
Q44.1875 33.9844 37.6406 27.2188
Q31.1094 20.4531 19.1875 8.29688" id="BitstreamVeraSans-Roman-32"/>
      </defs>
      <g transform="translate(50.5925 115.63125)scale(0.12 -0.12)">
       <use xlink:href="#BitstreamVeraSans-Roman-32"/>
       <use x="63.623046875" xlink:href="#BitstreamVeraSans-Roman-2e"/>
       <use x="95.41015625" xlink:href="#BitstreamVeraSans-Roman-30"/>
      </g>
     </g>
    </g>
    <g id="ytick_6">
     <g id="line2d_25">
      <g>
       <use style="stroke:#000000;stroke-width:0.5;" x="72.0" xlink:href="#m728421d6d4" y="43.2"/>
      </g>
     </g>
     <g id="line2d_26">
      <g>
       <use style="stroke:#000000;stroke-width:0.5;" x="518.4" xlink:href="#mcb0005524f" y="43.2"/>
      </g>
     </g>
     <g id="text_13">
      <!-- 2.5 -->
      <g transform="translate(50.84375 46.51125)scale(0.12 -0.12)">
       <use xlink:href="#BitstreamVeraSans-Roman-32"/>
       <use x="63.623046875" xlink:href="#BitstreamVeraSans-Roman-2e"/>
       <use x="95.41015625" xlink:href="#BitstreamVeraSans-Roman-35"/>
      </g>
     </g>
    </g>
   </g>
   <g id="patch_103">
    <path d="
M72 43.2
L518.4 43.2" style="fill:none;stroke:#000000;"/>
   </g>
   <g id="patch_104">
    <path d="
M518.4 388.8
L518.4 43.2" style="fill:none;stroke:#000000;"/>
   </g>
   <g id="patch_105">
    <path d="
M72 388.8
L518.4 388.8" style="fill:none;stroke:#000000;"/>
   </g>
   <g id="patch_106">
    <path d="
M72 388.8
L72 43.2" style="fill:none;stroke:#000000;"/>
   </g>
  </g>
 </g>
 <defs>
  <clipPath id="p7ff5b81e1d">
   <rect height="345.6" width="446.4" x="72.0" y="43.2"/>
  </clipPath>
 </defs>
</svg>
