<?xml version="1.0" encoding="utf-8" standalone="no"?>
<!DOCTYPE svg PUBLIC "-//W3C//DTD SVG 1.1//EN"
  "http://www.w3.org/Graphics/SVG/1.1/DTD/svg11.dtd">
<!-- Created with matplotlib (http://matplotlib.org/) -->
<svg height="432pt" version="1.1" viewBox="0 0 576 432" width="576pt" xmlns="http://www.w3.org/2000/svg" xmlns:xlink="http://www.w3.org/1999/xlink">
 <defs>
  <style type="text/css">
*{stroke-linecap:butt;stroke-linejoin:round;}
  </style>
 </defs>
 <g id="figure_1">
  <g id="patch_1">
   <path d="
M0 432
L576 432
L576 0
L0 0
z
" style="fill:#ffffff;"/>
  </g>
  <g id="axes_1">
   <g id="patch_2">
    <path d="
M72 388.8
L518.4 388.8
L518.4 43.2
L72 43.2
z
" style="fill:#ffffff;"/>
   </g>
   <g id="patch_3">
    <path clip-path="url(#p7ff5b81e1d)" d="
M72 388.8
L76.0781 388.8
L76.0781 144.039
L72 144.039
z
" style="fill:#0000ff;stroke:#000000;"/>
   </g>
   <g id="patch_4">
    <path clip-path="url(#p7ff5b81e1d)" d="
M76.0781 388.8
L80.1562 388.8
L80.1562 388.8
L76.0781 388.8
z
" style="fill:#0000ff;stroke:#000000;"/>
   </g>
   <g id="patch_5">
    <path clip-path="url(#p7ff5b81e1d)" d="
M80.1562 388.8
L84.2343 388.8
L84.2343 379.01
L80.1562 379.01
z
" style="fill:#0000ff;stroke:#000000;"/>
   </g>
   <g id="patch_6">
    <path clip-path="url(#p7ff5b81e1d)" d="
M84.2343 388.8
L88.3124 388.8
L88.3124 356.165
L84.2343 356.165
z
" style="fill:#0000ff;stroke:#000000;"/>
   </g>
   <g id="patch_7">
    <path clip-path="url(#p7ff5b81e1d)" d="
M88.3124 388.8
L92.3906 388.8
L92.3906 388.8
L88.3124 388.8
z
" style="fill:#0000ff;stroke:#000000;"/>
   </g>
   <g id="patch_8">
    <path clip-path="url(#p7ff5b81e1d)" d="
M92.3906 388.8
L96.4687 388.8
L96.4687 78.7698
L92.3906 78.7698
z
" style="fill:#0000ff;stroke:#000000;"/>
   </g>
   <g id="patch_9">
    <path clip-path="url(#p7ff5b81e1d)" d="
M96.4687 388.8
L100.547 388.8
L100.547 388.8
L96.4687 388.8
z
" style="fill:#0000ff;stroke:#000000;"/>
   </g>
   <g id="patch_10">
    <path clip-path="url(#p7ff5b81e1d)" d="
M100.547 388.8
L104.625 388.8
L104.625 75.5063
L100.547 75.5063
z
" style="fill:#0000ff;stroke:#000000;"/>
   </g>
   <g id="patch_11">
    <path clip-path="url(#p7ff5b81e1d)" d="
M104.625 388.8
L108.703 388.8
L108.703 382.273
L104.625 382.273
z
" style="fill:#0000ff;stroke:#000000;"/>
   </g>
   <g id="patch_12">
    <path clip-path="url(#p7ff5b81e1d)" d="
M108.703 388.8
L112.781 388.8
L112.781 388.8
L108.703 388.8
z
" style="fill:#0000ff;stroke:#000000;"/>
   </g>
   <g id="patch_13">
    <path clip-path="url(#p7ff5b81e1d)" d="
M112.781 388.8
L116.859 388.8
L116.859 303.95
L112.781 303.95
z
" style="fill:#0000ff;stroke:#000000;"/>
   </g>
   <g id="patch_14">
    <path clip-path="url(#p7ff5b81e1d)" d="
M116.859 388.8
L120.937 388.8
L120.937 388.8
L116.859 388.8
z
" style="fill:#0000ff;stroke:#000000;"/>
   </g>
   <g id="patch_15">
    <path clip-path="url(#p7ff5b81e1d)" d="
M120.937 388.8
L125.015 388.8
L125.015 356.165
L120.937 356.165
z
" style="fill:#0000ff;stroke:#000000;"/>
   </g>
   <g id="patch_16">
    <path clip-path="url(#p7ff5b81e1d)" d="
M125.015 388.8
L129.094 388.8
L129.094 375.746
L125.015 375.746
z
" style="fill:#0000ff;stroke:#000000;"/>
   </g>
   <g id="patch_17">
    <path clip-path="url(#p7ff5b81e1d)" d="
M129.094 388.8
L133.172 388.8
L133.172 365.956
L129.094 365.956
z
" style="fill:#0000ff;stroke:#000000;"/>
   </g>
   <g id="patch_18">
    <path clip-path="url(#p7ff5b81e1d)" d="
M133.172 388.8
L137.25 388.8
L137.25 385.537
L133.172 385.537
z
" style="fill:#0000ff;stroke:#000000;"/>
   </g>
   <g id="patch_19">
    <path clip-path="url(#p7ff5b81e1d)" d="
M137.25 388.8
L141.328 388.8
L141.328 388.8
L137.25 388.8
z
" style="fill:#0000ff;stroke:#000000;"/>
   </g>
   <g id="patch_20">
    <path clip-path="url(#p7ff5b81e1d)" d="
M141.328 388.8
L145.406 388.8
L145.406 339.848
L141.328 339.848
z
" style="fill:#0000ff;stroke:#000000;"/>
   </g>
   <g id="patch_21">
    <path clip-path="url(#p7ff5b81e1d)" d="
M145.406 388.8
L149.484 388.8
L149.484 385.537
L145.406 385.537
z
" style="fill:#0000ff;stroke:#000000;"/>
   </g>
   <g id="patch_22">
    <path clip-path="url(#p7ff5b81e1d)" d="
M149.484 388.8
L153.562 388.8
L153.562 388.8
L149.484 388.8
z
" style="fill:#0000ff;stroke:#000000;"/>
   </g>
   <g id="patch_23">
    <path clip-path="url(#p7ff5b81e1d)" d="
M153.562 388.8
L157.64 388.8
L157.64 375.746
L153.562 375.746
z
" style="fill:#0000ff;stroke:#000000;"/>
   </g>
   <g id="patch_24">
    <path clip-path="url(#p7ff5b81e1d)" d="
M157.64 388.8
L161.718 388.8
L161.718 385.537
L157.64 385.537
z
" style="fill:#0000ff;stroke:#000000;"/>
   </g>
   <g id="patch_25">
    <path clip-path="url(#p7ff5b81e1d)" d="
M161.718 388.8
L165.797 388.8
L165.797 382.273
L161.718 382.273
z
" style="fill:#0000ff;stroke:#000000;"/>
   </g>
   <g id="patch_26">
    <path clip-path="url(#p7ff5b81e1d)" d="
M165.797 388.8
L169.875 388.8
L169.875 388.8
L165.797 388.8
z
" style="fill:#0000ff;stroke:#000000;"/>
   </g>
   <g id="patch_27">
    <path clip-path="url(#p7ff5b81e1d)" d="
M169.875 388.8
L173.953 388.8
L173.953 388.8
L169.875 388.8
z
" style="fill:#0000ff;stroke:#000000;"/>
   </g>
   <g id="patch_28">
    <path clip-path="url(#p7ff5b81e1d)" d="
M173.953 388.8
L178.031 388.8
L178.031 388.8
L173.953 388.8
z
" style="fill:#0000ff;stroke:#000000;"/>
   </g>
   <g id="patch_29">
    <path clip-path="url(#p7ff5b81e1d)" d="
M178.031 388.8
L182.109 388.8
L182.109 388.8
L178.031 388.8
z
" style="fill:#0000ff;stroke:#000000;"/>
   </g>
   <g id="patch_30">
    <path clip-path="url(#p7ff5b81e1d)" d="
M182.109 388.8
L186.187 388.8
L186.187 375.746
L182.109 375.746
z
" style="fill:#0000ff;stroke:#000000;"/>
   </g>
   <g id="patch_31">
    <path clip-path="url(#p7ff5b81e1d)" d="
M186.187 388.8
L190.265 388.8
L190.265 388.8
L186.187 388.8
z
" style="fill:#0000ff;stroke:#000000;"/>
   </g>
   <g id="patch_32">
    <path clip-path="url(#p7ff5b81e1d)" d="
M190.265 388.8
L194.343 388.8
L194.343 385.537
L190.265 385.537
z
" style="fill:#0000ff;stroke:#000000;"/>
   </g>
   <g id="patch_33">
    <path clip-path="url(#p7ff5b81e1d)" d="
M194.343 388.8
L198.421 388.8
L198.421 388.8
L194.343 388.8
z
" style="fill:#0000ff;stroke:#000000;"/>
   </g>
   <g id="patch_34">
    <path clip-path="url(#p7ff5b81e1d)" d="
M198.421 388.8
L202.5 388.8
L202.5 388.8
L198.421 388.8
z
" style="fill:#0000ff;stroke:#000000;"/>
   </g>
   <g id="patch_35">
    <path clip-path="url(#p7ff5b81e1d)" d="
M202.5 388.8
L206.578 388.8
L206.578 388.8
L202.5 388.8
z
" style="fill:#0000ff;stroke:#000000;"/>
   </g>
   <g id="patch_36">
    <path clip-path="url(#p7ff5b81e1d)" d="
M206.578 388.8
L210.656 388.8
L210.656 388.8
L206.578 388.8
z
" style="fill:#0000ff;stroke:#000000;"/>
   </g>
   <g id="patch_37">
    <path clip-path="url(#p7ff5b81e1d)" d="
M210.656 388.8
L214.734 388.8
L214.734 388.8
L210.656 388.8
z
" style="fill:#0000ff;stroke:#000000;"/>
   </g>
   <g id="patch_38">
    <path clip-path="url(#p7ff5b81e1d)" d="
M214.734 388.8
L218.812 388.8
L218.812 388.8
L214.734 388.8
z
" style="fill:#0000ff;stroke:#000000;"/>
   </g>
   <g id="patch_39">
    <path clip-path="url(#p7ff5b81e1d)" d="
M218.812 388.8
L222.89 388.8
L222.89 388.8
L218.812 388.8
z
" style="fill:#0000ff;stroke:#000000;"/>
   </g>
   <g id="patch_40">
    <path clip-path="url(#p7ff5b81e1d)" d="
M222.89 388.8
L226.968 388.8
L226.968 388.8
L222.89 388.8
z
" style="fill:#0000ff;stroke:#000000;"/>
   </g>
   <g id="patch_41">
    <path clip-path="url(#p7ff5b81e1d)" d="
M226.968 388.8
L231.046 388.8
L231.046 388.8
L226.968 388.8
z
" style="fill:#0000ff;stroke:#000000;"/>
   </g>
   <g id="patch_42">
    <path clip-path="url(#p7ff5b81e1d)" d="
M231.046 388.8
L235.124 388.8
L235.124 388.8
L231.046 388.8
z
" style="fill:#0000ff;stroke:#000000;"/>
   </g>
   <g id="patch_43">
    <path clip-path="url(#p7ff5b81e1d)" d="
M235.124 388.8
L239.203 388.8
L239.203 388.8
L235.124 388.8
z
" style="fill:#0000ff;stroke:#000000;"/>
   </g>
   <g id="patch_44">
    <path clip-path="url(#p7ff5b81e1d)" d="
M239.203 388.8
L243.281 388.8
L243.281 388.8
L239.203 388.8
z
" style="fill:#0000ff;stroke:#000000;"/>
   </g>
   <g id="patch_45">
    <path clip-path="url(#p7ff5b81e1d)" d="
M243.281 388.8
L247.359 388.8
L247.359 388.8
L243.281 388.8
z
" style="fill:#0000ff;stroke:#000000;"/>
   </g>
   <g id="patch_46">
    <path clip-path="url(#p7ff5b81e1d)" d="
M247.359 388.8
L251.437 388.8
L251.437 388.8
L247.359 388.8
z
" style="fill:#0000ff;stroke:#000000;"/>
   </g>
   <g id="patch_47">
    <path clip-path="url(#p7ff5b81e1d)" d="
M251.437 388.8
L255.515 388.8
L255.515 388.8
L251.437 388.8
z
" style="fill:#0000ff;stroke:#000000;"/>
   </g>
   <g id="patch_48">
    <path clip-path="url(#p7ff5b81e1d)" d="
M255.515 388.8
L259.593 388.8
L259.593 388.8
L255.515 388.8
z
" style="fill:#0000ff;stroke:#000000;"/>
   </g>
   <g id="patch_49">
    <path clip-path="url(#p7ff5b81e1d)" d="
M259.593 388.8
L263.671 388.8
L263.671 388.8
L259.593 388.8
z
" style="fill:#0000ff;stroke:#000000;"/>
   </g>
   <g id="patch_50">
    <path clip-path="url(#p7ff5b81e1d)" d="
M263.671 388.8
L267.749 388.8
L267.749 388.8
L263.671 388.8
z
" style="fill:#0000ff;stroke:#000000;"/>
   </g>
   <g id="patch_51">
    <path clip-path="url(#p7ff5b81e1d)" d="
M267.749 388.8
L271.827 388.8
L271.827 388.8
L267.749 388.8
z
" style="fill:#0000ff;stroke:#000000;"/>
   </g>
   <g id="patch_52">
    <path clip-path="url(#p7ff5b81e1d)" d="
M271.827 388.8
L275.906 388.8
L275.906 388.8
L271.827 388.8
z
" style="fill:#0000ff;stroke:#000000;"/>
   </g>
   <g id="patch_53">
    <path clip-path="url(#p7ff5b81e1d)" d="
M275.906 388.8
L279.984 388.8
L279.984 388.8
L275.906 388.8
z
" style="fill:#0000ff;stroke:#000000;"/>
   </g>
   <g id="patch_54">
    <path clip-path="url(#p7ff5b81e1d)" d="
M279.984 388.8
L284.062 388.8
L284.062 385.537
L279.984 385.537
z
" style="fill:#0000ff;stroke:#000000;"/>
   </g>
   <g id="patch_55">
    <path clip-path="url(#p7ff5b81e1d)" d="
M284.062 388.8
L288.14 388.8
L288.14 388.8
L284.062 388.8
z
" style="fill:#0000ff;stroke:#000000;"/>
   </g>
   <g id="patch_56">
    <path clip-path="url(#p7ff5b81e1d)" d="
M288.14 388.8
L292.218 388.8
L292.218 388.8
L288.14 388.8
z
" style="fill:#0000ff;stroke:#000000;"/>
   </g>
   <g id="patch_57">
    <path clip-path="url(#p7ff5b81e1d)" d="
M292.218 388.8
L296.296 388.8
L296.296 388.8
L292.218 388.8
z
" style="fill:#0000ff;stroke:#000000;"/>
   </g>
   <g id="patch_58">
    <path clip-path="url(#p7ff5b81e1d)" d="
M296.296 388.8
L300.374 388.8
L300.374 388.8
L296.296 388.8
z
" style="fill:#0000ff;stroke:#000000;"/>
   </g>
   <g id="patch_59">
    <path clip-path="url(#p7ff5b81e1d)" d="
M300.374 388.8
L304.452 388.8
L304.452 388.8
L300.374 388.8
z
" style="fill:#0000ff;stroke:#000000;"/>
   </g>
   <g id="patch_60">
    <path clip-path="url(#p7ff5b81e1d)" d="
M304.452 388.8
L308.53 388.8
L308.53 388.8
L304.452 388.8
z
" style="fill:#0000ff;stroke:#000000;"/>
   </g>
   <g id="patch_61">
    <path clip-path="url(#p7ff5b81e1d)" d="
M308.53 388.8
L312.609 388.8
L312.609 388.8
L308.53 388.8
z
" style="fill:#0000ff;stroke:#000000;"/>
   </g>
   <g id="patch_62">
    <path clip-path="url(#p7ff5b81e1d)" d="
M312.609 388.8
L316.687 388.8
L316.687 388.8
L312.609 388.8
z
" style="fill:#0000ff;stroke:#000000;"/>
   </g>
   <g id="patch_63">
    <path clip-path="url(#p7ff5b81e1d)" d="
M316.687 388.8
L320.765 388.8
L320.765 388.8
L316.687 388.8
z
" style="fill:#0000ff;stroke:#000000;"/>
   </g>
   <g id="patch_64">
    <path clip-path="url(#p7ff5b81e1d)" d="
M320.765 388.8
L324.843 388.8
L324.843 388.8
L320.765 388.8
z
" style="fill:#0000ff;stroke:#000000;"/>
   </g>
   <g id="patch_65">
    <path clip-path="url(#p7ff5b81e1d)" d="
M324.843 388.8
L328.921 388.8
L328.921 388.8
L324.843 388.8
z
" style="fill:#0000ff;stroke:#000000;"/>
   </g>
   <g id="patch_66">
    <path clip-path="url(#p7ff5b81e1d)" d="
M328.921 388.8
L332.999 388.8
L332.999 388.8
L328.921 388.8
z
" style="fill:#0000ff;stroke:#000000;"/>
   </g>
   <g id="patch_67">
    <path clip-path="url(#p7ff5b81e1d)" d="
M332.999 388.8
L337.077 388.8
L337.077 388.8
L332.999 388.8
z
" style="fill:#0000ff;stroke:#000000;"/>
   </g>
   <g id="patch_68">
    <path clip-path="url(#p7ff5b81e1d)" d="
M337.077 388.8
L341.155 388.8
L341.155 388.8
L337.077 388.8
z
" style="fill:#0000ff;stroke:#000000;"/>
   </g>
   <g id="patch_69">
    <path clip-path="url(#p7ff5b81e1d)" d="
M341.155 388.8
L345.234 388.8
L345.234 388.8
L341.155 388.8
z
" style="fill:#0000ff;stroke:#000000;"/>
   </g>
   <g id="patch_70">
    <path clip-path="url(#p7ff5b81e1d)" d="
M345.234 388.8
L349.312 388.8
L349.312 388.8
L345.234 388.8
z
" style="fill:#0000ff;stroke:#000000;"/>
   </g>
   <g id="patch_71">
    <path clip-path="url(#p7ff5b81e1d)" d="
M349.312 388.8
L353.39 388.8
L353.39 388.8
L349.312 388.8
z
" style="fill:#0000ff;stroke:#000000;"/>
   </g>
   <g id="patch_72">
    <path clip-path="url(#p7ff5b81e1d)" d="
M353.39 388.8
L357.468 388.8
L357.468 388.8
L353.39 388.8
z
" style="fill:#0000ff;stroke:#000000;"/>
   </g>
   <g id="patch_73">
    <path clip-path="url(#p7ff5b81e1d)" d="
M357.468 388.8
L361.546 388.8
L361.546 388.8
L357.468 388.8
z
" style="fill:#0000ff;stroke:#000000;"/>
   </g>
   <g id="patch_74">
    <path clip-path="url(#p7ff5b81e1d)" d="
M361.546 388.8
L365.624 388.8
L365.624 388.8
L361.546 388.8
z
" style="fill:#0000ff;stroke:#000000;"/>
   </g>
   <g id="patch_75">
    <path clip-path="url(#p7ff5b81e1d)" d="
M365.624 388.8
L369.702 388.8
L369.702 388.8
L365.624 388.8
z
" style="fill:#0000ff;stroke:#000000;"/>
   </g>
   <g id="patch_76">
    <path clip-path="url(#p7ff5b81e1d)" d="
M369.702 388.8
L373.78 388.8
L373.78 388.8
L369.702 388.8
z
" style="fill:#0000ff;stroke:#000000;"/>
   </g>
   <g id="patch_77">
    <path clip-path="url(#p7ff5b81e1d)" d="
M373.78 388.8
L377.858 388.8
L377.858 388.8
L373.78 388.8
z
" style="fill:#0000ff;stroke:#000000;"/>
   </g>
   <g id="patch_78">
    <path clip-path="url(#p7ff5b81e1d)" d="
M377.858 388.8
L381.937 388.8
L381.937 359.429
L377.858 359.429
z
" style="fill:#0000ff;stroke:#000000;"/>
   </g>
   <g id="patch_79">
    <path clip-path="url(#p7ff5b81e1d)" d="
M381.937 388.8
L386.015 388.8
L386.015 388.8
L381.937 388.8
z
" style="fill:#0000ff;stroke:#000000;"/>
   </g>
   <g id="patch_80">
    <path clip-path="url(#p7ff5b81e1d)" d="
M386.015 388.8
L390.093 388.8
L390.093 388.8
L386.015 388.8
z
" style="fill:#0000ff;stroke:#000000;"/>
   </g>
   <g id="patch_81">
    <path clip-path="url(#p7ff5b81e1d)" d="
M390.093 388.8
L394.171 388.8
L394.171 388.8
L390.093 388.8
z
" style="fill:#0000ff;stroke:#000000;"/>
   </g>
   <g id="patch_82">
    <path clip-path="url(#p7ff5b81e1d)" d="
M394.171 388.8
L398.249 388.8
L398.249 388.8
L394.171 388.8
z
" style="fill:#0000ff;stroke:#000000;"/>
   </g>
   <g id="patch_83">
    <path clip-path="url(#p7ff5b81e1d)" d="
M398.249 388.8
L402.327 388.8
L402.327 388.8
L398.249 388.8
z
" style="fill:#0000ff;stroke:#000000;"/>
   </g>
   <g id="patch_84">
    <path clip-path="url(#p7ff5b81e1d)" d="
M402.327 388.8
L406.405 388.8
L406.405 388.8
L402.327 388.8
z
" style="fill:#0000ff;stroke:#000000;"/>
   </g>
   <g id="patch_85">
    <path clip-path="url(#p7ff5b81e1d)" d="
M406.405 388.8
L410.483 388.8
L410.483 388.8
L406.405 388.8
z
" style="fill:#0000ff;stroke:#000000;"/>
   </g>
   <g id="patch_86">
    <path clip-path="url(#p7ff5b81e1d)" d="
M410.483 388.8
L414.561 388.8
L414.561 388.8
L410.483 388.8
z
" style="fill:#0000ff;stroke:#000000;"/>
   </g>
   <g id="patch_87">
    <path clip-path="url(#p7ff5b81e1d)" d="
M414.561 388.8
L418.64 388.8
L418.64 388.8
L414.561 388.8
z
" style="fill:#0000ff;stroke:#000000;"/>
   </g>
   <g id="patch_88">
    <path clip-path="url(#p7ff5b81e1d)" d="
M418.64 388.8
L422.718 388.8
L422.718 388.8
L418.64 388.8
z
" style="fill:#0000ff;stroke:#000000;"/>
   </g>
   <g id="patch_89">
    <path clip-path="url(#p7ff5b81e1d)" d="
M422.718 388.8
L426.796 388.8
L426.796 388.8
L422.718 388.8
z
" style="fill:#0000ff;stroke:#000000;"/>
   </g>
   <g id="patch_90">
    <path clip-path="url(#p7ff5b81e1d)" d="
M426.796 388.8
L430.874 388.8
L430.874 388.8
L426.796 388.8
z
" style="fill:#0000ff;stroke:#000000;"/>
   </g>
   <g id="patch_91">
    <path clip-path="url(#p7ff5b81e1d)" d="
M430.874 388.8
L434.952 388.8
L434.952 388.8
L430.874 388.8
z
" style="fill:#0000ff;stroke:#000000;"/>
   </g>
   <g id="patch_92">
    <path clip-path="url(#p7ff5b81e1d)" d="
M434.952 388.8
L439.03 388.8
L439.03 388.8
L434.952 388.8
z
" style="fill:#0000ff;stroke:#000000;"/>
   </g>
   <g id="patch_93">
    <path clip-path="url(#p7ff5b81e1d)" d="
M439.03 388.8
L443.108 388.8
L443.108 388.8
L439.03 388.8
z
" style="fill:#0000ff;stroke:#000000;"/>
   </g>
   <g id="patch_94">
    <path clip-path="url(#p7ff5b81e1d)" d="
M443.108 388.8
L447.186 388.8
L447.186 388.8
L443.108 388.8
z
" style="fill:#0000ff;stroke:#000000;"/>
   </g>
   <g id="patch_95">
    <path clip-path="url(#p7ff5b81e1d)" d="
M447.186 388.8
L451.264 388.8
L451.264 388.8
L447.186 388.8
z
" style="fill:#0000ff;stroke:#000000;"/>
   </g>
   <g id="patch_96">
    <path clip-path="url(#p7ff5b81e1d)" d="
M451.264 388.8
L455.343 388.8
L455.343 388.8
L451.264 388.8
z
" style="fill:#0000ff;stroke:#000000;"/>
   </g>
   <g id="patch_97">
    <path clip-path="url(#p7ff5b81e1d)" d="
M455.343 388.8
L459.421 388.8
L459.421 388.8
L455.343 388.8
z
" style="fill:#0000ff;stroke:#000000;"/>
   </g>
   <g id="patch_98">
    <path clip-path="url(#p7ff5b81e1d)" d="
M459.421 388.8
L463.499 388.8
L463.499 388.8
L459.421 388.8
z
" style="fill:#0000ff;stroke:#000000;"/>
   </g>
   <g id="patch_99">
    <path clip-path="url(#p7ff5b81e1d)" d="
M463.499 388.8
L467.577 388.8
L467.577 388.8
L463.499 388.8
z
" style="fill:#0000ff;stroke:#000000;"/>
   </g>
   <g id="patch_100">
    <path clip-path="url(#p7ff5b81e1d)" d="
M467.577 388.8
L471.655 388.8
L471.655 388.8
L467.577 388.8
z
" style="fill:#0000ff;stroke:#000000;"/>
   </g>
   <g id="patch_101">
    <path clip-path="url(#p7ff5b81e1d)" d="
M471.655 388.8
L475.733 388.8
L475.733 388.8
L471.655 388.8
z
" style="fill:#0000ff;stroke:#000000;"/>
   </g>
   <g id="patch_102">
    <path clip-path="url(#p7ff5b81e1d)" d="
M475.733 388.8
L479.811 388.8
L479.811 385.537
L475.733 385.537
z
" style="fill:#0000ff;stroke:#000000;"/>
   </g>
   <g id="matplotlib.axis_1">
    <g id="xtick_1">
     <g id="line2d_1">
      <defs>
       <path d="
M0 0
L0 -4" id="m93b0483c22" style="stroke:#000000;stroke-width:0.5;"/>
      </defs>
      <g>
       <use style="stroke:#000000;stroke-width:0.5;" x="72.0" xlink:href="#m93b0483c22" y="388.8"/>
      </g>
     </g>
     <g id="line2d_2">
      <defs>
       <path d="
M0 0
L0 4" id="m741efc42ff" style="stroke:#000000;stroke-width:0.5;"/>
      </defs>
      <g>
       <use style="stroke:#000000;stroke-width:0.5;" x="72.0" xlink:href="#m741efc42ff" y="43.2"/>
      </g>
     </g>
     <g id="text_1">
      <!-- 0 -->
      <defs>
       <path d="
M31.7812 66.4062
Q24.1719 66.4062 20.3281 58.9062
Q16.5 51.4219 16.5 36.375
Q16.5 21.3906 20.3281 13.8906
Q24.1719 6.39062 31.7812 6.39062
Q39.4531 6.39062 43.2812 13.8906
Q47.125 21.3906 47.125 36.375
Q47.125 51.4219 43.2812 58.9062
Q39.4531 66.4062 31.7812 66.4062
M31.7812 74.2188
Q44.0469 74.2188 50.5156 64.5156
Q56.9844 54.8281 56.9844 36.375
Q56.9844 17.9688 50.5156 8.26562
Q44.0469 -1.42188 31.7812 -1.42188
Q19.5312 -1.42188 13.0625 8.26562
Q6.59375 17.9688 6.59375 36.375
Q6.59375 54.8281 13.0625 64.5156
Q19.5312 74.2188 31.7812 74.2188" id="BitstreamVeraSans-Roman-30"/>
      </defs>
      <g transform="translate(68.9765625 401.918125)scale(0.12 -0.12)">
       <use xlink:href="#BitstreamVeraSans-Roman-30"/>
      </g>
     </g>
    </g>
    <g id="xtick_2">
     <g id="line2d_3">
      <g>
       <use style="stroke:#000000;stroke-width:0.5;" x="121.6" xlink:href="#m93b0483c22" y="388.8"/>
      </g>
     </g>
     <g id="line2d_4">
      <g>
       <use style="stroke:#000000;stroke-width:0.5;" x="121.6" xlink:href="#m741efc42ff" y="43.2"/>
      </g>
     </g>
     <g id="text_2">
      <!-- 5000 -->
      <defs>
       <path d="
M10.7969 72.9062
L49.5156 72.9062
L49.5156 64.5938
L19.8281 64.5938
L19.8281 46.7344
Q21.9688 47.4688 24.1094 47.8281
Q26.2656 48.1875 28.4219 48.1875
Q40.625 48.1875 47.75 41.5
Q54.8906 34.8125 54.8906 23.3906
Q54.8906 11.625 47.5625 5.09375
Q40.2344 -1.42188 26.9062 -1.42188
Q22.3125 -1.42188 17.5469 -0.640625
Q12.7969 0.140625 7.71875 1.70312
L7.71875 11.625
Q12.1094 9.23438 16.7969 8.0625
Q21.4844 6.89062 26.7031 6.89062
Q35.1562 6.89062 40.0781 11.3281
Q45.0156 15.7656 45.0156 23.3906
Q45.0156 31 40.0781 35.4375
Q35.1562 39.8906 26.7031 39.8906
Q22.75 39.8906 18.8125 39.0156
Q14.8906 38.1406 10.7969 36.2812
z
" id="BitstreamVeraSans-Roman-35"/>
      </defs>
      <g transform="translate(107.1915625 401.918125)scale(0.12 -0.12)">
       <use xlink:href="#BitstreamVeraSans-Roman-35"/>
       <use x="63.623046875" xlink:href="#BitstreamVeraSans-Roman-30"/>
       <use x="127.24609375" xlink:href="#BitstreamVeraSans-Roman-30"/>
       <use x="190.869140625" xlink:href="#BitstreamVeraSans-Roman-30"/>
      </g>
     </g>
    </g>
    <g id="xtick_3">
     <g id="line2d_5">
      <g>
       <use style="stroke:#000000;stroke-width:0.5;" x="171.2" xlink:href="#m93b0483c22" y="388.8"/>
      </g>
     </g>
     <g id="line2d_6">
      <g>
       <use style="stroke:#000000;stroke-width:0.5;" x="171.2" xlink:href="#m741efc42ff" y="43.2"/>
      </g>
     </g>
     <g id="text_3">
      <!-- 10000 -->
      <defs>
       <path d="
M12.4062 8.29688
L28.5156 8.29688
L28.5156 63.9219
L10.9844 60.4062
L10.9844 69.3906
L28.4219 72.9062
L38.2812 72.9062
L38.2812 8.29688
L54.3906 8.29688
L54.3906 0
L12.4062 0
z
" id="BitstreamVeraSans-Roman-31"/>
      </defs>
      <g transform="translate(153.17 401.918125)scale(0.12 -0.12)">
       <use xlink:href="#BitstreamVeraSans-Roman-31"/>
       <use x="63.623046875" xlink:href="#BitstreamVeraSans-Roman-30"/>
       <use x="127.24609375" xlink:href="#BitstreamVeraSans-Roman-30"/>
       <use x="190.869140625" xlink:href="#BitstreamVeraSans-Roman-30"/>
       <use x="254.4921875" xlink:href="#BitstreamVeraSans-Roman-30"/>
      </g>
     </g>
    </g>
    <g id="xtick_4">
     <g id="line2d_7">
      <g>
       <use style="stroke:#000000;stroke-width:0.5;" x="220.8" xlink:href="#m93b0483c22" y="388.8"/>
      </g>
     </g>
     <g id="line2d_8">
      <g>
       <use style="stroke:#000000;stroke-width:0.5;" x="220.8" xlink:href="#m741efc42ff" y="43.2"/>
      </g>
     </g>
     <g id="text_4">
      <!-- 15000 -->
      <g transform="translate(202.77 401.918125)scale(0.12 -0.12)">
       <use xlink:href="#BitstreamVeraSans-Roman-31"/>
       <use x="63.623046875" xlink:href="#BitstreamVeraSans-Roman-35"/>
       <use x="127.24609375" xlink:href="#BitstreamVeraSans-Roman-30"/>
       <use x="190.869140625" xlink:href="#BitstreamVeraSans-Roman-30"/>
       <use x="254.4921875" xlink:href="#BitstreamVeraSans-Roman-30"/>
      </g>
     </g>
    </g>
    <g id="xtick_5">
     <g id="line2d_9">
      <g>
       <use style="stroke:#000000;stroke-width:0.5;" x="270.4" xlink:href="#m93b0483c22" y="388.8"/>
      </g>
     </g>
     <g id="line2d_10">
      <g>
       <use style="stroke:#000000;stroke-width:0.5;" x="270.4" xlink:href="#m741efc42ff" y="43.2"/>
      </g>
     </g>
     <g id="text_5">
      <!-- 20000 -->
      <defs>
       <path d="
M19.1875 8.29688
L53.6094 8.29688
L53.6094 0
L7.32812 0
L7.32812 8.29688
Q12.9375 14.1094 22.625 23.8906
Q32.3281 33.6875 34.8125 36.5312
Q39.5469 41.8438 41.4219 45.5312
Q43.3125 49.2188 43.3125 52.7812
Q43.3125 58.5938 39.2344 62.25
Q35.1562 65.9219 28.6094 65.9219
Q23.9688 65.9219 18.8125 64.3125
Q13.6719 62.7031 7.8125 59.4219
L7.8125 69.3906
Q13.7656 71.7812 18.9375 73
Q24.125 74.2188 28.4219 74.2188
Q39.75 74.2188 46.4844 68.5469
Q53.2188 62.8906 53.2188 53.4219
Q53.2188 48.9219 51.5312 44.8906
Q49.8594 40.875 45.4062 35.4062
Q44.1875 33.9844 37.6406 27.2188
Q31.1094 20.4531 19.1875 8.29688" id="BitstreamVeraSans-Roman-32"/>
      </defs>
      <g transform="translate(252.150625 401.918125)scale(0.12 -0.12)">
       <use xlink:href="#BitstreamVeraSans-Roman-32"/>
       <use x="63.623046875" xlink:href="#BitstreamVeraSans-Roman-30"/>
       <use x="127.24609375" xlink:href="#BitstreamVeraSans-Roman-30"/>
       <use x="190.869140625" xlink:href="#BitstreamVeraSans-Roman-30"/>
       <use x="254.4921875" xlink:href="#BitstreamVeraSans-Roman-30"/>
      </g>
     </g>
    </g>
    <g id="xtick_6">
     <g id="line2d_11">
      <g>
       <use style="stroke:#000000;stroke-width:0.5;" x="320.0" xlink:href="#m93b0483c22" y="388.8"/>
      </g>
     </g>
     <g id="line2d_12">
      <g>
       <use style="stroke:#000000;stroke-width:0.5;" x="320.0" xlink:href="#m741efc42ff" y="43.2"/>
      </g>
     </g>
     <g id="text_6">
      <!-- 25000 -->
      <g transform="translate(301.750625 401.918125)scale(0.12 -0.12)">
       <use xlink:href="#BitstreamVeraSans-Roman-32"/>
       <use x="63.623046875" xlink:href="#BitstreamVeraSans-Roman-35"/>
       <use x="127.24609375" xlink:href="#BitstreamVeraSans-Roman-30"/>
       <use x="190.869140625" xlink:href="#BitstreamVeraSans-Roman-30"/>
       <use x="254.4921875" xlink:href="#BitstreamVeraSans-Roman-30"/>
      </g>
     </g>
    </g>
    <g id="xtick_7">
     <g id="line2d_13">
      <g>
       <use style="stroke:#000000;stroke-width:0.5;" x="369.6" xlink:href="#m93b0483c22" y="388.8"/>
      </g>
     </g>
     <g id="line2d_14">
      <g>
       <use style="stroke:#000000;stroke-width:0.5;" x="369.6" xlink:href="#m741efc42ff" y="43.2"/>
      </g>
     </g>
     <g id="text_7">
      <!-- 30000 -->
      <defs>
       <path d="
M40.5781 39.3125
Q47.6562 37.7969 51.625 33
Q55.6094 28.2188 55.6094 21.1875
Q55.6094 10.4062 48.1875 4.48438
Q40.7656 -1.42188 27.0938 -1.42188
Q22.5156 -1.42188 17.6562 -0.515625
Q12.7969 0.390625 7.625 2.20312
L7.625 11.7188
Q11.7188 9.32812 16.5938 8.10938
Q21.4844 6.89062 26.8125 6.89062
Q36.0781 6.89062 40.9375 10.5469
Q45.7969 14.2031 45.7969 21.1875
Q45.7969 27.6406 41.2812 31.2656
Q36.7656 34.9062 28.7188 34.9062
L20.2188 34.9062
L20.2188 43.0156
L29.1094 43.0156
Q36.375 43.0156 40.2344 45.9219
Q44.0938 48.8281 44.0938 54.2969
Q44.0938 59.9062 40.1094 62.9062
Q36.1406 65.9219 28.7188 65.9219
Q24.6562 65.9219 20.0156 65.0312
Q15.375 64.1562 9.8125 62.3125
L9.8125 71.0938
Q15.4375 72.6562 20.3438 73.4375
Q25.25 74.2188 29.5938 74.2188
Q40.8281 74.2188 47.3594 69.1094
Q53.9062 64.0156 53.9062 55.3281
Q53.9062 49.2656 50.4375 45.0938
Q46.9688 40.9219 40.5781 39.3125" id="BitstreamVeraSans-Roman-33"/>
      </defs>
      <g transform="translate(351.3684375 401.918125)scale(0.12 -0.12)">
       <use xlink:href="#BitstreamVeraSans-Roman-33"/>
       <use x="63.623046875" xlink:href="#BitstreamVeraSans-Roman-30"/>
       <use x="127.24609375" xlink:href="#BitstreamVeraSans-Roman-30"/>
       <use x="190.869140625" xlink:href="#BitstreamVeraSans-Roman-30"/>
       <use x="254.4921875" xlink:href="#BitstreamVeraSans-Roman-30"/>
      </g>
     </g>
    </g>
    <g id="xtick_8">
     <g id="line2d_15">
      <g>
       <use style="stroke:#000000;stroke-width:0.5;" x="419.2" xlink:href="#m93b0483c22" y="388.8"/>
      </g>
     </g>
     <g id="line2d_16">
      <g>
       <use style="stroke:#000000;stroke-width:0.5;" x="419.2" xlink:href="#m741efc42ff" y="43.2"/>
      </g>
     </g>
     <g id="text_8">
      <!-- 35000 -->
      <g transform="translate(400.9684375 401.918125)scale(0.12 -0.12)">
       <use xlink:href="#BitstreamVeraSans-Roman-33"/>
       <use x="63.623046875" xlink:href="#BitstreamVeraSans-Roman-35"/>
       <use x="127.24609375" xlink:href="#BitstreamVeraSans-Roman-30"/>
       <use x="190.869140625" xlink:href="#BitstreamVeraSans-Roman-30"/>
       <use x="254.4921875" xlink:href="#BitstreamVeraSans-Roman-30"/>
      </g>
     </g>
    </g>
    <g id="xtick_9">
     <g id="line2d_17">
      <g>
       <use style="stroke:#000000;stroke-width:0.5;" x="468.8" xlink:href="#m93b0483c22" y="388.8"/>
      </g>
     </g>
     <g id="line2d_18">
      <g>
       <use style="stroke:#000000;stroke-width:0.5;" x="468.8" xlink:href="#m741efc42ff" y="43.2"/>
      </g>
     </g>
     <g id="text_9">
      <!-- 40000 -->
      <defs>
       <path d="
M37.7969 64.3125
L12.8906 25.3906
L37.7969 25.3906
z

M35.2031 72.9062
L47.6094 72.9062
L47.6094 25.3906
L58.0156 25.3906
L58.0156 17.1875
L47.6094 17.1875
L47.6094 0
L37.7969 0
L37.7969 17.1875
L4.89062 17.1875
L4.89062 26.7031
z
" id="BitstreamVeraSans-Roman-34"/>
      </defs>
      <g transform="translate(450.404375 401.918125)scale(0.12 -0.12)">
       <use xlink:href="#BitstreamVeraSans-Roman-34"/>
       <use x="63.623046875" xlink:href="#BitstreamVeraSans-Roman-30"/>
       <use x="127.24609375" xlink:href="#BitstreamVeraSans-Roman-30"/>
       <use x="190.869140625" xlink:href="#BitstreamVeraSans-Roman-30"/>
       <use x="254.4921875" xlink:href="#BitstreamVeraSans-Roman-30"/>
      </g>
     </g>
    </g>
    <g id="xtick_10">
     <g id="line2d_19">
      <g>
       <use style="stroke:#000000;stroke-width:0.5;" x="518.4" xlink:href="#m93b0483c22" y="388.8"/>
      </g>
     </g>
     <g id="line2d_20">
      <g>
       <use style="stroke:#000000;stroke-width:0.5;" x="518.4" xlink:href="#m741efc42ff" y="43.2"/>
      </g>
     </g>
     <g id="text_10">
      <!-- 45000 -->
      <g transform="translate(500.004375 401.918125)scale(0.12 -0.12)">
       <use xlink:href="#BitstreamVeraSans-Roman-34"/>
       <use x="63.623046875" xlink:href="#BitstreamVeraSans-Roman-35"/>
       <use x="127.24609375" xlink:href="#BitstreamVeraSans-Roman-30"/>
       <use x="190.869140625" xlink:href="#BitstreamVeraSans-Roman-30"/>
       <use x="254.4921875" xlink:href="#BitstreamVeraSans-Roman-30"/>
      </g>
     </g>
    </g>
   </g>
   <g id="matplotlib.axis_2">
    <g id="ytick_1">
     <g id="line2d_21">
      <defs>
       <path d="
M0 0
L4 0" id="m728421d6d4" style="stroke:#000000;stroke-width:0.5;"/>
      </defs>
      <g>
       <use style="stroke:#000000;stroke-width:0.5;" x="72.0" xlink:href="#m728421d6d4" y="388.8"/>
      </g>
     </g>
     <g id="line2d_22">
      <defs>
       <path d="
M0 0
L-4 0" id="mcb0005524f" style="stroke:#000000;stroke-width:0.5;"/>
      </defs>
      <g>
       <use style="stroke:#000000;stroke-width:0.5;" x="518.4" xlink:href="#mcb0005524f" y="388.8"/>
      </g>
     </g>
     <g id="text_11">
      <!-- 0.0000 -->
      <defs>
       <path d="
M10.6875 12.4062
L21 12.4062
L21 0
L10.6875 0
z
" id="BitstreamVeraSans-Roman-2e"/>
      </defs>
      <g transform="translate(27.599375 392.11125)scale(0.12 -0.12)">
       <use xlink:href="#BitstreamVeraSans-Roman-30"/>
       <use x="63.623046875" xlink:href="#BitstreamVeraSans-Roman-2e"/>
       <use x="95.41015625" xlink:href="#BitstreamVeraSans-Roman-30"/>
       <use x="159.033203125" xlink:href="#BitstreamVeraSans-Roman-30"/>
       <use x="222.65625" xlink:href="#BitstreamVeraSans-Roman-30"/>
       <use x="286.279296875" xlink:href="#BitstreamVeraSans-Roman-30"/>
      </g>
     </g>
    </g>
    <g id="ytick_2">
     <g id="line2d_23">
      <g>
       <use style="stroke:#000000;stroke-width:0.5;" x="72.0" xlink:href="#m728421d6d4" y="339.428571429"/>
      </g>
     </g>
     <g id="line2d_24">
      <g>
       <use style="stroke:#000000;stroke-width:0.5;" x="518.4" xlink:href="#mcb0005524f" y="339.428571429"/>
      </g>
     </g>
     <g id="text_12">
      <!-- 0.0001 -->
      <g transform="translate(27.910625 342.739821429)scale(0.12 -0.12)">
       <use xlink:href="#BitstreamVeraSans-Roman-30"/>
       <use x="63.623046875" xlink:href="#BitstreamVeraSans-Roman-2e"/>
       <use x="95.41015625" xlink:href="#BitstreamVeraSans-Roman-30"/>
       <use x="159.033203125" xlink:href="#BitstreamVeraSans-Roman-30"/>
       <use x="222.65625" xlink:href="#BitstreamVeraSans-Roman-30"/>
       <use x="286.279296875" xlink:href="#BitstreamVeraSans-Roman-31"/>
      </g>
     </g>
    </g>
    <g id="ytick_3">
     <g id="line2d_25">
      <g>
       <use style="stroke:#000000;stroke-width:0.5;" x="72.0" xlink:href="#m728421d6d4" y="290.057142857"/>
      </g>
     </g>
     <g id="line2d_26">
      <g>
       <use style="stroke:#000000;stroke-width:0.5;" x="518.4" xlink:href="#mcb0005524f" y="290.057142857"/>
      </g>
     </g>
     <g id="text_13">
      <!-- 0.0002 -->
      <g transform="translate(28.004375 293.368392857)scale(0.12 -0.12)">
       <use xlink:href="#BitstreamVeraSans-Roman-30"/>
       <use x="63.623046875" xlink:href="#BitstreamVeraSans-Roman-2e"/>
       <use x="95.41015625" xlink:href="#BitstreamVeraSans-Roman-30"/>
       <use x="159.033203125" xlink:href="#BitstreamVeraSans-Roman-30"/>
       <use x="222.65625" xlink:href="#BitstreamVeraSans-Roman-30"/>
       <use x="286.279296875" xlink:href="#BitstreamVeraSans-Roman-32"/>
      </g>
     </g>
    </g>
    <g id="ytick_4">
     <g id="line2d_27">
      <g>
       <use style="stroke:#000000;stroke-width:0.5;" x="72.0" xlink:href="#m728421d6d4" y="240.685714286"/>
      </g>
     </g>
     <g id="line2d_28">
      <g>
       <use style="stroke:#000000;stroke-width:0.5;" x="518.4" xlink:href="#mcb0005524f" y="240.685714286"/>
      </g>
     </g>
     <g id="text_14">
      <!-- 0.0003 -->
      <g transform="translate(27.764375 243.996964286)scale(0.12 -0.12)">
       <use xlink:href="#BitstreamVeraSans-Roman-30"/>
       <use x="63.623046875" xlink:href="#BitstreamVeraSans-Roman-2e"/>
       <use x="95.41015625" xlink:href="#BitstreamVeraSans-Roman-30"/>
       <use x="159.033203125" xlink:href="#BitstreamVeraSans-Roman-30"/>
       <use x="222.65625" xlink:href="#BitstreamVeraSans-Roman-30"/>
       <use x="286.279296875" xlink:href="#BitstreamVeraSans-Roman-33"/>
      </g>
     </g>
    </g>
    <g id="ytick_5">
     <g id="line2d_29">
      <g>
       <use style="stroke:#000000;stroke-width:0.5;" x="72.0" xlink:href="#m728421d6d4" y="191.314285714"/>
      </g>
     </g>
     <g id="line2d_30">
      <g>
       <use style="stroke:#000000;stroke-width:0.5;" x="518.4" xlink:href="#mcb0005524f" y="191.314285714"/>
      </g>
     </g>
     <g id="text_15">
      <!-- 0.0004 -->
      <g transform="translate(27.475625 194.625535714)scale(0.12 -0.12)">
       <use xlink:href="#BitstreamVeraSans-Roman-30"/>
       <use x="63.623046875" xlink:href="#BitstreamVeraSans-Roman-2e"/>
       <use x="95.41015625" xlink:href="#BitstreamVeraSans-Roman-30"/>
       <use x="159.033203125" xlink:href="#BitstreamVeraSans-Roman-30"/>
       <use x="222.65625" xlink:href="#BitstreamVeraSans-Roman-30"/>
       <use x="286.279296875" xlink:href="#BitstreamVeraSans-Roman-34"/>
      </g>
     </g>
    </g>
    <g id="ytick_6">
     <g id="line2d_31">
      <g>
       <use style="stroke:#000000;stroke-width:0.5;" x="72.0" xlink:href="#m728421d6d4" y="141.942857143"/>
      </g>
     </g>
     <g id="line2d_32">
      <g>
       <use style="stroke:#000000;stroke-width:0.5;" x="518.4" xlink:href="#mcb0005524f" y="141.942857143"/>
      </g>
     </g>
     <g id="text_16">
      <!-- 0.0005 -->
      <g transform="translate(27.850625 145.254107143)scale(0.12 -0.12)">
       <use xlink:href="#BitstreamVeraSans-Roman-30"/>
       <use x="63.623046875" xlink:href="#BitstreamVeraSans-Roman-2e"/>
       <use x="95.41015625" xlink:href="#BitstreamVeraSans-Roman-30"/>
       <use x="159.033203125" xlink:href="#BitstreamVeraSans-Roman-30"/>
       <use x="222.65625" xlink:href="#BitstreamVeraSans-Roman-30"/>
       <use x="286.279296875" xlink:href="#BitstreamVeraSans-Roman-35"/>
      </g>
     </g>
    </g>
    <g id="ytick_7">
     <g id="line2d_33">
      <g>
       <use style="stroke:#000000;stroke-width:0.5;" x="72.0" xlink:href="#m728421d6d4" y="92.5714285714"/>
      </g>
     </g>
     <g id="line2d_34">
      <g>
       <use style="stroke:#000000;stroke-width:0.5;" x="518.4" xlink:href="#mcb0005524f" y="92.5714285714"/>
      </g>
     </g>
     <g id="text_17">
      <!-- 0.0006 -->
      <defs>
       <path d="
M33.0156 40.375
Q26.375 40.375 22.4844 35.8281
Q18.6094 31.2969 18.6094 23.3906
Q18.6094 15.5312 22.4844 10.9531
Q26.375 6.39062 33.0156 6.39062
Q39.6562 6.39062 43.5312 10.9531
Q47.4062 15.5312 47.4062 23.3906
Q47.4062 31.2969 43.5312 35.8281
Q39.6562 40.375 33.0156 40.375
M52.5938 71.2969
L52.5938 62.3125
Q48.875 64.0625 45.0938 64.9844
Q41.3125 65.9219 37.5938 65.9219
Q27.8281 65.9219 22.6719 59.3281
Q17.5312 52.7344 16.7969 39.4062
Q19.6719 43.6562 24.0156 45.9219
Q28.375 48.1875 33.5938 48.1875
Q44.5781 48.1875 50.9531 41.5156
Q57.3281 34.8594 57.3281 23.3906
Q57.3281 12.1562 50.6875 5.35938
Q44.0469 -1.42188 33.0156 -1.42188
Q20.3594 -1.42188 13.6719 8.26562
Q6.98438 17.9688 6.98438 36.375
Q6.98438 53.6562 15.1875 63.9375
Q23.3906 74.2188 37.2031 74.2188
Q40.9219 74.2188 44.7031 73.4844
Q48.4844 72.75 52.5938 71.2969" id="BitstreamVeraSans-Roman-36"/>
      </defs>
      <g transform="translate(27.558125 95.8826785714)scale(0.12 -0.12)">
       <use xlink:href="#BitstreamVeraSans-Roman-30"/>
       <use x="63.623046875" xlink:href="#BitstreamVeraSans-Roman-2e"/>
       <use x="95.41015625" xlink:href="#BitstreamVeraSans-Roman-30"/>
       <use x="159.033203125" xlink:href="#BitstreamVeraSans-Roman-30"/>
       <use x="222.65625" xlink:href="#BitstreamVeraSans-Roman-30"/>
       <use x="286.279296875" xlink:href="#BitstreamVeraSans-Roman-36"/>
      </g>
     </g>
    </g>
    <g id="ytick_8">
     <g id="line2d_35">
      <g>
       <use style="stroke:#000000;stroke-width:0.5;" x="72.0" xlink:href="#m728421d6d4" y="43.2"/>
      </g>
     </g>
     <g id="line2d_36">
      <g>
       <use style="stroke:#000000;stroke-width:0.5;" x="518.4" xlink:href="#mcb0005524f" y="43.2"/>
      </g>
     </g>
     <g id="text_18">
      <!-- 0.0007 -->
      <defs>
       <path d="
M8.20312 72.9062
L55.0781 72.9062
L55.0781 68.7031
L28.6094 0
L18.3125 0
L43.2188 64.5938
L8.20312 64.5938
z
" id="BitstreamVeraSans-Roman-37"/>
      </defs>
      <g transform="translate(27.828125 46.51125)scale(0.12 -0.12)">
       <use xlink:href="#BitstreamVeraSans-Roman-30"/>
       <use x="63.623046875" xlink:href="#BitstreamVeraSans-Roman-2e"/>
       <use x="95.41015625" xlink:href="#BitstreamVeraSans-Roman-30"/>
       <use x="159.033203125" xlink:href="#BitstreamVeraSans-Roman-30"/>
       <use x="222.65625" xlink:href="#BitstreamVeraSans-Roman-30"/>
       <use x="286.279296875" xlink:href="#BitstreamVeraSans-Roman-37"/>
      </g>
     </g>
    </g>
   </g>
   <g id="patch_103">
    <path d="
M72 43.2
L518.4 43.2" style="fill:none;stroke:#000000;"/>
   </g>
   <g id="patch_104">
    <path d="
M518.4 388.8
L518.4 43.2" style="fill:none;stroke:#000000;"/>
   </g>
   <g id="patch_105">
    <path d="
M72 388.8
L518.4 388.8" style="fill:none;stroke:#000000;"/>
   </g>
   <g id="patch_106">
    <path d="
M72 388.8
L72 43.2" style="fill:none;stroke:#000000;"/>
   </g>
  </g>
 </g>
 <defs>
  <clipPath id="p7ff5b81e1d">
   <rect height="345.6" width="446.4" x="72.0" y="43.2"/>
  </clipPath>
 </defs>
</svg>
