<?xml version="1.0" encoding="utf-8" standalone="no"?>
<!DOCTYPE svg PUBLIC "-//W3C//DTD SVG 1.1//EN"
  "http://www.w3.org/Graphics/SVG/1.1/DTD/svg11.dtd">
<!-- Created with matplotlib (http://matplotlib.org/) -->
<svg height="432pt" version="1.1" viewBox="0 0 576 432" width="576pt" xmlns="http://www.w3.org/2000/svg" xmlns:xlink="http://www.w3.org/1999/xlink">
 <defs>
  <style type="text/css">
*{stroke-linecap:butt;stroke-linejoin:round;}
  </style>
 </defs>
 <g id="figure_1">
  <g id="patch_1">
   <path d="
M0 432
L576 432
L576 0
L0 0
z
" style="fill:#ffffff;"/>
  </g>
  <g id="axes_1">
   <g id="patch_2">
    <path d="
M72 388.8
L518.4 388.8
L518.4 43.2
L72 43.2
z
" style="fill:#ffffff;"/>
   </g>
   <g id="line2d_1">
    <defs>
     <path d="
M0 3
C0.795609 3 1.55874 2.6839 2.12132 2.12132
C2.6839 1.55874 3 0.795609 3 0
C3 -0.795609 2.6839 -1.55874 2.12132 -2.12132
C1.55874 -2.6839 0.795609 -3 0 -3
C-0.795609 -3 -1.55874 -2.6839 -2.12132 -2.12132
C-2.6839 -1.55874 -3 -0.795609 -3 0
C-3 0.795609 -2.6839 1.55874 -2.12132 2.12132
C-1.55874 2.6839 -0.795609 3 0 3
z
" id="mf1e9a9e4ae" style="stroke:#000000;stroke-width:0.5;"/>
    </defs>
    <g clip-path="url(#p7ff5b81e1d)">
     <use style="fill:#0000ff;stroke:#000000;stroke-width:0.5;" x="84.685890692" xlink:href="#mf1e9a9e4ae" y="308.16"/>
     <use style="fill:#0000ff;stroke:#000000;stroke-width:0.5;" x="106.760855182" xlink:href="#mf1e9a9e4ae" y="305.28"/>
     <use style="fill:#0000ff;stroke:#000000;stroke-width:0.5;" x="119.261920243" xlink:href="#mf1e9a9e4ae" y="305.28"/>
     <use style="fill:#0000ff;stroke:#000000;stroke-width:0.5;" x="128.171315071" xlink:href="#mf1e9a9e4ae" y="302.4"/>
     <use style="fill:#0000ff;stroke:#000000;stroke-width:0.5;" x="135.181698765" xlink:href="#mf1e9a9e4ae" y="302.4"/>
     <use style="fill:#0000ff;stroke:#000000;stroke-width:0.5;" x="141.00614975" xlink:href="#mf1e9a9e4ae" y="302.4"/>
     <use style="fill:#0000ff;stroke:#000000;stroke-width:0.5;" x="146.015274561" xlink:href="#mf1e9a9e4ae" y="302.4"/>
     <use style="fill:#0000ff;stroke:#000000;stroke-width:0.5;" x="150.42736397" xlink:href="#mf1e9a9e4ae" y="296.64"/>
     <use style="fill:#0000ff;stroke:#000000;stroke-width:0.5;" x="154.382264848" xlink:href="#mf1e9a9e4ae" y="296.64"/>
     <use style="fill:#0000ff;stroke:#000000;stroke-width:0.5;" x="157.975169023" xlink:href="#mf1e9a9e4ae" y="296.64"/>
     <use style="fill:#0000ff;stroke:#000000;stroke-width:0.5;" x="161.273917045" xlink:href="#mf1e9a9e4ae" y="296.64"/>
     <use style="fill:#0000ff;stroke:#000000;stroke-width:0.5;" x="164.328631088" xlink:href="#mf1e9a9e4ae" y="296.64"/>
     <use style="fill:#0000ff;stroke:#000000;stroke-width:0.5;" x="167.177434542" xlink:href="#mf1e9a9e4ae" y="296.64"/>
     <use style="fill:#0000ff;stroke:#000000;stroke-width:0.5;" x="169.850027116" xlink:href="#mf1e9a9e4ae" y="296.64"/>
     <use style="fill:#0000ff;stroke:#000000;stroke-width:0.5;" x="172.370015375" xlink:href="#mf1e9a9e4ae" y="296.64"/>
     <use style="fill:#0000ff;stroke:#000000;stroke-width:0.5;" x="174.756486091" xlink:href="#mf1e9a9e4ae" y="296.64"/>
     <use style="fill:#0000ff;stroke:#000000;stroke-width:0.5;" x="177.025100368" xlink:href="#mf1e9a9e4ae" y="296.64"/>
     <use style="fill:#0000ff;stroke:#000000;stroke-width:0.5;" x="179.188874124" xlink:href="#mf1e9a9e4ae" y="296.64"/>
     <use style="fill:#0000ff;stroke:#000000;stroke-width:0.5;" x="181.258747268" xlink:href="#mf1e9a9e4ae" y="296.64"/>
     <use style="fill:#0000ff;stroke:#000000;stroke-width:0.5;" x="183.244006886" xlink:href="#mf1e9a9e4ae" y="296.64"/>
     <use style="fill:#0000ff;stroke:#000000;stroke-width:0.5;" x="185.152607313" xlink:href="#mf1e9a9e4ae" y="296.64"/>
     <use style="fill:#0000ff;stroke:#000000;stroke-width:0.5;" x="186.991415925" xlink:href="#mf1e9a9e4ae" y="296.64"/>
     <use style="fill:#0000ff;stroke:#000000;stroke-width:0.5;" x="188.766404493" xlink:href="#mf1e9a9e4ae" y="296.64"/>
     <use style="fill:#0000ff;stroke:#000000;stroke-width:0.5;" x="190.482799982" xlink:href="#mf1e9a9e4ae" y="296.64"/>
     <use style="fill:#0000ff;stroke:#000000;stroke-width:0.5;" x="192.145204738" xlink:href="#mf1e9a9e4ae" y="296.64"/>
     <use style="fill:#0000ff;stroke:#000000;stroke-width:0.5;" x="193.757693245" xlink:href="#mf1e9a9e4ae" y="296.64"/>
     <use style="fill:#0000ff;stroke:#000000;stroke-width:0.5;" x="195.323890743" xlink:href="#mf1e9a9e4ae" y="296.64"/>
     <use style="fill:#0000ff;stroke:#000000;stroke-width:0.5;" x="196.847037665" xlink:href="#mf1e9a9e4ae" y="296.64"/>
     <use style="fill:#0000ff;stroke:#000000;stroke-width:0.5;" x="198.33004285" xlink:href="#mf1e9a9e4ae" y="296.64"/>
     <use style="fill:#0000ff;stroke:#000000;stroke-width:0.5;" x="199.775527822" xlink:href="#mf1e9a9e4ae" y="296.64"/>
     <use style="fill:#0000ff;stroke:#000000;stroke-width:0.5;" x="201.185863873" xlink:href="#mf1e9a9e4ae" y="296.64"/>
     <use style="fill:#0000ff;stroke:#000000;stroke-width:0.5;" x="202.563203318" xlink:href="#mf1e9a9e4ae" y="296.64"/>
     <use style="fill:#0000ff;stroke:#000000;stroke-width:0.5;" x="203.909505992" xlink:href="#mf1e9a9e4ae" y="296.64"/>
     <use style="fill:#0000ff;stroke:#000000;stroke-width:0.5;" x="205.226561835" xlink:href="#mf1e9a9e4ae" y="296.64"/>
     <use style="fill:#0000ff;stroke:#000000;stroke-width:0.5;" x="206.516010238" xlink:href="#mf1e9a9e4ae" y="293.76"/>
     <use style="fill:#0000ff;stroke:#000000;stroke-width:0.5;" x="207.779356694" xlink:href="#mf1e9a9e4ae" y="290.88"/>
     <use style="fill:#0000ff;stroke:#000000;stroke-width:0.5;" x="209.017987208" xlink:href="#mf1e9a9e4ae" y="290.88"/>
     <use style="fill:#0000ff;stroke:#000000;stroke-width:0.5;" x="210.233180791" xlink:href="#mf1e9a9e4ae" y="290.88"/>
     <use style="fill:#0000ff;stroke:#000000;stroke-width:0.5;" x="211.426120368" xlink:href="#mf1e9a9e4ae" y="290.88"/>
     <use style="fill:#0000ff;stroke:#000000;stroke-width:0.5;" x="212.597902315" xlink:href="#mf1e9a9e4ae" y="288.0"/>
     <use style="fill:#0000ff;stroke:#000000;stroke-width:0.5;" x="213.749544838" xlink:href="#mf1e9a9e4ae" y="285.12"/>
     <use style="fill:#0000ff;stroke:#000000;stroke-width:0.5;" x="214.881995355" xlink:href="#mf1e9a9e4ae" y="285.12"/>
     <use style="fill:#0000ff;stroke:#000000;stroke-width:0.5;" x="215.996137023" xlink:href="#mf1e9a9e4ae" y="285.12"/>
     <use style="fill:#0000ff;stroke:#000000;stroke-width:0.5;" x="217.092794523" xlink:href="#mf1e9a9e4ae" y="285.12"/>
     <use style="fill:#0000ff;stroke:#000000;stroke-width:0.5;" x="218.172739212" xlink:href="#mf1e9a9e4ae" y="285.12"/>
     <use style="fill:#0000ff;stroke:#000000;stroke-width:0.5;" x="219.236693707" xlink:href="#mf1e9a9e4ae" y="285.12"/>
     <use style="fill:#0000ff;stroke:#000000;stroke-width:0.5;" x="220.285335991" xlink:href="#mf1e9a9e4ae" y="285.12"/>
     <use style="fill:#0000ff;stroke:#000000;stroke-width:0.5;" x="221.319303092" xlink:href="#mf1e9a9e4ae" y="285.12"/>
     <use style="fill:#0000ff;stroke:#000000;stroke-width:0.5;" x="222.33919439" xlink:href="#mf1e9a9e4ae" y="285.12"/>
     <use style="fill:#0000ff;stroke:#000000;stroke-width:0.5;" x="223.34557459" xlink:href="#mf1e9a9e4ae" y="285.12"/>
     <use style="fill:#0000ff;stroke:#000000;stroke-width:0.5;" x="224.338976413" xlink:href="#mf1e9a9e4ae" y="285.12"/>
     <use style="fill:#0000ff;stroke:#000000;stroke-width:0.5;" x="225.319903025" xlink:href="#mf1e9a9e4ae" y="285.12"/>
     <use style="fill:#0000ff;stroke:#000000;stroke-width:0.5;" x="226.288830239" xlink:href="#mf1e9a9e4ae" y="285.12"/>
     <use style="fill:#0000ff;stroke:#000000;stroke-width:0.5;" x="227.24620852" xlink:href="#mf1e9a9e4ae" y="285.12"/>
     <use style="fill:#0000ff;stroke:#000000;stroke-width:0.5;" x="228.192464802" xlink:href="#mf1e9a9e4ae" y="285.12"/>
     <use style="fill:#0000ff;stroke:#000000;stroke-width:0.5;" x="229.128004146" xlink:href="#mf1e9a9e4ae" y="285.12"/>
     <use style="fill:#0000ff;stroke:#000000;stroke-width:0.5;" x="230.053211262" xlink:href="#mf1e9a9e4ae" y="285.12"/>
     <use style="fill:#0000ff;stroke:#000000;stroke-width:0.5;" x="230.968451888" xlink:href="#mf1e9a9e4ae" y="285.12"/>
     <use style="fill:#0000ff;stroke:#000000;stroke-width:0.5;" x="231.874074062" xlink:href="#mf1e9a9e4ae" y="285.12"/>
     <use style="fill:#0000ff;stroke:#000000;stroke-width:0.5;" x="232.770409289" xlink:href="#mf1e9a9e4ae" y="285.12"/>
     <use style="fill:#0000ff;stroke:#000000;stroke-width:0.5;" x="233.657773611" xlink:href="#mf1e9a9e4ae" y="285.12"/>
     <use style="fill:#0000ff;stroke:#000000;stroke-width:0.5;" x="234.536468588" xlink:href="#mf1e9a9e4ae" y="285.12"/>
     <use style="fill:#0000ff;stroke:#000000;stroke-width:0.5;" x="235.406782214" xlink:href="#mf1e9a9e4ae" y="285.12"/>
     <use style="fill:#0000ff;stroke:#000000;stroke-width:0.5;" x="236.268989748" xlink:href="#mf1e9a9e4ae" y="285.12"/>
     <use style="fill:#0000ff;stroke:#000000;stroke-width:0.5;" x="237.123354491" xlink:href="#mf1e9a9e4ae" y="285.12"/>
     <use style="fill:#0000ff;stroke:#000000;stroke-width:0.5;" x="237.970128504" xlink:href="#mf1e9a9e4ae" y="285.12"/>
     <use style="fill:#0000ff;stroke:#000000;stroke-width:0.5;" x="238.809553269" xlink:href="#mf1e9a9e4ae" y="279.36"/>
     <use style="fill:#0000ff;stroke:#000000;stroke-width:0.5;" x="239.641860307" xlink:href="#mf1e9a9e4ae" y="279.36"/>
     <use style="fill:#0000ff;stroke:#000000;stroke-width:0.5;" x="240.467271748" xlink:href="#mf1e9a9e4ae" y="279.36"/>
     <use style="fill:#0000ff;stroke:#000000;stroke-width:0.5;" x="241.286000864" xlink:href="#mf1e9a9e4ae" y="279.36"/>
     <use style="fill:#0000ff;stroke:#000000;stroke-width:0.5;" x="242.098252563" xlink:href="#mf1e9a9e4ae" y="279.36"/>
     <use style="fill:#0000ff;stroke:#000000;stroke-width:0.5;" x="242.904223849" xlink:href="#mf1e9a9e4ae" y="279.36"/>
     <use style="fill:#0000ff;stroke:#000000;stroke-width:0.5;" x="243.704104255" xlink:href="#mf1e9a9e4ae" y="279.36"/>
     <use style="fill:#0000ff;stroke:#000000;stroke-width:0.5;" x="244.49807624" xlink:href="#mf1e9a9e4ae" y="279.36"/>
     <use style="fill:#0000ff;stroke:#000000;stroke-width:0.5;" x="245.286315567" xlink:href="#mf1e9a9e4ae" y="279.36"/>
     <use style="fill:#0000ff;stroke:#000000;stroke-width:0.5;" x="246.068991653" xlink:href="#mf1e9a9e4ae" y="279.36"/>
     <use style="fill:#0000ff;stroke:#000000;stroke-width:0.5;" x="246.846267899" xlink:href="#mf1e9a9e4ae" y="273.6"/>
     <use style="fill:#0000ff;stroke:#000000;stroke-width:0.5;" x="247.618301995" xlink:href="#mf1e9a9e4ae" y="273.6"/>
     <use style="fill:#0000ff;stroke:#000000;stroke-width:0.5;" x="248.385246212" xlink:href="#mf1e9a9e4ae" y="273.6"/>
     <use style="fill:#0000ff;stroke:#000000;stroke-width:0.5;" x="249.147247669" xlink:href="#mf1e9a9e4ae" y="273.6"/>
     <use style="fill:#0000ff;stroke:#000000;stroke-width:0.5;" x="249.904448594" xlink:href="#mf1e9a9e4ae" y="273.6"/>
     <use style="fill:#0000ff;stroke:#000000;stroke-width:0.5;" x="250.656986558" xlink:href="#mf1e9a9e4ae" y="273.6"/>
     <use style="fill:#0000ff;stroke:#000000;stroke-width:0.5;" x="251.404994703" xlink:href="#mf1e9a9e4ae" y="273.6"/>
     <use style="fill:#0000ff;stroke:#000000;stroke-width:0.5;" x="252.148601955" xlink:href="#mf1e9a9e4ae" y="273.6"/>
     <use style="fill:#0000ff;stroke:#000000;stroke-width:0.5;" x="252.887933223" xlink:href="#mf1e9a9e4ae" y="273.6"/>
     <use style="fill:#0000ff;stroke:#000000;stroke-width:0.5;" x="253.623109589" xlink:href="#mf1e9a9e4ae" y="273.6"/>
     <use style="fill:#0000ff;stroke:#000000;stroke-width:0.5;" x="254.354248486" xlink:href="#mf1e9a9e4ae" y="273.6"/>
     <use style="fill:#0000ff;stroke:#000000;stroke-width:0.5;" x="255.081463866" xlink:href="#mf1e9a9e4ae" y="273.6"/>
     <use style="fill:#0000ff;stroke:#000000;stroke-width:0.5;" x="255.804866363" xlink:href="#mf1e9a9e4ae" y="273.6"/>
     <use style="fill:#0000ff;stroke:#000000;stroke-width:0.5;" x="256.524563439" xlink:href="#mf1e9a9e4ae" y="273.6"/>
     <use style="fill:#0000ff;stroke:#000000;stroke-width:0.5;" x="257.240659528" xlink:href="#mf1e9a9e4ae" y="273.6"/>
     <use style="fill:#0000ff;stroke:#000000;stroke-width:0.5;" x="257.953256176" xlink:href="#mf1e9a9e4ae" y="273.6"/>
     <use style="fill:#0000ff;stroke:#000000;stroke-width:0.5;" x="258.662452164" xlink:href="#mf1e9a9e4ae" y="273.6"/>
     <use style="fill:#0000ff;stroke:#000000;stroke-width:0.5;" x="259.368343632" xlink:href="#mf1e9a9e4ae" y="273.6"/>
     <use style="fill:#0000ff;stroke:#000000;stroke-width:0.5;" x="260.071024196" xlink:href="#mf1e9a9e4ae" y="273.6"/>
     <use style="fill:#0000ff;stroke:#000000;stroke-width:0.5;" x="260.770585056" xlink:href="#mf1e9a9e4ae" y="273.6"/>
     <use style="fill:#0000ff;stroke:#000000;stroke-width:0.5;" x="261.467115101" xlink:href="#mf1e9a9e4ae" y="273.6"/>
     <use style="fill:#0000ff;stroke:#000000;stroke-width:0.5;" x="262.16070101" xlink:href="#mf1e9a9e4ae" y="273.6"/>
     <use style="fill:#0000ff;stroke:#000000;stroke-width:0.5;" x="262.851427346" xlink:href="#mf1e9a9e4ae" y="273.6"/>
     <use style="fill:#0000ff;stroke:#000000;stroke-width:0.5;" x="263.539376645" xlink:href="#mf1e9a9e4ae" y="273.6"/>
     <use style="fill:#0000ff;stroke:#000000;stroke-width:0.5;" x="264.224629505" xlink:href="#mf1e9a9e4ae" y="273.6"/>
     <use style="fill:#0000ff;stroke:#000000;stroke-width:0.5;" x="264.907264665" xlink:href="#mf1e9a9e4ae" y="273.6"/>
     <use style="fill:#0000ff;stroke:#000000;stroke-width:0.5;" x="265.587359085" xlink:href="#mf1e9a9e4ae" y="273.6"/>
     <use style="fill:#0000ff;stroke:#000000;stroke-width:0.5;" x="266.264988023" xlink:href="#mf1e9a9e4ae" y="273.6"/>
     <use style="fill:#0000ff;stroke:#000000;stroke-width:0.5;" x="266.940225103" xlink:href="#mf1e9a9e4ae" y="273.6"/>
     <use style="fill:#0000ff;stroke:#000000;stroke-width:0.5;" x="267.613142385" xlink:href="#mf1e9a9e4ae" y="273.6"/>
     <use style="fill:#0000ff;stroke:#000000;stroke-width:0.5;" x="268.283810431" xlink:href="#mf1e9a9e4ae" y="273.6"/>
     <use style="fill:#0000ff;stroke:#000000;stroke-width:0.5;" x="268.952298369" xlink:href="#mf1e9a9e4ae" y="273.6"/>
     <use style="fill:#0000ff;stroke:#000000;stroke-width:0.5;" x="269.618673951" xlink:href="#mf1e9a9e4ae" y="273.6"/>
     <use style="fill:#0000ff;stroke:#000000;stroke-width:0.5;" x="270.283003612" xlink:href="#mf1e9a9e4ae" y="273.6"/>
     <use style="fill:#0000ff;stroke:#000000;stroke-width:0.5;" x="270.945352524" xlink:href="#mf1e9a9e4ae" y="273.6"/>
     <use style="fill:#0000ff;stroke:#000000;stroke-width:0.5;" x="271.605784653" xlink:href="#mf1e9a9e4ae" y="270.72"/>
     <use style="fill:#0000ff;stroke:#000000;stroke-width:0.5;" x="272.264362807" xlink:href="#mf1e9a9e4ae" y="270.72"/>
     <use style="fill:#0000ff;stroke:#000000;stroke-width:0.5;" x="272.921148685" xlink:href="#mf1e9a9e4ae" y="267.84"/>
     <use style="fill:#0000ff;stroke:#000000;stroke-width:0.5;" x="273.576202927" xlink:href="#mf1e9a9e4ae" y="267.84"/>
     <use style="fill:#0000ff;stroke:#000000;stroke-width:0.5;" x="274.229585157" xlink:href="#mf1e9a9e4ae" y="264.96"/>
     <use style="fill:#0000ff;stroke:#000000;stroke-width:0.5;" x="274.881354029" xlink:href="#mf1e9a9e4ae" y="262.08"/>
     <use style="fill:#0000ff;stroke:#000000;stroke-width:0.5;" x="275.53156727" xlink:href="#mf1e9a9e4ae" y="262.08"/>
     <use style="fill:#0000ff;stroke:#000000;stroke-width:0.5;" x="276.180281717" xlink:href="#mf1e9a9e4ae" y="262.08"/>
     <use style="fill:#0000ff;stroke:#000000;stroke-width:0.5;" x="276.827553362" xlink:href="#mf1e9a9e4ae" y="262.08"/>
     <use style="fill:#0000ff;stroke:#000000;stroke-width:0.5;" x="277.473437387" xlink:href="#mf1e9a9e4ae" y="262.08"/>
     <use style="fill:#0000ff;stroke:#000000;stroke-width:0.5;" x="278.117988201" xlink:href="#mf1e9a9e4ae" y="262.08"/>
     <use style="fill:#0000ff;stroke:#000000;stroke-width:0.5;" x="278.761259479" xlink:href="#mf1e9a9e4ae" y="262.08"/>
     <use style="fill:#0000ff;stroke:#000000;stroke-width:0.5;" x="279.403304192" xlink:href="#mf1e9a9e4ae" y="262.08"/>
     <use style="fill:#0000ff;stroke:#000000;stroke-width:0.5;" x="280.044174646" xlink:href="#mf1e9a9e4ae" y="262.08"/>
     <use style="fill:#0000ff;stroke:#000000;stroke-width:0.5;" x="280.683922511" xlink:href="#mf1e9a9e4ae" y="262.08"/>
     <use style="fill:#0000ff;stroke:#000000;stroke-width:0.5;" x="281.322598853" xlink:href="#mf1e9a9e4ae" y="262.08"/>
     <use style="fill:#0000ff;stroke:#000000;stroke-width:0.5;" x="281.960254168" xlink:href="#mf1e9a9e4ae" y="262.08"/>
     <use style="fill:#0000ff;stroke:#000000;stroke-width:0.5;" x="282.596938411" xlink:href="#mf1e9a9e4ae" y="262.08"/>
     <use style="fill:#0000ff;stroke:#000000;stroke-width:0.5;" x="283.232701021" xlink:href="#mf1e9a9e4ae" y="262.08"/>
     <use style="fill:#0000ff;stroke:#000000;stroke-width:0.5;" x="283.867590959" xlink:href="#mf1e9a9e4ae" y="262.08"/>
     <use style="fill:#0000ff;stroke:#000000;stroke-width:0.5;" x="284.501656726" xlink:href="#mf1e9a9e4ae" y="262.08"/>
     <use style="fill:#0000ff;stroke:#000000;stroke-width:0.5;" x="285.134946397" xlink:href="#mf1e9a9e4ae" y="262.08"/>
     <use style="fill:#0000ff;stroke:#000000;stroke-width:0.5;" x="285.767507646" xlink:href="#mf1e9a9e4ae" y="262.08"/>
     <use style="fill:#0000ff;stroke:#000000;stroke-width:0.5;" x="286.399387772" xlink:href="#mf1e9a9e4ae" y="262.08"/>
     <use style="fill:#0000ff;stroke:#000000;stroke-width:0.5;" x="287.030633724" xlink:href="#mf1e9a9e4ae" y="262.08"/>
     <use style="fill:#0000ff;stroke:#000000;stroke-width:0.5;" x="287.661292129" xlink:href="#mf1e9a9e4ae" y="262.08"/>
     <use style="fill:#0000ff;stroke:#000000;stroke-width:0.5;" x="288.291409313" xlink:href="#mf1e9a9e4ae" y="262.08"/>
     <use style="fill:#0000ff;stroke:#000000;stroke-width:0.5;" x="288.921031328" xlink:href="#mf1e9a9e4ae" y="262.08"/>
     <use style="fill:#0000ff;stroke:#000000;stroke-width:0.5;" x="289.550203978" xlink:href="#mf1e9a9e4ae" y="262.08"/>
     <use style="fill:#0000ff;stroke:#000000;stroke-width:0.5;" x="290.178972839" xlink:href="#mf1e9a9e4ae" y="262.08"/>
     <use style="fill:#0000ff;stroke:#000000;stroke-width:0.5;" x="290.807383281" xlink:href="#mf1e9a9e4ae" y="262.08"/>
     <use style="fill:#0000ff;stroke:#000000;stroke-width:0.5;" x="291.4354805" xlink:href="#mf1e9a9e4ae" y="262.08"/>
     <use style="fill:#0000ff;stroke:#000000;stroke-width:0.5;" x="292.06330953" xlink:href="#mf1e9a9e4ae" y="262.08"/>
     <use style="fill:#0000ff;stroke:#000000;stroke-width:0.5;" x="292.690915274" xlink:href="#mf1e9a9e4ae" y="262.08"/>
     <use style="fill:#0000ff;stroke:#000000;stroke-width:0.5;" x="293.318342523" xlink:href="#mf1e9a9e4ae" y="262.08"/>
     <use style="fill:#0000ff;stroke:#000000;stroke-width:0.5;" x="293.945635977" xlink:href="#mf1e9a9e4ae" y="259.2"/>
     <use style="fill:#0000ff;stroke:#000000;stroke-width:0.5;" x="294.572840273" xlink:href="#mf1e9a9e4ae" y="256.32"/>
     <use style="fill:#0000ff;stroke:#000000;stroke-width:0.5;" x="295.2" xlink:href="#mf1e9a9e4ae" y="250.56"/>
     <use style="fill:#0000ff;stroke:#000000;stroke-width:0.5;" x="295.827159727" xlink:href="#mf1e9a9e4ae" y="250.56"/>
     <use style="fill:#0000ff;stroke:#000000;stroke-width:0.5;" x="296.454364023" xlink:href="#mf1e9a9e4ae" y="250.56"/>
     <use style="fill:#0000ff;stroke:#000000;stroke-width:0.5;" x="297.081657477" xlink:href="#mf1e9a9e4ae" y="250.56"/>
     <use style="fill:#0000ff;stroke:#000000;stroke-width:0.5;" x="297.709084726" xlink:href="#mf1e9a9e4ae" y="250.56"/>
     <use style="fill:#0000ff;stroke:#000000;stroke-width:0.5;" x="298.33669047" xlink:href="#mf1e9a9e4ae" y="250.56"/>
     <use style="fill:#0000ff;stroke:#000000;stroke-width:0.5;" x="298.9645195" xlink:href="#mf1e9a9e4ae" y="250.56"/>
     <use style="fill:#0000ff;stroke:#000000;stroke-width:0.5;" x="299.592616719" xlink:href="#mf1e9a9e4ae" y="250.56"/>
     <use style="fill:#0000ff;stroke:#000000;stroke-width:0.5;" x="300.221027161" xlink:href="#mf1e9a9e4ae" y="250.56"/>
     <use style="fill:#0000ff;stroke:#000000;stroke-width:0.5;" x="300.849796022" xlink:href="#mf1e9a9e4ae" y="250.56"/>
     <use style="fill:#0000ff;stroke:#000000;stroke-width:0.5;" x="301.478968672" xlink:href="#mf1e9a9e4ae" y="250.56"/>
     <use style="fill:#0000ff;stroke:#000000;stroke-width:0.5;" x="302.108590687" xlink:href="#mf1e9a9e4ae" y="250.56"/>
     <use style="fill:#0000ff;stroke:#000000;stroke-width:0.5;" x="302.738707871" xlink:href="#mf1e9a9e4ae" y="250.56"/>
     <use style="fill:#0000ff;stroke:#000000;stroke-width:0.5;" x="303.369366276" xlink:href="#mf1e9a9e4ae" y="250.56"/>
     <use style="fill:#0000ff;stroke:#000000;stroke-width:0.5;" x="304.000612228" xlink:href="#mf1e9a9e4ae" y="250.56"/>
     <use style="fill:#0000ff;stroke:#000000;stroke-width:0.5;" x="304.632492354" xlink:href="#mf1e9a9e4ae" y="250.56"/>
     <use style="fill:#0000ff;stroke:#000000;stroke-width:0.5;" x="305.265053603" xlink:href="#mf1e9a9e4ae" y="244.8"/>
     <use style="fill:#0000ff;stroke:#000000;stroke-width:0.5;" x="305.898343274" xlink:href="#mf1e9a9e4ae" y="244.8"/>
     <use style="fill:#0000ff;stroke:#000000;stroke-width:0.5;" x="306.532409041" xlink:href="#mf1e9a9e4ae" y="244.8"/>
     <use style="fill:#0000ff;stroke:#000000;stroke-width:0.5;" x="307.167298979" xlink:href="#mf1e9a9e4ae" y="244.8"/>
     <use style="fill:#0000ff;stroke:#000000;stroke-width:0.5;" x="307.803061589" xlink:href="#mf1e9a9e4ae" y="244.8"/>
     <use style="fill:#0000ff;stroke:#000000;stroke-width:0.5;" x="308.439745832" xlink:href="#mf1e9a9e4ae" y="244.8"/>
     <use style="fill:#0000ff;stroke:#000000;stroke-width:0.5;" x="309.077401147" xlink:href="#mf1e9a9e4ae" y="244.8"/>
     <use style="fill:#0000ff;stroke:#000000;stroke-width:0.5;" x="309.716077489" xlink:href="#mf1e9a9e4ae" y="244.8"/>
     <use style="fill:#0000ff;stroke:#000000;stroke-width:0.5;" x="310.355825354" xlink:href="#mf1e9a9e4ae" y="244.8"/>
     <use style="fill:#0000ff;stroke:#000000;stroke-width:0.5;" x="310.996695808" xlink:href="#mf1e9a9e4ae" y="244.8"/>
     <use style="fill:#0000ff;stroke:#000000;stroke-width:0.5;" x="311.638740521" xlink:href="#mf1e9a9e4ae" y="244.8"/>
     <use style="fill:#0000ff;stroke:#000000;stroke-width:0.5;" x="312.282011799" xlink:href="#mf1e9a9e4ae" y="244.8"/>
     <use style="fill:#0000ff;stroke:#000000;stroke-width:0.5;" x="312.926562613" xlink:href="#mf1e9a9e4ae" y="244.8"/>
     <use style="fill:#0000ff;stroke:#000000;stroke-width:0.5;" x="313.572446638" xlink:href="#mf1e9a9e4ae" y="244.8"/>
     <use style="fill:#0000ff;stroke:#000000;stroke-width:0.5;" x="314.219718283" xlink:href="#mf1e9a9e4ae" y="244.8"/>
     <use style="fill:#0000ff;stroke:#000000;stroke-width:0.5;" x="314.86843273" xlink:href="#mf1e9a9e4ae" y="244.8"/>
     <use style="fill:#0000ff;stroke:#000000;stroke-width:0.5;" x="315.518645971" xlink:href="#mf1e9a9e4ae" y="244.8"/>
     <use style="fill:#0000ff;stroke:#000000;stroke-width:0.5;" x="316.170414843" xlink:href="#mf1e9a9e4ae" y="244.8"/>
     <use style="fill:#0000ff;stroke:#000000;stroke-width:0.5;" x="316.823797073" xlink:href="#mf1e9a9e4ae" y="244.8"/>
     <use style="fill:#0000ff;stroke:#000000;stroke-width:0.5;" x="317.478851315" xlink:href="#mf1e9a9e4ae" y="244.8"/>
     <use style="fill:#0000ff;stroke:#000000;stroke-width:0.5;" x="318.135637193" xlink:href="#mf1e9a9e4ae" y="244.8"/>
     <use style="fill:#0000ff;stroke:#000000;stroke-width:0.5;" x="318.794215347" xlink:href="#mf1e9a9e4ae" y="244.8"/>
     <use style="fill:#0000ff;stroke:#000000;stroke-width:0.5;" x="319.454647476" xlink:href="#mf1e9a9e4ae" y="244.8"/>
     <use style="fill:#0000ff;stroke:#000000;stroke-width:0.5;" x="320.116996388" xlink:href="#mf1e9a9e4ae" y="244.8"/>
     <use style="fill:#0000ff;stroke:#000000;stroke-width:0.5;" x="320.781326049" xlink:href="#mf1e9a9e4ae" y="244.8"/>
     <use style="fill:#0000ff;stroke:#000000;stroke-width:0.5;" x="321.447701631" xlink:href="#mf1e9a9e4ae" y="244.8"/>
     <use style="fill:#0000ff;stroke:#000000;stroke-width:0.5;" x="322.116189569" xlink:href="#mf1e9a9e4ae" y="239.04"/>
     <use style="fill:#0000ff;stroke:#000000;stroke-width:0.5;" x="322.786857615" xlink:href="#mf1e9a9e4ae" y="239.04"/>
     <use style="fill:#0000ff;stroke:#000000;stroke-width:0.5;" x="323.459774897" xlink:href="#mf1e9a9e4ae" y="239.04"/>
     <use style="fill:#0000ff;stroke:#000000;stroke-width:0.5;" x="324.135011977" xlink:href="#mf1e9a9e4ae" y="239.04"/>
     <use style="fill:#0000ff;stroke:#000000;stroke-width:0.5;" x="324.812640915" xlink:href="#mf1e9a9e4ae" y="239.04"/>
     <use style="fill:#0000ff;stroke:#000000;stroke-width:0.5;" x="325.492735335" xlink:href="#mf1e9a9e4ae" y="239.04"/>
     <use style="fill:#0000ff;stroke:#000000;stroke-width:0.5;" x="326.175370495" xlink:href="#mf1e9a9e4ae" y="239.04"/>
     <use style="fill:#0000ff;stroke:#000000;stroke-width:0.5;" x="326.860623355" xlink:href="#mf1e9a9e4ae" y="239.04"/>
     <use style="fill:#0000ff;stroke:#000000;stroke-width:0.5;" x="327.548572654" xlink:href="#mf1e9a9e4ae" y="239.04"/>
     <use style="fill:#0000ff;stroke:#000000;stroke-width:0.5;" x="328.23929899" xlink:href="#mf1e9a9e4ae" y="239.04"/>
     <use style="fill:#0000ff;stroke:#000000;stroke-width:0.5;" x="328.932884899" xlink:href="#mf1e9a9e4ae" y="239.04"/>
     <use style="fill:#0000ff;stroke:#000000;stroke-width:0.5;" x="329.629414944" xlink:href="#mf1e9a9e4ae" y="239.04"/>
     <use style="fill:#0000ff;stroke:#000000;stroke-width:0.5;" x="330.328975804" xlink:href="#mf1e9a9e4ae" y="233.28"/>
     <use style="fill:#0000ff;stroke:#000000;stroke-width:0.5;" x="331.031656368" xlink:href="#mf1e9a9e4ae" y="230.4"/>
     <use style="fill:#0000ff;stroke:#000000;stroke-width:0.5;" x="331.737547836" xlink:href="#mf1e9a9e4ae" y="230.4"/>
     <use style="fill:#0000ff;stroke:#000000;stroke-width:0.5;" x="332.446743824" xlink:href="#mf1e9a9e4ae" y="230.4"/>
     <use style="fill:#0000ff;stroke:#000000;stroke-width:0.5;" x="333.159340472" xlink:href="#mf1e9a9e4ae" y="227.52"/>
     <use style="fill:#0000ff;stroke:#000000;stroke-width:0.5;" x="333.875436561" xlink:href="#mf1e9a9e4ae" y="227.52"/>
     <use style="fill:#0000ff;stroke:#000000;stroke-width:0.5;" x="334.595133637" xlink:href="#mf1e9a9e4ae" y="227.52"/>
     <use style="fill:#0000ff;stroke:#000000;stroke-width:0.5;" x="335.318536134" xlink:href="#mf1e9a9e4ae" y="227.52"/>
     <use style="fill:#0000ff;stroke:#000000;stroke-width:0.5;" x="336.045751514" xlink:href="#mf1e9a9e4ae" y="227.52"/>
     <use style="fill:#0000ff;stroke:#000000;stroke-width:0.5;" x="336.776890411" xlink:href="#mf1e9a9e4ae" y="227.52"/>
     <use style="fill:#0000ff;stroke:#000000;stroke-width:0.5;" x="337.512066777" xlink:href="#mf1e9a9e4ae" y="227.52"/>
     <use style="fill:#0000ff;stroke:#000000;stroke-width:0.5;" x="338.251398045" xlink:href="#mf1e9a9e4ae" y="227.52"/>
     <use style="fill:#0000ff;stroke:#000000;stroke-width:0.5;" x="338.995005297" xlink:href="#mf1e9a9e4ae" y="227.52"/>
     <use style="fill:#0000ff;stroke:#000000;stroke-width:0.5;" x="339.743013442" xlink:href="#mf1e9a9e4ae" y="227.52"/>
     <use style="fill:#0000ff;stroke:#000000;stroke-width:0.5;" x="340.495551406" xlink:href="#mf1e9a9e4ae" y="227.52"/>
     <use style="fill:#0000ff;stroke:#000000;stroke-width:0.5;" x="341.252752331" xlink:href="#mf1e9a9e4ae" y="227.52"/>
     <use style="fill:#0000ff;stroke:#000000;stroke-width:0.5;" x="342.014753788" xlink:href="#mf1e9a9e4ae" y="227.52"/>
     <use style="fill:#0000ff;stroke:#000000;stroke-width:0.5;" x="342.781698005" xlink:href="#mf1e9a9e4ae" y="227.52"/>
     <use style="fill:#0000ff;stroke:#000000;stroke-width:0.5;" x="343.553732101" xlink:href="#mf1e9a9e4ae" y="227.52"/>
     <use style="fill:#0000ff;stroke:#000000;stroke-width:0.5;" x="344.331008347" xlink:href="#mf1e9a9e4ae" y="227.52"/>
     <use style="fill:#0000ff;stroke:#000000;stroke-width:0.5;" x="345.113684433" xlink:href="#mf1e9a9e4ae" y="227.52"/>
     <use style="fill:#0000ff;stroke:#000000;stroke-width:0.5;" x="345.90192376" xlink:href="#mf1e9a9e4ae" y="227.52"/>
     <use style="fill:#0000ff;stroke:#000000;stroke-width:0.5;" x="346.695895745" xlink:href="#mf1e9a9e4ae" y="227.52"/>
     <use style="fill:#0000ff;stroke:#000000;stroke-width:0.5;" x="347.495776151" xlink:href="#mf1e9a9e4ae" y="227.52"/>
     <use style="fill:#0000ff;stroke:#000000;stroke-width:0.5;" x="348.301747437" xlink:href="#mf1e9a9e4ae" y="216.0"/>
     <use style="fill:#0000ff;stroke:#000000;stroke-width:0.5;" x="349.113999136" xlink:href="#mf1e9a9e4ae" y="216.0"/>
     <use style="fill:#0000ff;stroke:#000000;stroke-width:0.5;" x="349.932728252" xlink:href="#mf1e9a9e4ae" y="216.0"/>
     <use style="fill:#0000ff;stroke:#000000;stroke-width:0.5;" x="350.758139693" xlink:href="#mf1e9a9e4ae" y="216.0"/>
     <use style="fill:#0000ff;stroke:#000000;stroke-width:0.5;" x="351.590446731" xlink:href="#mf1e9a9e4ae" y="216.0"/>
     <use style="fill:#0000ff;stroke:#000000;stroke-width:0.5;" x="352.429871496" xlink:href="#mf1e9a9e4ae" y="216.0"/>
     <use style="fill:#0000ff;stroke:#000000;stroke-width:0.5;" x="353.276645509" xlink:href="#mf1e9a9e4ae" y="216.0"/>
     <use style="fill:#0000ff;stroke:#000000;stroke-width:0.5;" x="354.131010252" xlink:href="#mf1e9a9e4ae" y="216.0"/>
     <use style="fill:#0000ff;stroke:#000000;stroke-width:0.5;" x="354.993217786" xlink:href="#mf1e9a9e4ae" y="216.0"/>
     <use style="fill:#0000ff;stroke:#000000;stroke-width:0.5;" x="355.863531412" xlink:href="#mf1e9a9e4ae" y="216.0"/>
     <use style="fill:#0000ff;stroke:#000000;stroke-width:0.5;" x="356.742226389" xlink:href="#mf1e9a9e4ae" y="216.0"/>
     <use style="fill:#0000ff;stroke:#000000;stroke-width:0.5;" x="357.629590711" xlink:href="#mf1e9a9e4ae" y="216.0"/>
     <use style="fill:#0000ff;stroke:#000000;stroke-width:0.5;" x="358.525925938" xlink:href="#mf1e9a9e4ae" y="216.0"/>
     <use style="fill:#0000ff;stroke:#000000;stroke-width:0.5;" x="359.431548112" xlink:href="#mf1e9a9e4ae" y="216.0"/>
     <use style="fill:#0000ff;stroke:#000000;stroke-width:0.5;" x="360.346788738" xlink:href="#mf1e9a9e4ae" y="216.0"/>
     <use style="fill:#0000ff;stroke:#000000;stroke-width:0.5;" x="361.271995854" xlink:href="#mf1e9a9e4ae" y="216.0"/>
     <use style="fill:#0000ff;stroke:#000000;stroke-width:0.5;" x="362.207535198" xlink:href="#mf1e9a9e4ae" y="216.0"/>
     <use style="fill:#0000ff;stroke:#000000;stroke-width:0.5;" x="363.15379148" xlink:href="#mf1e9a9e4ae" y="216.0"/>
     <use style="fill:#0000ff;stroke:#000000;stroke-width:0.5;" x="364.111169761" xlink:href="#mf1e9a9e4ae" y="216.0"/>
     <use style="fill:#0000ff;stroke:#000000;stroke-width:0.5;" x="365.080096975" xlink:href="#mf1e9a9e4ae" y="216.0"/>
     <use style="fill:#0000ff;stroke:#000000;stroke-width:0.5;" x="366.061023587" xlink:href="#mf1e9a9e4ae" y="216.0"/>
     <use style="fill:#0000ff;stroke:#000000;stroke-width:0.5;" x="367.05442541" xlink:href="#mf1e9a9e4ae" y="216.0"/>
     <use style="fill:#0000ff;stroke:#000000;stroke-width:0.5;" x="368.06080561" xlink:href="#mf1e9a9e4ae" y="210.24"/>
     <use style="fill:#0000ff;stroke:#000000;stroke-width:0.5;" x="369.080696908" xlink:href="#mf1e9a9e4ae" y="210.24"/>
     <use style="fill:#0000ff;stroke:#000000;stroke-width:0.5;" x="370.114664009" xlink:href="#mf1e9a9e4ae" y="210.24"/>
     <use style="fill:#0000ff;stroke:#000000;stroke-width:0.5;" x="371.163306293" xlink:href="#mf1e9a9e4ae" y="204.48"/>
     <use style="fill:#0000ff;stroke:#000000;stroke-width:0.5;" x="372.227260788" xlink:href="#mf1e9a9e4ae" y="204.48"/>
     <use style="fill:#0000ff;stroke:#000000;stroke-width:0.5;" x="373.307205477" xlink:href="#mf1e9a9e4ae" y="204.48"/>
     <use style="fill:#0000ff;stroke:#000000;stroke-width:0.5;" x="374.403862977" xlink:href="#mf1e9a9e4ae" y="204.48"/>
     <use style="fill:#0000ff;stroke:#000000;stroke-width:0.5;" x="375.518004645" xlink:href="#mf1e9a9e4ae" y="204.48"/>
     <use style="fill:#0000ff;stroke:#000000;stroke-width:0.5;" x="376.650455162" xlink:href="#mf1e9a9e4ae" y="192.96"/>
     <use style="fill:#0000ff;stroke:#000000;stroke-width:0.5;" x="377.802097685" xlink:href="#mf1e9a9e4ae" y="192.96"/>
     <use style="fill:#0000ff;stroke:#000000;stroke-width:0.5;" x="378.973879632" xlink:href="#mf1e9a9e4ae" y="192.96"/>
     <use style="fill:#0000ff;stroke:#000000;stroke-width:0.5;" x="380.166819209" xlink:href="#mf1e9a9e4ae" y="192.96"/>
     <use style="fill:#0000ff;stroke:#000000;stroke-width:0.5;" x="381.382012792" xlink:href="#mf1e9a9e4ae" y="192.96"/>
     <use style="fill:#0000ff;stroke:#000000;stroke-width:0.5;" x="382.620643306" xlink:href="#mf1e9a9e4ae" y="192.96"/>
     <use style="fill:#0000ff;stroke:#000000;stroke-width:0.5;" x="383.883989762" xlink:href="#mf1e9a9e4ae" y="187.2"/>
     <use style="fill:#0000ff;stroke:#000000;stroke-width:0.5;" x="385.173438165" xlink:href="#mf1e9a9e4ae" y="187.2"/>
     <use style="fill:#0000ff;stroke:#000000;stroke-width:0.5;" x="386.490494008" xlink:href="#mf1e9a9e4ae" y="184.32"/>
     <use style="fill:#0000ff;stroke:#000000;stroke-width:0.5;" x="387.836796682" xlink:href="#mf1e9a9e4ae" y="184.32"/>
     <use style="fill:#0000ff;stroke:#000000;stroke-width:0.5;" x="389.214136127" xlink:href="#mf1e9a9e4ae" y="181.44"/>
     <use style="fill:#0000ff;stroke:#000000;stroke-width:0.5;" x="390.624472178" xlink:href="#mf1e9a9e4ae" y="164.16"/>
     <use style="fill:#0000ff;stroke:#000000;stroke-width:0.5;" x="392.06995715" xlink:href="#mf1e9a9e4ae" y="158.4"/>
     <use style="fill:#0000ff;stroke:#000000;stroke-width:0.5;" x="393.552962335" xlink:href="#mf1e9a9e4ae" y="158.4"/>
     <use style="fill:#0000ff;stroke:#000000;stroke-width:0.5;" x="395.076109257" xlink:href="#mf1e9a9e4ae" y="158.4"/>
     <use style="fill:#0000ff;stroke:#000000;stroke-width:0.5;" x="396.642306755" xlink:href="#mf1e9a9e4ae" y="158.4"/>
     <use style="fill:#0000ff;stroke:#000000;stroke-width:0.5;" x="398.254795262" xlink:href="#mf1e9a9e4ae" y="158.4"/>
     <use style="fill:#0000ff;stroke:#000000;stroke-width:0.5;" x="399.917200018" xlink:href="#mf1e9a9e4ae" y="158.4"/>
     <use style="fill:#0000ff;stroke:#000000;stroke-width:0.5;" x="401.633595507" xlink:href="#mf1e9a9e4ae" y="158.4"/>
     <use style="fill:#0000ff;stroke:#000000;stroke-width:0.5;" x="403.408584075" xlink:href="#mf1e9a9e4ae" y="158.4"/>
     <use style="fill:#0000ff;stroke:#000000;stroke-width:0.5;" x="405.247392687" xlink:href="#mf1e9a9e4ae" y="158.4"/>
     <use style="fill:#0000ff;stroke:#000000;stroke-width:0.5;" x="407.155993114" xlink:href="#mf1e9a9e4ae" y="158.4"/>
     <use style="fill:#0000ff;stroke:#000000;stroke-width:0.5;" x="409.141252732" xlink:href="#mf1e9a9e4ae" y="141.12"/>
     <use style="fill:#0000ff;stroke:#000000;stroke-width:0.5;" x="411.211125876" xlink:href="#mf1e9a9e4ae" y="135.36"/>
     <use style="fill:#0000ff;stroke:#000000;stroke-width:0.5;" x="413.374899632" xlink:href="#mf1e9a9e4ae" y="135.36"/>
     <use style="fill:#0000ff;stroke:#000000;stroke-width:0.5;" x="415.643513909" xlink:href="#mf1e9a9e4ae" y="135.36"/>
     <use style="fill:#0000ff;stroke:#000000;stroke-width:0.5;" x="418.029984625" xlink:href="#mf1e9a9e4ae" y="129.6"/>
     <use style="fill:#0000ff;stroke:#000000;stroke-width:0.5;" x="420.549972884" xlink:href="#mf1e9a9e4ae" y="129.6"/>
     <use style="fill:#0000ff;stroke:#000000;stroke-width:0.5;" x="423.222565458" xlink:href="#mf1e9a9e4ae" y="123.84"/>
     <use style="fill:#0000ff;stroke:#000000;stroke-width:0.5;" x="426.071368912" xlink:href="#mf1e9a9e4ae" y="123.84"/>
     <use style="fill:#0000ff;stroke:#000000;stroke-width:0.5;" x="429.126082955" xlink:href="#mf1e9a9e4ae" y="100.8"/>
     <use style="fill:#0000ff;stroke:#000000;stroke-width:0.5;" x="432.424830977" xlink:href="#mf1e9a9e4ae" y="100.8"/>
     <use style="fill:#0000ff;stroke:#000000;stroke-width:0.5;" x="436.017735152" xlink:href="#mf1e9a9e4ae" y="100.8"/>
     <use style="fill:#0000ff;stroke:#000000;stroke-width:0.5;" x="439.97263603" xlink:href="#mf1e9a9e4ae" y="89.28"/>
     <use style="fill:#0000ff;stroke:#000000;stroke-width:0.5;" x="444.384725439" xlink:href="#mf1e9a9e4ae" y="89.28"/>
     <use style="fill:#0000ff;stroke:#000000;stroke-width:0.5;" x="449.39385025" xlink:href="#mf1e9a9e4ae" y="77.76"/>
     <use style="fill:#0000ff;stroke:#000000;stroke-width:0.5;" x="455.218301235" xlink:href="#mf1e9a9e4ae" y="72.0"/>
     <use style="fill:#0000ff;stroke:#000000;stroke-width:0.5;" x="462.228684929" xlink:href="#mf1e9a9e4ae" y="72.0"/>
     <use style="fill:#0000ff;stroke:#000000;stroke-width:0.5;" x="471.138079757" xlink:href="#mf1e9a9e4ae" y="54.72"/>
     <use style="fill:#0000ff;stroke:#000000;stroke-width:0.5;" x="483.639144818" xlink:href="#mf1e9a9e4ae" y="54.72"/>
     <use style="fill:#0000ff;stroke:#000000;stroke-width:0.5;" x="505.714109308" xlink:href="#mf1e9a9e4ae" y="54.72"/>
    </g>
   </g>
   <g id="line2d_2">
    <path clip-path="url(#p7ff5b81e1d)" d="
M84.6859 377.075
L505.714 109.519
L505.714 109.519" style="fill:none;stroke:#ff0000;stroke-linecap:square;"/>
   </g>
   <g id="matplotlib.axis_1">
    <g id="xtick_1">
     <g id="line2d_3">
      <defs>
       <path d="
M0 0
L0 -4" id="m93b0483c22" style="stroke:#000000;stroke-width:0.5;"/>
      </defs>
      <g>
       <use style="stroke:#000000;stroke-width:0.5;" x="72.0" xlink:href="#m93b0483c22" y="388.8"/>
      </g>
     </g>
     <g id="line2d_4">
      <defs>
       <path d="
M0 0
L0 4" id="m741efc42ff" style="stroke:#000000;stroke-width:0.5;"/>
      </defs>
      <g>
       <use style="stroke:#000000;stroke-width:0.5;" x="72.0" xlink:href="#m741efc42ff" y="43.2"/>
      </g>
     </g>
     <g id="text_1">
      <!-- −3 -->
      <defs>
       <path d="
M10.5938 35.5
L73.1875 35.5
L73.1875 27.2031
L10.5938 27.2031
z
" id="BitstreamVeraSans-Roman-2212"/>
       <path d="
M40.5781 39.3125
Q47.6562 37.7969 51.625 33
Q55.6094 28.2188 55.6094 21.1875
Q55.6094 10.4062 48.1875 4.48438
Q40.7656 -1.42188 27.0938 -1.42188
Q22.5156 -1.42188 17.6562 -0.515625
Q12.7969 0.390625 7.625 2.20312
L7.625 11.7188
Q11.7188 9.32812 16.5938 8.10938
Q21.4844 6.89062 26.8125 6.89062
Q36.0781 6.89062 40.9375 10.5469
Q45.7969 14.2031 45.7969 21.1875
Q45.7969 27.6406 41.2812 31.2656
Q36.7656 34.9062 28.7188 34.9062
L20.2188 34.9062
L20.2188 43.0156
L29.1094 43.0156
Q36.375 43.0156 40.2344 45.9219
Q44.0938 48.8281 44.0938 54.2969
Q44.0938 59.9062 40.1094 62.9062
Q36.1406 65.9219 28.7188 65.9219
Q24.6562 65.9219 20.0156 65.0312
Q15.375 64.1562 9.8125 62.3125
L9.8125 71.0938
Q15.4375 72.6562 20.3438 73.4375
Q25.25 74.2188 29.5938 74.2188
Q40.8281 74.2188 47.3594 69.1094
Q53.9062 64.0156 53.9062 55.3281
Q53.9062 49.2656 50.4375 45.0938
Q46.9688 40.9219 40.5781 39.3125" id="BitstreamVeraSans-Roman-33"/>
      </defs>
      <g transform="translate(64.27125 401.918125)scale(0.12 -0.12)">
       <use xlink:href="#BitstreamVeraSans-Roman-2212"/>
       <use x="83.7890625" xlink:href="#BitstreamVeraSans-Roman-33"/>
      </g>
     </g>
    </g>
    <g id="xtick_2">
     <g id="line2d_5">
      <g>
       <use style="stroke:#000000;stroke-width:0.5;" x="146.4" xlink:href="#m93b0483c22" y="388.8"/>
      </g>
     </g>
     <g id="line2d_6">
      <g>
       <use style="stroke:#000000;stroke-width:0.5;" x="146.4" xlink:href="#m741efc42ff" y="43.2"/>
      </g>
     </g>
     <g id="text_2">
      <!-- −2 -->
      <defs>
       <path d="
M19.1875 8.29688
L53.6094 8.29688
L53.6094 0
L7.32812 0
L7.32812 8.29688
Q12.9375 14.1094 22.625 23.8906
Q32.3281 33.6875 34.8125 36.5312
Q39.5469 41.8438 41.4219 45.5312
Q43.3125 49.2188 43.3125 52.7812
Q43.3125 58.5938 39.2344 62.25
Q35.1562 65.9219 28.6094 65.9219
Q23.9688 65.9219 18.8125 64.3125
Q13.6719 62.7031 7.8125 59.4219
L7.8125 69.3906
Q13.7656 71.7812 18.9375 73
Q24.125 74.2188 28.4219 74.2188
Q39.75 74.2188 46.4844 68.5469
Q53.2188 62.8906 53.2188 53.4219
Q53.2188 48.9219 51.5312 44.8906
Q49.8594 40.875 45.4062 35.4062
Q44.1875 33.9844 37.6406 27.2188
Q31.1094 20.4531 19.1875 8.29688" id="BitstreamVeraSans-Roman-32"/>
      </defs>
      <g transform="translate(138.79125 401.918125)scale(0.12 -0.12)">
       <use xlink:href="#BitstreamVeraSans-Roman-2212"/>
       <use x="83.7890625" xlink:href="#BitstreamVeraSans-Roman-32"/>
      </g>
     </g>
    </g>
    <g id="xtick_3">
     <g id="line2d_7">
      <g>
       <use style="stroke:#000000;stroke-width:0.5;" x="220.8" xlink:href="#m93b0483c22" y="388.8"/>
      </g>
     </g>
     <g id="line2d_8">
      <g>
       <use style="stroke:#000000;stroke-width:0.5;" x="220.8" xlink:href="#m741efc42ff" y="43.2"/>
      </g>
     </g>
     <g id="text_3">
      <!-- −1 -->
      <defs>
       <path d="
M12.4062 8.29688
L28.5156 8.29688
L28.5156 63.9219
L10.9844 60.4062
L10.9844 69.3906
L28.4219 72.9062
L38.2812 72.9062
L38.2812 8.29688
L54.3906 8.29688
L54.3906 0
L12.4062 0
z
" id="BitstreamVeraSans-Roman-31"/>
      </defs>
      <g transform="translate(213.144375 401.918125)scale(0.12 -0.12)">
       <use xlink:href="#BitstreamVeraSans-Roman-2212"/>
       <use x="83.7890625" xlink:href="#BitstreamVeraSans-Roman-31"/>
      </g>
     </g>
    </g>
    <g id="xtick_4">
     <g id="line2d_9">
      <g>
       <use style="stroke:#000000;stroke-width:0.5;" x="295.2" xlink:href="#m93b0483c22" y="388.8"/>
      </g>
     </g>
     <g id="line2d_10">
      <g>
       <use style="stroke:#000000;stroke-width:0.5;" x="295.2" xlink:href="#m741efc42ff" y="43.2"/>
      </g>
     </g>
     <g id="text_4">
      <!-- 0 -->
      <defs>
       <path d="
M31.7812 66.4062
Q24.1719 66.4062 20.3281 58.9062
Q16.5 51.4219 16.5 36.375
Q16.5 21.3906 20.3281 13.8906
Q24.1719 6.39062 31.7812 6.39062
Q39.4531 6.39062 43.2812 13.8906
Q47.125 21.3906 47.125 36.375
Q47.125 51.4219 43.2812 58.9062
Q39.4531 66.4062 31.7812 66.4062
M31.7812 74.2188
Q44.0469 74.2188 50.5156 64.5156
Q56.9844 54.8281 56.9844 36.375
Q56.9844 17.9688 50.5156 8.26562
Q44.0469 -1.42188 31.7812 -1.42188
Q19.5312 -1.42188 13.0625 8.26562
Q6.59375 17.9688 6.59375 36.375
Q6.59375 54.8281 13.0625 64.5156
Q19.5312 74.2188 31.7812 74.2188" id="BitstreamVeraSans-Roman-30"/>
      </defs>
      <g transform="translate(292.1765625 401.918125)scale(0.12 -0.12)">
       <use xlink:href="#BitstreamVeraSans-Roman-30"/>
      </g>
     </g>
    </g>
    <g id="xtick_5">
     <g id="line2d_11">
      <g>
       <use style="stroke:#000000;stroke-width:0.5;" x="369.6" xlink:href="#m93b0483c22" y="388.8"/>
      </g>
     </g>
     <g id="line2d_12">
      <g>
       <use style="stroke:#000000;stroke-width:0.5;" x="369.6" xlink:href="#m741efc42ff" y="43.2"/>
      </g>
     </g>
     <g id="text_5">
      <!-- 1 -->
      <g transform="translate(366.995625 401.918125)scale(0.12 -0.12)">
       <use xlink:href="#BitstreamVeraSans-Roman-31"/>
      </g>
     </g>
    </g>
    <g id="xtick_6">
     <g id="line2d_13">
      <g>
       <use style="stroke:#000000;stroke-width:0.5;" x="444.0" xlink:href="#m93b0483c22" y="388.8"/>
      </g>
     </g>
     <g id="line2d_14">
      <g>
       <use style="stroke:#000000;stroke-width:0.5;" x="444.0" xlink:href="#m741efc42ff" y="43.2"/>
      </g>
     </g>
     <g id="text_6">
      <!-- 2 -->
      <g transform="translate(441.223125 401.918125)scale(0.12 -0.12)">
       <use xlink:href="#BitstreamVeraSans-Roman-32"/>
      </g>
     </g>
    </g>
    <g id="xtick_7">
     <g id="line2d_15">
      <g>
       <use style="stroke:#000000;stroke-width:0.5;" x="518.4" xlink:href="#m93b0483c22" y="388.8"/>
      </g>
     </g>
     <g id="line2d_16">
      <g>
       <use style="stroke:#000000;stroke-width:0.5;" x="518.4" xlink:href="#m741efc42ff" y="43.2"/>
      </g>
     </g>
     <g id="text_7">
      <!-- 3 -->
      <g transform="translate(515.5209375 401.918125)scale(0.12 -0.12)">
       <use xlink:href="#BitstreamVeraSans-Roman-33"/>
      </g>
     </g>
    </g>
    <g id="text_8">
     <!-- Quantiles -->
     <defs>
      <path d="
M54.8906 33.0156
L54.8906 0
L45.9062 0
L45.9062 32.7188
Q45.9062 40.4844 42.875 44.3281
Q39.8438 48.1875 33.7969 48.1875
Q26.5156 48.1875 22.3125 43.5469
Q18.1094 38.9219 18.1094 30.9062
L18.1094 0
L9.07812 0
L9.07812 54.6875
L18.1094 54.6875
L18.1094 46.1875
Q21.3438 51.125 25.7031 53.5625
Q30.0781 56 35.7969 56
Q45.2188 56 50.0469 50.1719
Q54.8906 44.3438 54.8906 33.0156" id="BitstreamVeraSans-Roman-6e"/>
      <path d="
M9.42188 75.9844
L18.4062 75.9844
L18.4062 0
L9.42188 0
z
" id="BitstreamVeraSans-Roman-6c"/>
      <path d="
M39.4062 66.2188
Q28.6562 66.2188 22.3281 58.2031
Q16.0156 50.2031 16.0156 36.375
Q16.0156 22.6094 22.3281 14.5938
Q28.6562 6.59375 39.4062 6.59375
Q50.1406 6.59375 56.4219 14.5938
Q62.7031 22.6094 62.7031 36.375
Q62.7031 50.2031 56.4219 58.2031
Q50.1406 66.2188 39.4062 66.2188
M53.2188 1.3125
L66.2188 -12.8906
L54.2969 -12.8906
L43.5 -1.21875
Q41.8906 -1.3125 41.0312 -1.35938
Q40.1875 -1.42188 39.4062 -1.42188
Q24.0312 -1.42188 14.8125 8.85938
Q5.60938 19.1406 5.60938 36.375
Q5.60938 53.6562 14.8125 63.9375
Q24.0312 74.2188 39.4062 74.2188
Q54.7344 74.2188 63.9062 63.9375
Q73.0938 53.6562 73.0938 36.375
Q73.0938 23.6875 67.9844 14.6406
Q62.8906 5.60938 53.2188 1.3125" id="BitstreamVeraSans-Roman-51"/>
      <path d="
M9.42188 54.6875
L18.4062 54.6875
L18.4062 0
L9.42188 0
z

M9.42188 75.9844
L18.4062 75.9844
L18.4062 64.5938
L9.42188 64.5938
z
" id="BitstreamVeraSans-Roman-69"/>
      <path d="
M56.2031 29.5938
L56.2031 25.2031
L14.8906 25.2031
Q15.4844 15.9219 20.4844 11.0625
Q25.4844 6.20312 34.4219 6.20312
Q39.5938 6.20312 44.4531 7.46875
Q49.3125 8.73438 54.1094 11.2812
L54.1094 2.78125
Q49.2656 0.734375 44.1875 -0.34375
Q39.1094 -1.42188 33.8906 -1.42188
Q20.7969 -1.42188 13.1562 6.1875
Q5.51562 13.8125 5.51562 26.8125
Q5.51562 40.2344 12.7656 48.1094
Q20.0156 56 32.3281 56
Q43.3594 56 49.7812 48.8906
Q56.2031 41.7969 56.2031 29.5938
M47.2188 32.2344
Q47.125 39.5938 43.0938 43.9844
Q39.0625 48.3906 32.4219 48.3906
Q24.9062 48.3906 20.3906 44.1406
Q15.875 39.8906 15.1875 32.1719
z
" id="BitstreamVeraSans-Roman-65"/>
      <path d="
M18.3125 70.2188
L18.3125 54.6875
L36.8125 54.6875
L36.8125 47.7031
L18.3125 47.7031
L18.3125 18.0156
Q18.3125 11.3281 20.1406 9.42188
Q21.9688 7.51562 27.5938 7.51562
L36.8125 7.51562
L36.8125 0
L27.5938 0
Q17.1875 0 13.2344 3.875
Q9.28125 7.76562 9.28125 18.0156
L9.28125 47.7031
L2.6875 47.7031
L2.6875 54.6875
L9.28125 54.6875
L9.28125 70.2188
z
" id="BitstreamVeraSans-Roman-74"/>
      <path d="
M8.5 21.5781
L8.5 54.6875
L17.4844 54.6875
L17.4844 21.9219
Q17.4844 14.1562 20.5 10.2656
Q23.5312 6.39062 29.5938 6.39062
Q36.8594 6.39062 41.0781 11.0312
Q45.3125 15.6719 45.3125 23.6875
L45.3125 54.6875
L54.2969 54.6875
L54.2969 0
L45.3125 0
L45.3125 8.40625
Q42.0469 3.42188 37.7188 1
Q33.4062 -1.42188 27.6875 -1.42188
Q18.2656 -1.42188 13.375 4.4375
Q8.5 10.2969 8.5 21.5781" id="BitstreamVeraSans-Roman-75"/>
      <path d="
M34.2812 27.4844
Q23.3906 27.4844 19.1875 25
Q14.9844 22.5156 14.9844 16.5
Q14.9844 11.7188 18.1406 8.90625
Q21.2969 6.10938 26.7031 6.10938
Q34.1875 6.10938 38.7031 11.4062
Q43.2188 16.7031 43.2188 25.4844
L43.2188 27.4844
z

M52.2031 31.2031
L52.2031 0
L43.2188 0
L43.2188 8.29688
Q40.1406 3.32812 35.5469 0.953125
Q30.9531 -1.42188 24.3125 -1.42188
Q15.9219 -1.42188 10.9531 3.29688
Q6 8.01562 6 15.9219
Q6 25.1406 12.1719 29.8281
Q18.3594 34.5156 30.6094 34.5156
L43.2188 34.5156
L43.2188 35.4062
Q43.2188 41.6094 39.1406 45
Q35.0625 48.3906 27.6875 48.3906
Q23 48.3906 18.5469 47.2656
Q14.1094 46.1406 10.0156 43.8906
L10.0156 52.2031
Q14.9375 54.1094 19.5781 55.0469
Q24.2188 56 28.6094 56
Q40.4844 56 46.3438 49.8438
Q52.2031 43.7031 52.2031 31.2031" id="BitstreamVeraSans-Roman-61"/>
      <path d="
M44.2812 53.0781
L44.2812 44.5781
Q40.4844 46.5312 36.375 47.5
Q32.2812 48.4844 27.875 48.4844
Q21.1875 48.4844 17.8438 46.4375
Q14.5 44.3906 14.5 40.2812
Q14.5 37.1562 16.8906 35.375
Q19.2812 33.5938 26.5156 31.9844
L29.5938 31.2969
Q39.1562 29.25 43.1875 25.5156
Q47.2188 21.7812 47.2188 15.0938
Q47.2188 7.46875 41.1875 3.01562
Q35.1562 -1.42188 24.6094 -1.42188
Q20.2188 -1.42188 15.4531 -0.5625
Q10.6875 0.296875 5.42188 2
L5.42188 11.2812
Q10.4062 8.6875 15.2344 7.39062
Q20.0625 6.10938 24.8125 6.10938
Q31.1562 6.10938 34.5625 8.28125
Q37.9844 10.4531 37.9844 14.4062
Q37.9844 18.0625 35.5156 20.0156
Q33.0625 21.9688 24.7031 23.7812
L21.5781 24.5156
Q13.2344 26.2656 9.51562 29.9062
Q5.8125 33.5469 5.8125 39.8906
Q5.8125 47.6094 11.2812 51.7969
Q16.75 56 26.8125 56
Q31.7812 56 36.1719 55.2656
Q40.5781 54.5469 44.2812 53.0781" id="BitstreamVeraSans-Roman-73"/>
     </defs>
     <g transform="translate(267.320625 418.531875)scale(0.12 -0.12)">
      <use xlink:href="#BitstreamVeraSans-Roman-51"/>
      <use x="78.7109375" xlink:href="#BitstreamVeraSans-Roman-75"/>
      <use x="142.08984375" xlink:href="#BitstreamVeraSans-Roman-61"/>
      <use x="203.369140625" xlink:href="#BitstreamVeraSans-Roman-6e"/>
      <use x="266.748046875" xlink:href="#BitstreamVeraSans-Roman-74"/>
      <use x="305.95703125" xlink:href="#BitstreamVeraSans-Roman-69"/>
      <use x="333.740234375" xlink:href="#BitstreamVeraSans-Roman-6c"/>
      <use x="361.5234375" xlink:href="#BitstreamVeraSans-Roman-65"/>
      <use x="423.046875" xlink:href="#BitstreamVeraSans-Roman-73"/>
     </g>
    </g>
   </g>
   <g id="matplotlib.axis_2">
    <g id="ytick_1">
     <g id="line2d_17">
      <defs>
       <path d="
M0 0
L4 0" id="m728421d6d4" style="stroke:#000000;stroke-width:0.5;"/>
      </defs>
      <g>
       <use style="stroke:#000000;stroke-width:0.5;" x="72.0" xlink:href="#m728421d6d4" y="388.8"/>
      </g>
     </g>
     <g id="line2d_18">
      <defs>
       <path d="
M0 0
L-4 0" id="mcb0005524f" style="stroke:#000000;stroke-width:0.5;"/>
      </defs>
      <g>
       <use style="stroke:#000000;stroke-width:0.5;" x="518.4" xlink:href="#mcb0005524f" y="388.8"/>
      </g>
     </g>
     <g id="text_9">
      <!-- −20 -->
      <g transform="translate(44.7425 392.11125)scale(0.12 -0.12)">
       <use xlink:href="#BitstreamVeraSans-Roman-2212"/>
       <use x="83.7890625" xlink:href="#BitstreamVeraSans-Roman-32"/>
       <use x="147.412109375" xlink:href="#BitstreamVeraSans-Roman-30"/>
      </g>
     </g>
    </g>
    <g id="ytick_2">
     <g id="line2d_19">
      <g>
       <use style="stroke:#000000;stroke-width:0.5;" x="72.0" xlink:href="#m728421d6d4" y="331.2"/>
      </g>
     </g>
     <g id="line2d_20">
      <g>
       <use style="stroke:#000000;stroke-width:0.5;" x="518.4" xlink:href="#mcb0005524f" y="331.2"/>
      </g>
     </g>
     <g id="text_10">
      <!-- 0 -->
      <g transform="translate(61.953125 334.51125)scale(0.12 -0.12)">
       <use xlink:href="#BitstreamVeraSans-Roman-30"/>
      </g>
     </g>
    </g>
    <g id="ytick_3">
     <g id="line2d_21">
      <g>
       <use style="stroke:#000000;stroke-width:0.5;" x="72.0" xlink:href="#m728421d6d4" y="273.6"/>
      </g>
     </g>
     <g id="line2d_22">
      <g>
       <use style="stroke:#000000;stroke-width:0.5;" x="518.4" xlink:href="#mcb0005524f" y="273.6"/>
      </g>
     </g>
     <g id="text_11">
      <!-- 20 -->
      <g transform="translate(54.40625 276.91125)scale(0.12 -0.12)">
       <use xlink:href="#BitstreamVeraSans-Roman-32"/>
       <use x="63.623046875" xlink:href="#BitstreamVeraSans-Roman-30"/>
      </g>
     </g>
    </g>
    <g id="ytick_4">
     <g id="line2d_23">
      <g>
       <use style="stroke:#000000;stroke-width:0.5;" x="72.0" xlink:href="#m728421d6d4" y="216.0"/>
      </g>
     </g>
     <g id="line2d_24">
      <g>
       <use style="stroke:#000000;stroke-width:0.5;" x="518.4" xlink:href="#mcb0005524f" y="216.0"/>
      </g>
     </g>
     <g id="text_12">
      <!-- 40 -->
      <defs>
       <path d="
M37.7969 64.3125
L12.8906 25.3906
L37.7969 25.3906
z

M35.2031 72.9062
L47.6094 72.9062
L47.6094 25.3906
L58.0156 25.3906
L58.0156 17.1875
L47.6094 17.1875
L47.6094 0
L37.7969 0
L37.7969 17.1875
L4.89062 17.1875
L4.89062 26.7031
z
" id="BitstreamVeraSans-Roman-34"/>
      </defs>
      <g transform="translate(54.11375 219.31125)scale(0.12 -0.12)">
       <use xlink:href="#BitstreamVeraSans-Roman-34"/>
       <use x="63.623046875" xlink:href="#BitstreamVeraSans-Roman-30"/>
      </g>
     </g>
    </g>
    <g id="ytick_5">
     <g id="line2d_25">
      <g>
       <use style="stroke:#000000;stroke-width:0.5;" x="72.0" xlink:href="#m728421d6d4" y="158.4"/>
      </g>
     </g>
     <g id="line2d_26">
      <g>
       <use style="stroke:#000000;stroke-width:0.5;" x="518.4" xlink:href="#mcb0005524f" y="158.4"/>
      </g>
     </g>
     <g id="text_13">
      <!-- 60 -->
      <defs>
       <path d="
M33.0156 40.375
Q26.375 40.375 22.4844 35.8281
Q18.6094 31.2969 18.6094 23.3906
Q18.6094 15.5312 22.4844 10.9531
Q26.375 6.39062 33.0156 6.39062
Q39.6562 6.39062 43.5312 10.9531
Q47.4062 15.5312 47.4062 23.3906
Q47.4062 31.2969 43.5312 35.8281
Q39.6562 40.375 33.0156 40.375
M52.5938 71.2969
L52.5938 62.3125
Q48.875 64.0625 45.0938 64.9844
Q41.3125 65.9219 37.5938 65.9219
Q27.8281 65.9219 22.6719 59.3281
Q17.5312 52.7344 16.7969 39.4062
Q19.6719 43.6562 24.0156 45.9219
Q28.375 48.1875 33.5938 48.1875
Q44.5781 48.1875 50.9531 41.5156
Q57.3281 34.8594 57.3281 23.3906
Q57.3281 12.1562 50.6875 5.35938
Q44.0469 -1.42188 33.0156 -1.42188
Q20.3594 -1.42188 13.6719 8.26562
Q6.98438 17.9688 6.98438 36.375
Q6.98438 53.6562 15.1875 63.9375
Q23.3906 74.2188 37.2031 74.2188
Q40.9219 74.2188 44.7031 73.4844
Q48.4844 72.75 52.5938 71.2969" id="BitstreamVeraSans-Roman-36"/>
      </defs>
      <g transform="translate(54.365 161.71125)scale(0.12 -0.12)">
       <use xlink:href="#BitstreamVeraSans-Roman-36"/>
       <use x="63.623046875" xlink:href="#BitstreamVeraSans-Roman-30"/>
      </g>
     </g>
    </g>
    <g id="ytick_6">
     <g id="line2d_27">
      <g>
       <use style="stroke:#000000;stroke-width:0.5;" x="72.0" xlink:href="#m728421d6d4" y="100.8"/>
      </g>
     </g>
     <g id="line2d_28">
      <g>
       <use style="stroke:#000000;stroke-width:0.5;" x="518.4" xlink:href="#mcb0005524f" y="100.8"/>
      </g>
     </g>
     <g id="text_14">
      <!-- 80 -->
      <defs>
       <path d="
M31.7812 34.625
Q24.75 34.625 20.7188 30.8594
Q16.7031 27.0938 16.7031 20.5156
Q16.7031 13.9219 20.7188 10.1562
Q24.75 6.39062 31.7812 6.39062
Q38.8125 6.39062 42.8594 10.1719
Q46.9219 13.9688 46.9219 20.5156
Q46.9219 27.0938 42.8906 30.8594
Q38.875 34.625 31.7812 34.625
M21.9219 38.8125
Q15.5781 40.375 12.0312 44.7188
Q8.5 49.0781 8.5 55.3281
Q8.5 64.0625 14.7188 69.1406
Q20.9531 74.2188 31.7812 74.2188
Q42.6719 74.2188 48.875 69.1406
Q55.0781 64.0625 55.0781 55.3281
Q55.0781 49.0781 51.5312 44.7188
Q48 40.375 41.7031 38.8125
Q48.8281 37.1562 52.7969 32.3125
Q56.7812 27.4844 56.7812 20.5156
Q56.7812 9.90625 50.3125 4.23438
Q43.8438 -1.42188 31.7812 -1.42188
Q19.7344 -1.42188 13.25 4.23438
Q6.78125 9.90625 6.78125 20.5156
Q6.78125 27.4844 10.7812 32.3125
Q14.7969 37.1562 21.9219 38.8125
M18.3125 54.3906
Q18.3125 48.7344 21.8438 45.5625
Q25.3906 42.3906 31.7812 42.3906
Q38.1406 42.3906 41.7188 45.5625
Q45.3125 48.7344 45.3125 54.3906
Q45.3125 60.0625 41.7188 63.2344
Q38.1406 66.4062 31.7812 66.4062
Q25.3906 66.4062 21.8438 63.2344
Q18.3125 60.0625 18.3125 54.3906" id="BitstreamVeraSans-Roman-38"/>
      </defs>
      <g transform="translate(54.340625 104.11125)scale(0.12 -0.12)">
       <use xlink:href="#BitstreamVeraSans-Roman-38"/>
       <use x="63.623046875" xlink:href="#BitstreamVeraSans-Roman-30"/>
      </g>
     </g>
    </g>
    <g id="ytick_7">
     <g id="line2d_29">
      <g>
       <use style="stroke:#000000;stroke-width:0.5;" x="72.0" xlink:href="#m728421d6d4" y="43.2"/>
      </g>
     </g>
     <g id="line2d_30">
      <g>
       <use style="stroke:#000000;stroke-width:0.5;" x="518.4" xlink:href="#mcb0005524f" y="43.2"/>
      </g>
     </g>
     <g id="text_15">
      <!-- 100 -->
      <g transform="translate(47.21 46.51125)scale(0.12 -0.12)">
       <use xlink:href="#BitstreamVeraSans-Roman-31"/>
       <use x="63.623046875" xlink:href="#BitstreamVeraSans-Roman-30"/>
       <use x="127.24609375" xlink:href="#BitstreamVeraSans-Roman-30"/>
      </g>
     </g>
    </g>
    <g id="text_16">
     <!-- Ordered Values -->
     <defs>
      <path id="BitstreamVeraSans-Roman-20"/>
      <path d="
M39.4062 66.2188
Q28.6562 66.2188 22.3281 58.2031
Q16.0156 50.2031 16.0156 36.375
Q16.0156 22.6094 22.3281 14.5938
Q28.6562 6.59375 39.4062 6.59375
Q50.1406 6.59375 56.4219 14.5938
Q62.7031 22.6094 62.7031 36.375
Q62.7031 50.2031 56.4219 58.2031
Q50.1406 66.2188 39.4062 66.2188
M39.4062 74.2188
Q54.7344 74.2188 63.9062 63.9375
Q73.0938 53.6562 73.0938 36.375
Q73.0938 19.1406 63.9062 8.85938
Q54.7344 -1.42188 39.4062 -1.42188
Q24.0312 -1.42188 14.8125 8.82812
Q5.60938 19.0938 5.60938 36.375
Q5.60938 53.6562 14.8125 63.9375
Q24.0312 74.2188 39.4062 74.2188" id="BitstreamVeraSans-Roman-4f"/>
      <path d="
M41.1094 46.2969
Q39.5938 47.1719 37.8125 47.5781
Q36.0312 48 33.8906 48
Q26.2656 48 22.1875 43.0469
Q18.1094 38.0938 18.1094 28.8125
L18.1094 0
L9.07812 0
L9.07812 54.6875
L18.1094 54.6875
L18.1094 46.1875
Q20.9531 51.1719 25.4844 53.5781
Q30.0312 56 36.5312 56
Q37.4531 56 38.5781 55.875
Q39.7031 55.7656 41.0625 55.5156
z
" id="BitstreamVeraSans-Roman-72"/>
      <path d="
M28.6094 0
L0.78125 72.9062
L11.0781 72.9062
L34.1875 11.5312
L57.3281 72.9062
L67.5781 72.9062
L39.7969 0
z
" id="BitstreamVeraSans-Roman-56"/>
      <path d="
M45.4062 46.3906
L45.4062 75.9844
L54.3906 75.9844
L54.3906 0
L45.4062 0
L45.4062 8.20312
Q42.5781 3.32812 38.25 0.953125
Q33.9375 -1.42188 27.875 -1.42188
Q17.9688 -1.42188 11.7344 6.48438
Q5.51562 14.4062 5.51562 27.2969
Q5.51562 40.1875 11.7344 48.0938
Q17.9688 56 27.875 56
Q33.9375 56 38.25 53.625
Q42.5781 51.2656 45.4062 46.3906
M14.7969 27.2969
Q14.7969 17.3906 18.875 11.75
Q22.9531 6.10938 30.0781 6.10938
Q37.2031 6.10938 41.2969 11.75
Q45.4062 17.3906 45.4062 27.2969
Q45.4062 37.2031 41.2969 42.8438
Q37.2031 48.4844 30.0781 48.4844
Q22.9531 48.4844 18.875 42.8438
Q14.7969 37.2031 14.7969 27.2969" id="BitstreamVeraSans-Roman-64"/>
     </defs>
     <g transform="translate(37.246875 261.635625)rotate(-90.0)scale(0.12 -0.12)">
      <use xlink:href="#BitstreamVeraSans-Roman-4f"/>
      <use x="78.7109375" xlink:href="#BitstreamVeraSans-Roman-72"/>
      <use x="118.07421875" xlink:href="#BitstreamVeraSans-Roman-64"/>
      <use x="181.55078125" xlink:href="#BitstreamVeraSans-Roman-65"/>
      <use x="243.07421875" xlink:href="#BitstreamVeraSans-Roman-72"/>
      <use x="281.9375" xlink:href="#BitstreamVeraSans-Roman-65"/>
      <use x="343.4609375" xlink:href="#BitstreamVeraSans-Roman-64"/>
      <use x="406.9375" xlink:href="#BitstreamVeraSans-Roman-20"/>
      <use x="438.724609375" xlink:href="#BitstreamVeraSans-Roman-56"/>
      <use x="499.3828125" xlink:href="#BitstreamVeraSans-Roman-61"/>
      <use x="560.662109375" xlink:href="#BitstreamVeraSans-Roman-6c"/>
      <use x="588.4453125" xlink:href="#BitstreamVeraSans-Roman-75"/>
      <use x="651.82421875" xlink:href="#BitstreamVeraSans-Roman-65"/>
      <use x="713.34765625" xlink:href="#BitstreamVeraSans-Roman-73"/>
     </g>
    </g>
   </g>
   <g id="patch_3">
    <path d="
M72 43.2
L518.4 43.2" style="fill:none;stroke:#000000;"/>
   </g>
   <g id="patch_4">
    <path d="
M518.4 388.8
L518.4 43.2" style="fill:none;stroke:#000000;"/>
   </g>
   <g id="patch_5">
    <path d="
M72 388.8
L518.4 388.8" style="fill:none;stroke:#000000;"/>
   </g>
   <g id="patch_6">
    <path d="
M72 388.8
L72 43.2" style="fill:none;stroke:#000000;"/>
   </g>
   <g id="text_17">
    <!-- $R^2=0.8524$ -->
    <defs>
     <path d="
M4.98438 0
L4.98438 2.6875
Q4.98438 2.9375 5.17188 3.21875
L20.7031 20.4062
Q24.2188 24.2188 26.4062 26.7969
Q28.6094 29.3906 30.75 32.7656
Q32.9062 36.1406 34.1562 39.625
Q35.4062 43.1094 35.4062 47.0156
Q35.4062 51.125 33.8906 54.8594
Q32.375 58.5938 29.375 60.8438
Q26.375 63.0938 22.125 63.0938
Q17.7812 63.0938 14.3125 60.4688
Q10.8438 57.8594 9.42188 53.7188
Q9.8125 53.8125 10.5 53.8125
Q12.75 53.8125 14.3281 52.2969
Q15.9219 50.7812 15.9219 48.3906
Q15.9219 46.0938 14.3281 44.5
Q12.75 42.9219 10.5 42.9219
Q8.15625 42.9219 6.5625 44.5469
Q4.98438 46.1875 4.98438 48.3906
Q4.98438 52.1562 6.39062 55.4375
Q7.8125 58.7344 10.4688 61.2969
Q13.1406 63.875 16.4844 65.2344
Q19.8281 66.6094 23.5781 66.6094
Q29.2969 66.6094 34.2188 64.1875
Q39.1562 61.7656 42.0312 57.3438
Q44.9219 52.9375 44.9219 47.0156
Q44.9219 42.6719 43.0156 38.7656
Q41.1094 34.8594 38.125 31.6562
Q35.1562 28.4688 30.5156 24.4062
Q25.875 20.3594 24.4219 19
L13.0938 8.10938
L22.7031 8.10938
Q29.7812 8.10938 34.5469 8.21875
Q39.3125 8.34375 39.5938 8.59375
Q40.7656 9.85938 42 17.8281
L44.9219 17.8281
L42.0938 0
z
" id="Cmr10-32"/>
     <path d="
M25 -2.20312
Q12.75 -2.20312 8.32812 7.875
Q3.90625 17.9688 3.90625 31.8906
Q3.90625 40.5781 5.48438 48.2344
Q7.07812 55.9062 11.7812 61.25
Q16.5 66.6094 25 66.6094
Q31.5938 66.6094 35.7812 63.375
Q39.9844 60.1562 42.1875 55.0469
Q44.3906 49.9531 45.1875 44.1094
Q46 38.2812 46 31.8906
Q46 23.2969 44.4062 15.7969
Q42.8281 8.29688 38.1875 3.04688
Q33.5469 -2.20312 25 -2.20312
M25 0.390625
Q30.5625 0.390625 33.2969 6.09375
Q36.0312 11.8125 36.6719 18.75
Q37.3125 25.6875 37.3125 33.5
Q37.3125 41.0156 36.6719 47.3594
Q36.0312 53.7188 33.3125 58.8594
Q30.6094 64.0156 25 64.0156
Q19.3438 64.0156 16.6094 58.8281
Q13.875 53.6562 13.2344 47.3281
Q12.5938 41.0156 12.5938 33.5
Q12.5938 27.9375 12.8594 23
Q13.1406 18.0625 14.3125 12.8125
Q15.4844 7.5625 18.0938 3.96875
Q20.7031 0.390625 25 0.390625" id="Cmr10-30"/>
     <path d="
M8.6875 11.375
Q9.71875 8.45312 11.8438 6.04688
Q13.9688 3.65625 16.875 2.3125
Q19.7812 0.984375 22.9062 0.984375
Q30.125 0.984375 32.8594 6.59375
Q35.5938 12.2031 35.5938 20.2188
Q35.5938 23.6875 35.4688 26.0469
Q35.3594 28.4219 34.8125 30.6094
Q33.8906 34.125 31.5625 36.7656
Q29.25 39.4062 25.875 39.4062
Q22.5156 39.4062 20.0938 38.375
Q17.6719 37.3594 16.1562 35.9844
Q14.6562 34.625 13.4844 33.1094
Q12.3125 31.5938 12.0156 31.5
L10.8906 31.5
Q10.6406 31.5 10.2656 31.8125
Q9.90625 32.125 9.90625 32.4219
L9.90625 65.8281
Q9.90625 66.0625 10.2188 66.3281
Q10.5469 66.6094 10.8906 66.6094
L11.1875 66.6094
Q17.9219 63.375 25.4844 63.375
Q32.9062 63.375 39.7969 66.6094
L40.0938 66.6094
Q40.4375 66.6094 40.7188 66.3594
Q41.0156 66.1094 41.0156 65.8281
L41.0156 64.8906
Q41.0156 64.4062 40.8281 64.4062
Q37.4062 59.8594 32.25 57.3125
Q27.0938 54.7812 21.5781 54.7812
Q17.5781 54.7812 13.375 55.9062
L13.375 37.0156
Q16.7031 39.7031 19.3125 40.8438
Q21.9219 42 25.9844 42
Q31.5 42 35.8594 38.8125
Q40.2344 35.6406 42.5781 30.5312
Q44.9219 25.4375 44.9219 20.125
Q44.9219 14.1094 41.9688 8.98438
Q39.0156 3.85938 33.9375 0.828125
Q28.8594 -2.20312 22.9062 -2.20312
Q17.9688 -2.20312 13.8438 0.328125
Q9.71875 2.875 7.34375 7.17188
Q4.98438 11.4688 4.98438 16.3125
Q4.98438 18.5625 6.4375 19.9688
Q7.90625 21.3906 10.1094 21.3906
Q12.3125 21.3906 13.7969 19.9375
Q15.2812 18.5 15.2812 16.3125
Q15.2812 14.1562 13.7969 12.6719
Q12.3125 11.1875 10.1094 11.1875
Q9.76562 11.1875 9.32812 11.25
Q8.89062 11.3281 8.6875 11.375" id="Cmr10-35"/>
     <path d="
M2.78125 16.5
L2.78125 20.0156
L33.6875 66.1094
Q34.0312 66.6094 34.7188 66.6094
L36.1875 66.6094
Q37.3125 66.6094 37.3125 65.4844
L37.3125 20.0156
L47.125 20.0156
L47.125 16.5
L37.3125 16.5
L37.3125 6.6875
Q37.3125 4.64062 40.2344 4.07812
Q43.1719 3.51562 47.0156 3.51562
L47.0156 0
L19.4844 0
L19.4844 3.51562
Q23.3438 3.51562 26.2656 4.07812
Q29.2031 4.64062 29.2031 6.6875
L29.2031 16.5
z

M6.10938 20.0156
L29.7812 20.0156
L29.7812 55.4219
z
" id="Cmr10-34"/>
     <path d="
M4.89062 0
Q3.90625 0 3.90625 1.3125
Q3.95312 1.5625 4.09375 2.17188
Q4.25 2.78125 4.51562 3.14062
Q4.78125 3.51562 5.17188 3.51562
Q11.2812 3.51562 13.7188 4.20312
Q14.9844 4.64062 15.5781 6.89062
L29.2969 61.8125
Q29.5 62.7969 29.5 63.1875
Q29.5 64.2656 28.3281 64.4062
Q26.4219 64.7969 21.0938 64.7969
Q20.125 64.7969 20.125 66.1094
Q20.1719 66.3594 20.3125 66.9688
Q20.4531 67.5781 20.7188 67.9375
Q21 68.3125 21.3906 68.3125
L51.7031 68.3125
Q55.3281 68.3125 59.2344 67.4844
Q63.1406 66.6562 66.4062 64.875
Q69.6719 63.0938 71.7656 60.125
Q73.875 57.1719 73.875 53.2188
Q73.875 48.1875 70.5469 44.2344
Q67.2344 40.2812 62.1562 37.625
Q57.0781 34.9688 52.2969 33.8906
Q56.2031 32.4688 58.6875 29.3594
Q61.1875 26.2656 61.1875 22.2188
Q61.1875 21.6875 61.1562 21.4062
Q61.1406 21.1406 61.0781 20.7969
L60.2969 11.9219
Q60.2031 9.96875 60.1094 8.59375
Q60.0156 7.23438 60.0156 6.39062
Q60.0156 3.65625 60.8125 2.01562
Q61.625 0.390625 64.0156 0.390625
Q67.1406 0.390625 69.5 3.29688
Q71.875 6.20312 72.6094 9.625
Q73.0469 10.5 73.5781 10.5
L74.5156 10.5
Q75.4844 10.5 75.4844 9.1875
Q74.75 6.29688 73.1562 3.70312
Q71.5781 1.125 69.1562 -0.53125
Q66.75 -2.20312 63.9219 -2.20312
Q58.0625 -2.20312 53.9375 0.40625
Q49.8125 3.03125 49.8125 8.59375
Q49.8125 10.6875 50.2031 12.3125
L52.3906 21.1875
Q52.7812 22.4062 52.7812 24.0312
Q52.7812 28.1719 49.9688 30.5312
Q47.1719 32.9062 42.9219 32.9062
L30.6094 32.9062
L24.0312 6.5
Q23.7812 5.67188 23.7812 5.07812
Q23.7812 4.04688 25 3.90625
Q26.9062 3.51562 32.1719 3.51562
Q33.2031 3.51562 33.2031 2.20312
Q32.8594 0.78125 32.6562 0.390625
Q32.4688 0 31.5 0
z

M31.2031 35.5
L42.2812 35.5
Q53.1719 35.5 58.6875 41.0156
Q61.2344 43.5625 62.7188 47.4844
Q64.2031 51.4219 64.2031 55.3281
Q64.2031 59.0312 62.0312 61.125
Q59.8594 63.2344 56.6562 64.0156
Q53.4688 64.7969 49.6094 64.7969
L42.9219 64.7969
Q40.1875 64.7969 39.2969 64.3281
Q38.4219 63.875 37.7031 61.375
z
" id="Cmmi10-52"/>
     <path d="
M4.20312 15.1875
Q4.20312 21.1875 8.15625 25.7969
Q12.1094 30.4219 18.3125 33.5
L14.5938 35.8906
Q11.1875 38.1406 9.03125 41.875
Q6.89062 45.6094 6.89062 49.7031
Q6.89062 54.5 9.40625 58.3438
Q11.9219 62.2031 16.0938 64.4062
Q20.2656 66.6094 25 66.6094
Q29.4375 66.6094 33.5625 64.7969
Q37.7031 62.9844 40.3594 59.6094
Q43.0156 56.25 43.0156 51.6094
Q43.0156 48.25 41.4219 45.3594
Q39.8438 42.4844 37.0781 40.1875
Q34.3281 37.8906 31.2031 36.2812
L36.9219 32.625
Q40.875 30.0312 43.2812 25.8281
Q45.7031 21.625 45.7031 17
Q45.7031 11.5781 42.7969 7.125
Q39.8906 2.6875 35.1094 0.234375
Q30.3281 -2.20312 25 -2.20312
Q19.8281 -2.20312 15.0156 -0.09375
Q10.2031 2 7.20312 5.98438
Q4.20312 9.96875 4.20312 15.1875
M9.625 15.1875
Q9.625 11.2344 11.7969 7.95312
Q13.9688 4.6875 17.5312 2.82812
Q21.0938 0.984375 25 0.984375
Q30.8125 0.984375 35.5469 4.375
Q40.2812 7.76562 40.2812 13.375
Q40.2812 15.2812 39.5156 17.1562
Q38.7656 19.0469 37.4219 20.5781
Q36.0781 22.125 34.4219 23.0938
L21 31.7812
Q17.875 30.125 15.25 27.5781
Q12.6406 25.0469 11.125 21.875
Q9.625 18.7031 9.625 15.1875
M16.5 45.7031
L28.6094 37.8906
Q32.8125 40.3281 35.5 43.7969
Q38.1875 47.2656 38.1875 51.6094
Q38.1875 54.9844 36.2969 57.7812
Q34.4219 60.5938 31.3906 62.1562
Q28.375 63.7188 24.9062 63.7188
Q21.875 63.7188 18.7969 62.5469
Q15.7188 61.375 13.7188 59.0469
Q11.7188 56.7344 11.7188 53.6094
Q11.7188 48.9219 16.5 45.7031" id="Cmr10-38"/>
     <path d="
M7.51562 13.2812
Q6.6875 13.2812 6.14062 13.9062
Q5.60938 14.5469 5.60938 15.2812
Q5.60938 16.1094 6.14062 16.6875
Q6.6875 17.2812 7.51562 17.2812
L70.3125 17.2812
Q71.0469 17.2812 71.5781 16.6875
Q72.125 16.1094 72.125 15.2812
Q72.125 14.5469 71.5781 13.9062
Q71.0469 13.2812 70.3125 13.2812
z

M7.51562 32.7188
Q6.6875 32.7188 6.14062 33.2969
Q5.60938 33.8906 5.60938 34.7188
Q5.60938 35.4531 6.14062 36.0781
Q6.6875 36.7188 7.51562 36.7188
L70.3125 36.7188
Q71.0469 36.7188 71.5781 36.0781
Q72.125 35.4531 72.125 34.7188
Q72.125 33.8906 71.5781 33.2969
Q71.0469 32.7188 70.3125 32.7188
z
" id="Cmr10-3d"/>
     <path d="
M8.40625 5.51562
Q8.40625 7.76562 10.0625 9.375
Q11.7188 10.9844 13.9219 10.9844
Q15.2812 10.9844 16.5938 10.25
Q17.9219 9.51562 18.6562 8.20312
Q19.3906 6.89062 19.3906 5.51562
Q19.3906 3.32812 17.7656 1.65625
Q16.1562 0 13.9219 0
Q11.7188 0 10.0625 1.65625
Q8.40625 3.32812 8.40625 5.51562" id="Cmmi10-3a"/>
    </defs>
    <g transform="translate(379.405643723 305.6256)scale(0.12 -0.12)">
     <use transform="translate(0.0 0.5703125)" xlink:href="#Cmmi10-52"/>
     <use transform="translate(75.87890625 43.3734375)scale(0.7)" xlink:href="#Cmr10-32"/>
     <use transform="translate(160.44375 0.5703125)" xlink:href="#Cmr10-3d"/>
     <use transform="translate(244.50234375 0.5703125)" xlink:href="#Cmr10-30"/>
     <use transform="translate(294.50234375 0.5703125)" xlink:href="#Cmmi10-3a"/>
     <use transform="translate(323.0453125 0.5703125)" xlink:href="#Cmr10-38"/>
     <use transform="translate(373.0453125 0.5703125)" xlink:href="#Cmr10-35"/>
     <use transform="translate(423.0453125 0.5703125)" xlink:href="#Cmr10-32"/>
     <use transform="translate(473.0453125 0.5703125)" xlink:href="#Cmr10-34"/>
    </g>
   </g>
   <g id="text_18">
    <!-- rr_qq plot -->
    <defs>
     <path d="
M30.6094 48.3906
Q23.3906 48.3906 19.1875 42.75
Q14.9844 37.1094 14.9844 27.2969
Q14.9844 17.4844 19.1562 11.8438
Q23.3438 6.20312 30.6094 6.20312
Q37.7969 6.20312 41.9844 11.8594
Q46.1875 17.5312 46.1875 27.2969
Q46.1875 37.0156 41.9844 42.7031
Q37.7969 48.3906 30.6094 48.3906
M30.6094 56
Q42.3281 56 49.0156 48.375
Q55.7188 40.7656 55.7188 27.2969
Q55.7188 13.875 49.0156 6.21875
Q42.3281 -1.42188 30.6094 -1.42188
Q18.8438 -1.42188 12.1719 6.21875
Q5.51562 13.875 5.51562 27.2969
Q5.51562 40.7656 12.1719 48.375
Q18.8438 56 30.6094 56" id="BitstreamVeraSans-Roman-6f"/>
     <path d="
M18.1094 8.20312
L18.1094 -20.7969
L9.07812 -20.7969
L9.07812 54.6875
L18.1094 54.6875
L18.1094 46.3906
Q20.9531 51.2656 25.2656 53.625
Q29.5938 56 35.5938 56
Q45.5625 56 51.7812 48.0938
Q58.0156 40.1875 58.0156 27.2969
Q58.0156 14.4062 51.7812 6.48438
Q45.5625 -1.42188 35.5938 -1.42188
Q29.5938 -1.42188 25.2656 0.953125
Q20.9531 3.32812 18.1094 8.20312
M48.6875 27.2969
Q48.6875 37.2031 44.6094 42.8438
Q40.5312 48.4844 33.4062 48.4844
Q26.2656 48.4844 22.1875 42.8438
Q18.1094 37.2031 18.1094 27.2969
Q18.1094 17.3906 22.1875 11.75
Q26.2656 6.10938 33.4062 6.10938
Q40.5312 6.10938 44.6094 11.75
Q48.6875 17.3906 48.6875 27.2969" id="BitstreamVeraSans-Roman-70"/>
     <path d="
M50.9844 -16.6094
L50.9844 -23.5781
L-0.984375 -23.5781
L-0.984375 -16.6094
z
" id="BitstreamVeraSans-Roman-5f"/>
     <path d="
M14.7969 27.2969
Q14.7969 17.3906 18.875 11.75
Q22.9531 6.10938 30.0781 6.10938
Q37.2031 6.10938 41.2969 11.75
Q45.4062 17.3906 45.4062 27.2969
Q45.4062 37.2031 41.2969 42.8438
Q37.2031 48.4844 30.0781 48.4844
Q22.9531 48.4844 18.875 42.8438
Q14.7969 37.2031 14.7969 27.2969
M45.4062 8.20312
Q42.5781 3.32812 38.25 0.953125
Q33.9375 -1.42188 27.875 -1.42188
Q17.9688 -1.42188 11.7344 6.48438
Q5.51562 14.4062 5.51562 27.2969
Q5.51562 40.1875 11.7344 48.0938
Q17.9688 56 27.875 56
Q33.9375 56 38.25 53.625
Q42.5781 51.2656 45.4062 46.3906
L45.4062 54.6875
L54.3906 54.6875
L54.3906 -20.7969
L45.4062 -20.7969
z
" id="BitstreamVeraSans-Roman-71"/>
    </defs>
    <g transform="translate(260.749125 38.2)scale(0.144 -0.144)">
     <use xlink:href="#BitstreamVeraSans-Roman-72"/>
     <use x="39.36328125" xlink:href="#BitstreamVeraSans-Roman-72"/>
     <use x="80.4765625" xlink:href="#BitstreamVeraSans-Roman-5f"/>
     <use x="130.4765625" xlink:href="#BitstreamVeraSans-Roman-71"/>
     <use x="193.953125" xlink:href="#BitstreamVeraSans-Roman-71"/>
     <use x="257.4296875" xlink:href="#BitstreamVeraSans-Roman-20"/>
     <use x="289.216796875" xlink:href="#BitstreamVeraSans-Roman-70"/>
     <use x="352.693359375" xlink:href="#BitstreamVeraSans-Roman-6c"/>
     <use x="380.4765625" xlink:href="#BitstreamVeraSans-Roman-6f"/>
     <use x="441.658203125" xlink:href="#BitstreamVeraSans-Roman-74"/>
    </g>
   </g>
  </g>
 </g>
 <defs>
  <clipPath id="p7ff5b81e1d">
   <rect height="345.6" width="446.4" x="72.0" y="43.2"/>
  </clipPath>
 </defs>
</svg>
